<?xml version="1.0" standalone="no"?><!DOCTYPE svg PUBLIC "-//W3C//DTD SVG 1.1//EN" "http://www.w3.org/Graphics/SVG/1.1/DTD/svg11.dtd"><svg t="1595069427144" class="icon" viewBox="0 0 1024 1024" version="1.1" xmlns="http://www.w3.org/2000/svg" p-id="33364" xmlns:xlink="http://www.w3.org/1999/xlink" width="32" height="32"><defs><style type="text/css"></style></defs><path d="M240.448 697.6A364.48 364.48 0 0 1 128 435.072c0-98.56 40.512-193.024 112.448-262.4C390.4 27.776 633.6 27.776 783.552 172.736A364.48 364.48 0 0 1 896 435.136c0 98.56-40.512 193.024-112.448 262.4L512 960l-271.552-262.4z" fill="#1585FF" p-id="33365"></path><path d="M583.488 247.936c27.52 0 51.136 6.976 70.72 20.928 19.584 13.888 29.312 30.72 29.312 50.56v200c0 19.392-9.28 35.904-27.968 49.6-18.688 13.696-41.472 20.928-68.224 21.696l47.552 45.056a6.592 6.592 0 0 1 1.792 7.744c-1.28 3.008-3.456 4.48-6.784 4.48H394.24a6.72 6.72 0 0 1-6.784-4.48 6.528 6.528 0 0 1 1.792-7.744l47.552-45.056c-26.816-0.768-49.536-8-68.224-21.696-18.688-13.696-28.032-30.144-28.032-49.6V319.424c0-19.84 9.792-36.672 29.376-50.56 19.584-13.824 43.136-20.864 70.72-20.864h142.912zM379.584 530.368c7.04 7.04 15.36 10.496 25.216 10.496a34.56 34.56 0 0 0 25.216-10.496c7.04-6.976 10.432-15.36 10.432-25.152a34.688 34.688 0 0 0-10.432-25.216 34.304 34.304 0 0 0-25.216-10.432 34.688 34.688 0 0 0-25.216 10.432 34.304 34.304 0 0 0-10.432 25.216c0 9.792 3.392 18.176 10.432 25.152z m118.144-110.912V305.152H376.32v114.304h121.472z m157.12 0V305.152h-128.64v114.304h128.64zM593.92 530.368c7.04 7.04 15.424 10.496 25.216 10.496a34.56 34.56 0 0 0 25.216-10.496c7.04-6.976 10.432-15.36 10.432-25.152a34.688 34.688 0 0 0-10.432-25.216 34.304 34.304 0 0 0-25.216-10.432 34.688 34.688 0 0 0-25.216 10.432 34.304 34.304 0 0 0-10.432 25.216c0 9.792 3.456 18.176 10.432 25.152z" fill="#FFFFFF" p-id="33366"></path></svg>