<?xml version="1.0" standalone="no"?><!DOCTYPE svg PUBLIC "-//W3C//DTD SVG 1.1//EN" "http://www.w3.org/Graphics/SVG/1.1/DTD/svg11.dtd"><svg t="1594969845566" class="icon" viewBox="0 0 1024 1024" version="1.1" xmlns="http://www.w3.org/2000/svg" p-id="9508" xmlns:xlink="http://www.w3.org/1999/xlink" width="200" height="200"><defs><style type="text/css"></style></defs><path d="M932.8 960c15.488 0 27.2-7.936 27.2-23.424a26.752 26.752 0 0 0-27.2-27.328h-28.032V457.792c0-19.008-9.28-31.68-28.544-37.76L674.24 370.304V960H932.8z m-308.352 0H91.584C76.096 960 64 952.064 64 936.576c0-15.424 12.096-24.32 27.52-24.32h28.096V103.488A38.4 38.4 0 0 1 158.4 64h424.64c26.368 0 41.28 16 41.28 39.424v254.592L624.448 960z m-197.568-0.64V738.048H317.248v221.376H426.88z" p-id="9509"></path></svg>