<?xml version="1.0" standalone="no"?><!DOCTYPE svg PUBLIC "-//W3C//DTD SVG 1.1//EN" "http://www.w3.org/Graphics/SVG/1.1/DTD/svg11.dtd"><svg t="1595069191111" class="icon" viewBox="0 0 1024 1024" version="1.1" xmlns="http://www.w3.org/2000/svg" p-id="32889" xmlns:xlink="http://www.w3.org/1999/xlink" width="32" height="32"><defs><style type="text/css"></style></defs><path d="M1007.282 936.6h-49.996V316.673a46.845 46.845 0 0 0-23.23-40.464L680.273 128.146a46.76 46.76 0 0 0-46.884-0.15 46.859 46.859 0 0 0-23.483 40.614V936.6h-53.223V46.837a46.863 46.863 0 0 0-21.048-39.107 46.756 46.756 0 0 0-44.202-3.933L94.84 174.111c-17.194 7.384-28.343 24.315-28.343 43.041v719.449H16.68C7.52 936.6 0.096 944.03 0.096 953.192v53.982c0 9.162 7.424 16.591 16.583 16.591h990.603c9.155 0 16.58-7.429 16.58-16.59v-53.983c0-9.162-7.425-16.591-16.58-16.591zM739.184 295.85c0-9.168 7.423-16.599 16.583-16.599h52.674c9.16 0 16.583 7.43 16.583 16.598v52.721c0 9.163-7.423 16.593-16.583 16.593h-52.674c-9.16 0-16.583-7.43-16.583-16.593v-52.72z m0 132.75c0-9.168 7.423-16.597 16.583-16.597h52.674c9.16 0 16.583 7.429 16.583 16.597v52.722c0 9.162-7.423 16.591-16.583 16.591h-52.674c-9.16 0-16.583-7.429-16.583-16.591V428.6z m0 132.746c0-9.162 7.423-16.593 16.583-16.593h52.674c9.16 0 16.583 7.43 16.583 16.593v52.721c0 9.168-7.423 16.598-16.583 16.598h-52.674c-9.16 0-16.583-7.43-16.583-16.598v-52.721z m0 132.75c0-9.167 7.423-16.596 16.583-16.596h52.674c9.16 0 16.583 7.429 16.583 16.596v52.723c0 9.162-7.423 16.596-16.583 16.596h-52.674c-9.16 0-16.583-7.434-16.583-16.596v-52.723z m0 132.752c0-9.168 7.423-16.598 16.583-16.598h52.674c9.16 0 16.583 7.43 16.583 16.598v52.721c0 9.162-7.423 16.593-16.583 16.593h-52.674c-9.16 0-16.583-7.43-16.583-16.593v-52.721z m-391.329-663.75c0-9.163 7.423-16.597 16.583-16.597h52.679c9.16 0 16.583 7.434 16.583 16.597v52.722c0 9.168-7.423 16.597-16.583 16.597h-52.679c-9.16 0-16.583-7.43-16.583-16.597v-52.722z m0 132.751c0-9.167 7.423-16.598 16.583-16.598h52.679c9.16 0 16.583 7.43 16.583 16.598v52.721c0 9.163-7.423 16.593-16.583 16.593h-52.679c-9.16 0-16.583-7.43-16.583-16.593v-52.72z m0 132.75c0-9.167 7.423-16.596 16.583-16.596h52.679c9.16 0 16.583 7.429 16.583 16.597v52.722c0 9.162-7.423 16.591-16.583 16.591h-52.679c-9.16 0-16.583-7.429-16.583-16.591V428.6z m0 132.747c0-9.162 7.423-16.593 16.583-16.593h52.679c9.16 0 16.583 7.43 16.583 16.593v52.721c0 9.168-7.423 16.598-16.583 16.598h-52.679c-9.16 0-16.583-7.43-16.583-16.598v-52.721z m0 132.75c0-9.167 7.423-16.596 16.583-16.596h52.679c9.16 0 16.583 7.429 16.583 16.596v52.723c0 9.162-7.423 16.596-16.583 16.596h-52.679c-9.16 0-16.583-7.434-16.583-16.596v-52.723z m0 132.752c0-9.168 7.423-16.598 16.583-16.598h52.679c9.16 0 16.583 7.43 16.583 16.598v52.721c0 9.162-7.423 16.593-16.583 16.593h-52.679c-9.16 0-16.583-7.43-16.583-16.593v-52.721z m-159.69-530.999c0-9.167 7.424-16.598 16.583-16.598h52.679c9.155 0 16.583 7.43 16.583 16.598v52.721c0 9.163-7.428 16.593-16.583 16.593h-52.68c-9.158 0-16.582-7.43-16.582-16.593v-52.72z m0 132.75c0-9.167 7.424-16.596 16.583-16.596h52.679c9.155 0 16.583 7.429 16.583 16.597v52.722c0 9.162-7.428 16.591-16.583 16.591h-52.68c-9.158 0-16.582-7.429-16.582-16.591V428.6z m0 132.747c0-9.162 7.424-16.593 16.583-16.593h52.679c9.155 0 16.583 7.43 16.583 16.593v52.721c0 9.168-7.428 16.598-16.583 16.598h-52.68c-9.158 0-16.582-7.43-16.582-16.598v-52.721z m0 132.75c0-9.167 7.424-16.596 16.583-16.596h52.679c9.155 0 16.583 7.429 16.583 16.596v52.723c0 9.162-7.428 16.596-16.583 16.596h-52.68c-9.158 0-16.582-7.434-16.582-16.596v-52.723z m0 132.752c0-9.168 7.424-16.598 16.583-16.598h52.679c9.155 0 16.583 7.43 16.583 16.598v52.721c0 9.162-7.428 16.593-16.583 16.593h-52.68c-9.158 0-16.582-7.43-16.582-16.593v-52.721z" fill="#0ba4f4" p-id="32890"></path></svg>