<?xml version="1.0" standalone="no"?><!DOCTYPE svg PUBLIC "-//W3C//DTD SVG 1.1//EN" "http://www.w3.org/Graphics/SVG/1.1/DTD/svg11.dtd"><svg t="1594969227578" class="icon" viewBox="0 0 1024 1024" version="1.1" xmlns="http://www.w3.org/2000/svg" p-id="6877" xmlns:xlink="http://www.w3.org/1999/xlink" width="200" height="200"><defs><style type="text/css"></style></defs><path d="M512 853.333333a341.333333 341.333333 0 1 0 0-682.666666 341.333333 341.333333 0 0 0 0 682.666666z m0-42.666666a298.666667 298.666667 0 1 1 0-597.333334 298.666667 298.666667 0 0 1 0 597.333334z" fill="#000000" p-id="6878"></path><path d="M547.114667 341.333333H426.666667v341.333334h42.666666v-128h77.781334C598.741333 554.666667 640 491.52 640 443.733333S598.698667 341.333333 547.114667 341.333333z m-1.578667 170.666667H469.333333V384h76.202667C572.970667 384 597.333333 419.2 597.333333 448s-24.362667 64-51.797333 64z" fill="#000000" p-id="6879"></path></svg>