<?xml version="1.0" encoding="UTF-8"?>
<svg width="32px" height="32px" viewBox="0 0 32 32" version="1.1" xmlns="http://www.w3.org/2000/svg" xmlns:xlink="http://www.w3.org/1999/xlink">
    <title>编组 41备份</title>
    <g id="页面-1" stroke="none" stroke-width="1" fill="none" fill-rule="evenodd">
        <g id="编组-41备份">
            <g id="icon-yiliao" fill="#000000" fill-rule="nonzero" opacity="0">
                <rect id="Rectangle-path" x="0" y="0" width="32" height="32"></rect>
            </g>
            <path d="M15.6666667,2.0823922 L6.06113407,6.06113407 L2.0823922,15.6666667 L6.06113407,25.2721993 L15.6666667,29.2509411 L25.2721993,25.2721993 L29.2509411,15.6666667 L25.2721993,6.06113407 L15.6666667,2.0823922 Z" id="形状结合" stroke="#000000" stroke-width="2"></path>
            <polygon id="¥" fill="#262626" fill-rule="nonzero" points="17.057554 23 17.057554 19.3445378 20.1654676 19.3445378 20.1654676 18.0840336 17.057554 18.0840336 17.057554 17.2016807 17.4460432 16.5084034 20.1654676 16.5084034 20.1654676 15.2478992 18.1582734 15.2478992 22 8 19.7553957 8 16.1079137 15.4159664 12.352518 8 10 8 13.9496403 15.2478992 11.9640288 15.2478992 11.9640288 16.5084034 14.618705 16.5084034 15.0071942 17.2016807 15.0071942 18.0840336 11.9640288 18.0840336 11.9640288 19.3445378 15.0071942 19.3445378 15.0071942 23"></polygon>
        </g>
    </g>
</svg>