<?xml version="1.0" encoding="UTF-8"?>
<svg width="32px" height="32px" viewBox="0 0 32 32" version="1.1" xmlns="http://www.w3.org/2000/svg" xmlns:xlink="http://www.w3.org/1999/xlink">
    <title>编组 48备份</title>
    <g id="页面-1" stroke="none" stroke-width="1" fill="none" fill-rule="evenodd">
        <g id="编组-48备份" fill="#000000" fill-rule="nonzero">
            <rect id="矩形" opacity="0" x="0" y="0" width="32" height="32"></rect>
            <path d="M7.67072078,14.92404 L5.40050391,14.92404 C4.62702696,14.92404 4,14.297013 4,13.5235361 C4,12.7500591 4.62702696,12.1230321 5.40050391,12.1230321 L8.21551675,12.1230321 C9.74906852,7.40809571 14.1791425,4 19.405543,4 C22.4363877,3.99627975 25.3510115,5.16604421 27.5382691,7.26412396 C27.9057415,7.60870719 28.0598383,8.12409837 27.9418201,8.6138384 C27.823802,9.10357843 27.4518545,9.49220282 26.9677581,9.631574 C26.4836618,9.77094518 25.9620115,9.63958732 25.6016523,9.28757199 C23.9356304,7.6885308 21.7147738,6.79731685 19.405543,6.80111737 C15.7519084,6.80111737 12.6086175,8.98730393 11.2125951,12.1230321 L24.6045351,12.1230321 C25.3780121,12.1230321 26.005039,12.7500591 26.005039,13.5235361 C26.005039,14.297013 25.3780121,14.92404 24.6045351,14.92404 L10.481252,14.92404 C10.4292698,15.4830356 10.4292698,16.045649 10.481252,16.6046446 L24.6045351,16.6046446 C25.3780121,16.6046446 26.005039,17.2316716 26.005039,18.0051486 C26.005039,18.7786255 25.3780121,19.4056525 24.6045351,19.4056525 L11.2125951,19.4056525 C12.6086175,22.5413807 15.7519084,24.7275673 19.405543,24.7275672 C21.7213561,24.7313884 23.9480217,23.8350978 25.6153773,22.2279479 C25.9746373,21.8731602 26.4970597,21.7392206 26.982705,21.87739 C27.4683503,22.0155593 27.8420254,22.4044447 27.960719,22.8952135 C28.0794125,23.3859822 27.924747,23.902648 27.5559154,24.2474746 C25.3669475,26.3560087 22.4448657,27.532353 19.405543,27.5286811 C14.1791425,27.5286811 9.74906859,24.1205889 8.21551675,19.4056525 L5.40050391,19.4056525 C4.62702696,19.4056525 4,18.7786255 4,18.0051486 C4,17.2316716 4.62702696,16.6046446 5.40050391,16.6046446 L7.67072078,16.6046446 C7.63123022,16.045139 7.63123022,15.4835456 7.67072078,14.92404 Z" id="路径"></path>
        </g>
    </g>
</svg>