<?xml version="1.0" encoding="UTF-8"?>
<svg width="32px" height="32px" viewBox="0 0 32 32" version="1.1" xmlns="http://www.w3.org/2000/svg" xmlns:xlink="http://www.w3.org/1999/xlink">
    <title>编组 46备份</title>
    <g id="页面-1" stroke="none" stroke-width="1" fill="none" fill-rule="evenodd">
        <g id="编组-46备份">
            <rect id="矩形备份-66" fill="#000000" fill-rule="nonzero" opacity="0" x="0" y="0" width="32" height="32"></rect>
            <text id="大" font-family="PingFangSC-Semibold, PingFang SC" font-size="16" font-weight="500" line-spacing="14" fill="#262626">
                <tspan x="8" y="19">大</tspan>
            </text>
            <path d="M30.9633845,20.4534313 C30.9633845,20.4534313 29.2654664,19.7768549 27.5300298,19.4207243 C25.6417174,18.9866846 22.9731154,19.0066322 22.9731154,19.0066322 C22.9731154,19.0066322 21.0925869,18.9400704 19.1652927,19.3758123 C17.2379985,19.8115691 15.8152257,20.4035324 15.8152257,20.4035324 C15.8152257,20.4035324 13.8491054,19.6831041 12.1114271,19.3059807 C10.3737487,18.9288574 7.86658495,19.0066322 7.86658495,19.0066322 C7.86658495,19.0066322 5.48053869,19.0647729 3.94530408,19.3956554 C2.41006946,19.7265379 1,20.5132891 1,20.5132891 L1,30.6607562 C1,30.6607562 3.17033877,29.7612473 4.46452149,29.5083187 C5.75867308,29.2553752 7.78335947,29.2638559 7.78335947,29.2638559 C7.78335947,29.2638559 10.2083252,29.4032354 11.6536091,29.68292 C13.0989552,29.9626345 15.8152257,31 15.8152257,31 C15.8152257,31 17.5467392,30.115198 18.9364149,29.7827029 C21.2929134,29.1990113 23.6288625,29.2838185 23.6288625,29.2838185 C23.6288625,29.2838185 25.0643386,29.3137548 27.0619059,29.6729612 C28.8780148,29.9995436 31,30.6807187 31,30.6807187 L30.9634157,20.4534164 L30.9633845,20.4534313 Z" id="路径备份-5" fill="#000000" fill-rule="nonzero"></path>
        </g>
    </g>
</svg>