<?xml version="1.0" encoding="UTF-8"?>
<svg width="32px" height="32px" viewBox="0 0 32 32" version="1.1" xmlns="http://www.w3.org/2000/svg" xmlns:xlink="http://www.w3.org/1999/xlink">
    <title>洗手间备份</title>
    <g id="页面-1" stroke="none" stroke-width="1" fill="none" fill-rule="evenodd">
        <g id="洗手间备份" fill-rule="nonzero">
            <rect id="矩形" fill="#000000" opacity="0" x="0" y="0" width="32" height="32"></rect>
            <path d="M25.0768509,11.0900143 C25.0190911,11.0394745 23.6007674,9.82331004 21.2374292,9.82331004 C18.8756956,9.82331004 17.4565696,11.0394745 17.3980076,11.0900143 C17.2881464,11.1862102 17.2250134,11.3250444 17.2247282,11.4710685 L17.2247282,19.0945587 C17.2247282,19.3745332 17.4517563,19.6031657 17.7341375,19.6031657 L18.8139247,19.6031657 L19.4677334,27.5331037 C19.4883037,27.7972136 19.7090253,28.0007952 19.9739338,27.9999977 C19.9875716,27.9999977 20.0036159,27.9999977 20.0164514,27.9967865 C20.2972282,27.9727199 22.1792347,27.9727199 22.4592093,27.9967865 C22.4720448,27.9999977 22.4880892,27.9999977 22.5017269,27.9999977 C22.7632504,27.9999977 22.9846629,27.7994405 23.0079273,27.5331037 L23.661736,19.6031657 L24.7447321,19.6031657 C25.0254449,19.602724 25.2528974,19.3752714 25.2533392,19.0945587 L25.2533392,11.4710685 C25.2507149,11.324883 25.18665,11.186561 25.0768509,11.0900143 L25.0768509,11.0900143 Z M21.2374292,8.96974867 C22.6093293,8.96886423 23.7213773,7.85717514 23.7227047,6.48527546 C23.7218197,5.11306247 22.6096422,4.000885 21.2374292,4 C19.8655296,4.00132736 18.7538405,5.11337542 18.752956,6.48527546 C18.7542827,7.85686221 19.8658425,8.96842197 21.2374292,8.96974867 L21.2374292,8.96974867 Z M13.9051447,11.3379001 C13.8866936,11.2761292 13.4550997,9.8257167 11.0893549,9.8257167 C8.72762123,9.8257167 8.29281835,11.2761292 8.27677395,11.3298779 L6.02093324,18.9429392 C5.97537529,19.0968014 6.00509951,19.2631399 6.10112576,19.3917014 C6.19715201,19.5202628 6.34821733,19.5959682 6.50868256,19.5959457 L8.66825699,19.5959457 L9.32206571,27.5138504 C9.34223792,27.7782775 9.56307178,27.9823126 9.82826612,27.9815443 L12.3536525,27.983951 C12.615176,27.983951 12.8357863,27.7833961 12.8598529,27.5170593 L13.5136617,19.5983524 L15.673236,19.5983524 C15.8340113,19.5986137 15.9853192,19.5223641 16.0807635,19.3929843 C16.1769362,19.2646103 16.206688,19.0982979 16.1609854,18.9445437 L13.9051447,11.3379001 L13.9051447,11.3379001 Z M11.0893549,8.97777085 C12.4593771,8.97556369 13.5695738,7.86572575 13.5722237,6.4957043 C13.5695738,5.12568285 12.4593771,4.0158449 11.0893549,4.01363774 C9.71964591,4.01628621 8.60993679,5.12599532 8.6072883,6.4957043 C8.608615,7.86596191 9.71909728,8.97644418 11.0893549,8.97777085 L11.0893549,8.97777085 Z" id="形状" fill="#333333"></path>
        </g>
    </g>
</svg>