<?xml version="1.0" encoding="UTF-8"?>
<svg width="32px" height="32px" viewBox="0 0 32 32" version="1.1" xmlns="http://www.w3.org/2000/svg" xmlns:xlink="http://www.w3.org/1999/xlink">
    <title>公安服务备份 2</title>
    <g id="页面-1" stroke="none" stroke-width="1" fill="none" fill-rule="evenodd">
        <g id="公安服务备份-2" fill="#000000" fill-rule="nonzero">
            <rect id="矩形" opacity="0" x="0" y="0" width="32" height="32"></rect>
            <path d="M17.196,3.01866666 L24.2986667,4.65333334 C24.9043928,4.79255364 25.3335887,5.33181395 25.3333333,5.95333334 L25.3333333,6.22533334 C25.3333333,7.00533334 25.872,7.68133334 26.632,7.85733334 L26.9653333,7.93466666 C27.5705735,8.07377521 27.9996341,8.6123127 28,9.23333334 L28,17.1466667 C28,21.3637186 25.5156518,25.1849312 21.6613333,26.896 L16,29.4093333 L10.3386667,26.896 C6.4843482,25.1849312 4,21.3637186 4,17.1466667 L4,9.23333334 C4,8.61270949 4.42862301,8.07430699 5.03333334,7.93466666 L5.36666666,7.85733334 C6.12933334,7.68 6.66666666,7.004 6.66666666,6.22533334 L6.66666666,5.95333334 C6.66641132,5.33181395 7.09560723,4.79255364 7.70133334,4.65333334 L14.804,3.01866666 C15.591049,2.83755839 16.408951,2.83755839 17.196,3.01866666 L17.196,3.01866666 Z M16.236,8.72666666 C16.1090653,8.66397966 15.9624151,8.65433232 15.8283621,8.69985031 C15.6943091,8.7453683 15.5838537,8.84231644 15.5213333,8.96933334 L13.6493333,12.764 L9.46133334,13.372 C9.25994387,13.4007853 9.09247067,13.541632 9.02958495,13.7351047 C8.96669923,13.9285775 9.0193554,14.1409742 9.16533334,14.2826667 L12.196,17.236 L11.48,21.4066667 C11.4456202,21.6066811 11.5277385,21.8088744 11.6918451,21.9282761 C11.8559517,22.0476778 12.0736034,22.063593 12.2533333,21.9693333 L16,20 L19.7466667,21.9693333 C19.9263966,22.063593 20.1440483,22.0476778 20.3081549,21.9282761 C20.4722615,21.8088744 20.5543798,21.6066811 20.52,21.4066667 L19.804,17.236 L22.8346667,14.2826667 C22.9806446,14.1409742 23.0333008,13.9285775 22.9704151,13.7351047 C22.9075293,13.541632 22.7400561,13.4007853 22.5386667,13.372 L18.352,12.764 L16.4786667,8.96933334 C16.4267224,8.86391817 16.3414152,8.77861097 16.236,8.72666666 L16.236,8.72666666 Z" id="形状"></path>
        </g>
    </g>
</svg>