<?xml version="1.0" encoding="UTF-8"?>
<svg width="32px" height="32px" viewBox="0 0 32 32" version="1.1" xmlns="http://www.w3.org/2000/svg" xmlns:xlink="http://www.w3.org/1999/xlink">
    <title>编组 32备份</title>
    <g id="页面-1" stroke="none" stroke-width="1" fill="none" fill-rule="evenodd">
        <g id="编组-32备份">
            <g id="icon-yiliao" fill="#000000" fill-rule="nonzero" opacity="0">
                <rect id="Rectangle-path" x="0" y="0" width="32" height="32"></rect>
            </g>
            <path d="M15.6906667,23.9573333 C16.4444444,23.9573333 17.184,23.8684444 17.9093333,23.6906667 C18.6346667,23.5128889 19.2817778,23.232 19.8506667,22.848 C20.4195556,22.464 20.8782222,21.9697778 21.2266667,21.3653333 C21.5751111,20.7608889 21.7493333,20.032 21.7493333,19.1786667 C21.7493333,18.7804444 21.6888889,18.3822222 21.568,17.984 C21.4471111,17.5857778 21.2622222,17.2124444 21.0133333,16.864 C20.7644444,16.5155556 20.4551111,16.2062222 20.0853333,15.936 C19.7155556,15.6657778 19.2817778,15.4524444 18.784,15.296 C18.5848889,15.2391111 18.2542222,15.1502222 17.792,15.0293333 C17.3297778,14.9084444 16.8568889,14.784 16.3733333,14.656 C15.8897778,14.528 15.4524444,14.4106667 15.0613333,14.304 C14.6702222,14.1973333 14.4462222,14.1368889 14.3893333,14.1226667 C13.8488889,13.9662222 13.4115556,13.7351111 13.0773333,13.4293333 C12.7431111,13.1235556 12.576,12.7004444 12.576,12.16 C12.576,11.776 12.6648889,11.456 12.8426667,11.2 C13.0204444,10.944 13.2444444,10.7413333 13.5146667,10.592 C13.7848889,10.4426667 14.0835556,10.336 14.4106667,10.272 C14.7377778,10.208 15.0577778,10.176 15.3706667,10.176 C16.2951111,10.176 17.056,10.3786667 17.6533333,10.784 C18.2506667,11.1893333 18.5848889,11.8826667 18.656,12.864 L18.656,12.864 L21.3226667,12.864 C21.3226667,12.0675556 21.1662222,11.3671111 20.8533333,10.7626667 C20.5404444,10.1582222 20.1173333,9.64977778 19.584,9.23733333 C19.0506667,8.82488889 18.432,8.51555556 17.728,8.30933333 C17.024,8.10311111 16.2737778,8 15.4773333,8 C14.7946667,8 14.1191111,8.08888889 13.4506667,8.26666667 C12.7822222,8.44444444 12.1848889,8.71822222 11.6586667,9.088 C11.1324444,9.45777778 10.7093333,9.92355556 10.3893333,10.4853333 C10.0693333,11.0471111 9.90933333,11.712 9.90933333,12.48 C9.90933333,12.8782222 9.96266667,13.2693333 10.0693333,13.6533333 C10.176,14.0373333 10.3573333,14.4 10.6133333,14.7413333 C10.8693333,15.0826667 11.2142222,15.392 11.648,15.6693333 C12.0817778,15.9466667 12.6257778,16.1706667 13.28,16.3413333 C14.3324444,16.6257778 15.2177778,16.8568889 15.936,17.0346667 C16.6542222,17.2124444 17.2835556,17.4008889 17.824,17.6 C18.1368889,17.7137778 18.4248889,17.9093333 18.688,18.1866667 C18.9511111,18.464 19.0826667,18.8942222 19.0826667,19.4773333 C19.0826667,19.7617778 19.0257778,20.0426667 18.912,20.32 C18.7982222,20.5973333 18.6133333,20.8426667 18.3573333,21.056 C18.1013333,21.2693333 17.7671111,21.4435556 17.3546667,21.5786667 C16.9422222,21.7137778 16.4444444,21.7813333 15.8613333,21.7813333 C15.3208889,21.7813333 14.8195556,21.7208889 14.3573333,21.6 C13.8951111,21.4791111 13.4862222,21.2871111 13.1306667,21.024 C12.7751111,20.7608889 12.4977778,20.4231111 12.2986667,20.0106667 C12.0995556,19.5982222 12,19.1004444 12,18.5173333 L12,18.5173333 L9.33333333,18.5173333 C9.34755556,19.456 9.52533333,20.2702222 9.86666667,20.96 C10.208,21.6497778 10.6631111,22.2151111 11.232,22.656 C11.8008889,23.0968889 12.4693333,23.424 13.2373333,23.6373333 C14.0053333,23.8506667 14.8231111,23.9573333 15.6906667,23.9573333 Z" id="S" fill="#262626" fill-rule="nonzero"></path>
            <path d="M16,2.41572553 L6.39446741,6.39446741 L2.41572553,16 L6.39446741,25.6055326 L16,29.5842745 L25.6055326,25.6055326 L29.5842745,16 L25.6055326,6.39446741 L16,2.41572553 Z" id="形状结合" stroke="#000000" stroke-width="2"></path>
        </g>
    </g>
</svg>