<?xml version="1.0" encoding="UTF-8"?>
<svg width="32px" height="32px" viewBox="0 0 32 32" version="1.1" xmlns="http://www.w3.org/2000/svg" xmlns:xlink="http://www.w3.org/1999/xlink">
    <title>菜品特性备份</title>
    <g id="页面-1" stroke="none" stroke-width="1" fill="none" fill-rule="evenodd">
        <g id="菜品特性备份" fill="#000000" fill-rule="nonzero">
            <g id="编组-50">
                <rect id="矩形" opacity="0" x="0" y="0" width="32" height="32"></rect>
                <path d="M15.9217994,29 C17.250204,29 18.5786085,28.786385 19.8636956,28.3744131 C19.9647698,28.3133803 20.0658441,28.3133803 20.2246751,28.2676056 C20.2824318,28.2676056 20.2824318,28.2676056 20.3257493,28.2065728 C26.1158605,26.17723 30,20.5164319 30,14.0622066 C30,12.4906103 29.7400948,10.9190141 29.3069194,9.4084507 C29.2058451,9.13380282 28.9748182,8.84389671 28.714913,8.78286385 C27.5886569,8.40140845 26.4335225,8.157277 25.2639489,8.05046948 L25.2639489,7.66901408 C25.2639489,6.47887324 25.1051179,5.31924883 24.7296993,4.20539906 C24.628625,3.93075117 24.3975981,3.64084507 24.1376929,3.57981221 C23.0836327,3.19835681 21.9573767,3.01525822 20.859999,3.01525822 C19.1706149,3.01525822 17.5101092,3.47300469 15.9795561,4.25117371 C14.4923205,3.45774648 12.8318148,3 11.1424308,3 C10.0161747,3 8.91879702,3.16784038 7.86473687,3.56455399 C7.60483163,3.6713615 7.33048721,3.91549296 7.27273048,4.19014085 C6.91175098,5.30399061 6.73848082,6.49413146 6.73848082,7.65375587 L6.73848082,8.03521127 C5.56890723,8.09624413 4.39933364,8.38615023 3.28751677,8.76760563 C3.02761153,8.88967136 2.75326711,9.1185446 2.69551039,9.4084507 C2.23345662,10.9190141 2.00242974,12.4906103 2.00242974,14.0622066 C1.85803794,22.3169014 8.16795965,29 15.9217994,29 Z M28.6715954,13.7112676 C28.6715954,18.9295775 25.913712,23.5375587 21.6108363,25.8720657 L21.6108363,25.7652582 C21.6108363,25.6584507 21.6685931,25.536385 21.6685931,25.3685446 C21.6685931,25.2617371 21.6685931,25.185446 21.7263498,25.0786385 C21.7263498,24.971831 21.7841065,24.7887324 21.7841065,24.6819249 L21.7841065,24.4530516 C21.7841065,24.2699531 21.7841065,24.1631455 21.8418632,23.9647887 L21.8418632,23.7359155 L21.8418632,23.0798122 L21.8418632,22.2558685 L21.8418632,21.9659624 C21.8418632,21.7828638 21.8418632,21.5997653 21.7841065,21.4776995 C21.7841065,21.370892 21.7841065,21.2946009 21.7263498,21.1877934 C21.7263498,21.0046948 21.6685931,20.8215962 21.6685931,20.6690141 L21.6685931,20.4859155 C21.1776609,17.1748826 19.6471079,14.1537559 17.3945958,11.7734742 C18.9684664,10.6596244 20.7444855,9.89671362 22.6071398,9.57629108 L22.7804099,9.57629108 C22.8814842,9.57629108 22.9536801,9.57629108 23.0547544,9.51525822 C23.1558286,9.51525822 23.2280245,9.51525822 23.3290988,9.45422535 L23.5023689,9.45422535 C23.6034432,9.45422535 23.7767134,9.45422535 23.8777876,9.39319249 L24.4842332,9.39319249 C25.668246,9.39319249 26.8955763,9.57629108 28.0218323,9.91197183 C28.4983253,11.1631455 28.6715954,12.4295775 28.6715954,13.7112676 L28.6715954,13.7112676 Z M23.1413894,4.89201878 C23.3579771,5.71596244 23.4879298,6.55516432 23.4879298,7.37910798 L23.4879298,7.7758216 L23.3868555,7.7758216 C23.2135853,7.7758216 23.0114368,7.83685446 22.8237275,7.83685446 L22.6071398,7.83685446 C22.3905521,7.89788732 22.145086,7.89788732 21.9429375,7.94366197 C21.7696673,7.94366197 21.6685931,8.00469484 21.4808837,8.05046948 C21.423127,8.05046948 21.3076136,8.11150235 21.264296,8.11150235 C21.0910259,8.17253521 20.9177557,8.17253521 20.7733639,8.21830986 C20.7156072,8.21830986 20.6722896,8.27934272 20.6000937,8.27934272 C20.4990195,8.34037559 20.383506,8.34037559 20.2535534,8.38615023 C20.2535534,8.32511737 20.1957967,8.27934272 20.1957967,8.27934272 C20.13804,8.21830986 20.13804,8.17253521 20.0947224,8.05046948 C20.0369657,7.98943662 19.9936482,7.86737089 19.9936482,7.82159624 C19.9936482,7.76056338 19.9358915,7.71478873 19.8925739,7.71478873 C19.2716892,6.76877934 18.5497302,5.88380282 17.6978185,5.16666667 C19.4016418,4.46478873 21.3653703,4.41901408 23.1413894,4.89201878 L23.1413894,4.89201878 Z M8.90435784,4.73943662 C9.68407357,4.51056338 10.4782285,4.37323944 11.2579442,4.37323944 C12.9906458,4.37323944 14.6944691,4.89201878 16.0806304,5.85328638 C16.1383871,5.91431925 16.2539005,5.9600939 16.2972181,6.03638498 C16.3982923,6.09741784 16.4704882,6.14319249 16.5715625,6.26525822 C16.6293192,6.32629108 16.7448326,6.37206573 16.7881502,6.44835681 C16.8892244,6.50938967 16.9614203,6.6314554 17.0624946,6.67723005 L17.2357648,6.86032864 C17.5823051,7.15023474 17.8999671,7.51643192 18.1743115,7.85211268 L18.3475816,8.03521127 C18.4053384,8.14201878 18.4486559,8.21830986 18.5641693,8.32511737 C18.6219261,8.38615023 18.6652436,8.50821596 18.7374395,8.55399061 C18.7951962,8.66079812 18.8385138,8.7370892 18.9107097,8.84389671 C18.9684664,8.90492958 18.9684664,8.95070423 19.0117839,8.95070423 C18.6363652,9.13380282 18.2753857,9.31690141 17.9577238,9.54577465 C17.8999671,9.54577465 17.8566495,9.60680751 17.7844536,9.60680751 C17.6833794,9.66784038 17.5101092,9.7899061 17.4090349,9.83568075 C17.3512782,9.89671362 17.2357648,9.94248826 17.1924472,10.0187793 C17.091373,10.0798122 16.9758595,10.1255869 16.8459069,10.2476526 C16.7448326,10.3086854 16.6293192,10.4307512 16.4993666,10.4765258 C16.4416099,10.5375587 16.3982923,10.5375587 16.3260964,10.5833333 C15.5896982,9.98826291 14.8244217,9.51525822 14.0302668,9.10328638 C13.9725101,9.04225352 13.8569966,9.04225352 13.8136791,8.99647887 C13.7126048,8.93544601 13.5970914,8.88967136 13.4671388,8.88967136 C13.3660645,8.8286385 13.2505511,8.78286385 13.1205984,8.70657277 C13.0628417,8.70657277 13.0628417,8.64553991 13.0195242,8.64553991 C12.0809775,8.24882629 11.1279916,7.94366197 10.1028098,7.76056338 L10.0450531,7.76056338 C9.5829993,7.69953052 9.1498239,7.65375587 8.6444526,7.57746479 L8.47118244,7.57746479 L8.47118244,7.18075117 C8.55781752,6.40258216 8.68777014,5.54812207 8.90435784,4.73943662 L8.90435784,4.73943662 Z M4.03835414,9.97300469 C5.22236691,9.60680751 6.3919405,9.45422535 7.57595327,9.45422535 L7.61927081,9.45422535 C8.18239883,9.45422535 8.67333096,9.51525822 9.23645898,9.56103286 L9.2942157,9.56103286 C9.46748586,9.56103286 9.64075603,9.62206573 9.78514783,9.62206573 C10.680377,9.80516432 11.561167,10.0187793 12.4130786,10.4460094 C12.5141529,10.5070423 12.6296663,10.5528169 12.7596189,10.629108 C12.8173757,10.6901408 12.9328891,10.6901408 12.9762066,10.7359155 C13.0339634,10.7969484 13.1494768,10.7969484 13.1927943,10.842723 C13.2938686,10.9037559 13.409382,10.9495305 13.5393347,11.0258216 C13.5970914,11.0258216 13.6404089,11.0868545 13.6404089,11.0868545 C13.8136791,11.193662 13.9869492,11.2699531 14.1024627,11.3767606 C16.5715625,12.963615 18.4775343,15.3438967 19.4882769,18.258216 C19.4882769,18.3192488 19.5460336,18.3650235 19.5460336,18.4413146 C19.6037903,18.6244131 19.6471079,18.7312207 19.7193038,18.9295775 C19.7193038,18.9906103 19.7770605,19.1126761 19.7770605,19.1584507 C19.8348172,19.2652582 19.8348172,19.3873239 19.8781347,19.5551643 C19.8781347,19.6619718 19.9358915,19.7382629 19.9358915,19.8450704 C19.9358915,19.9518779 19.9936482,20.0739437 19.9936482,20.2112676 C19.9936482,20.3485915 20.0514049,20.4401408 20.0514049,20.5774648 C20.0514049,20.7147887 20.1091616,20.806338 20.1091616,20.8673709 C20.1091616,20.9741784 20.1669183,21.157277 20.1669183,21.2640845 C20.1669183,21.370892 20.1669183,21.4471831 20.2246751,21.5539906 C20.2246751,21.7370892 20.2246751,21.8438967 20.2824318,22.0422535 L20.2824318,22.9730047 C20.2824318,23.9190141 20.1813575,24.8650235 20.0080874,25.8262911 L20.0080874,25.9330986 C15.2575971,26.6502347 10.3771542,21.7065728 10.4926677,16.42723 C10.4926677,16.1525822 10.521546,15.57277 10.0594922,15.3591549 C9.55412094,15.1302817 9.04874964,15.8474178 9.04874964,16.42723 C9.04874964,21.3403756 11.965464,25.5974178 16.051752,27.2605634 C9.04874964,27.1537559 3.43190857,21.0962441 3.43190857,13.6960094 C3.51854365,12.4295775 3.69181381,11.1631455 4.03835414,9.97300469 Z" id="形状"></path>
            </g>
        </g>
    </g>
</svg>