<?xml version="1.0" encoding="UTF-8"?>
<svg width="32px" height="32px" viewBox="0 0 32 32" version="1.1" xmlns="http://www.w3.org/2000/svg" xmlns:xlink="http://www.w3.org/1999/xlink">
    <title>公安服务备份 3</title>
    <g id="页面-1" stroke="none" stroke-width="1" fill="none" fill-rule="evenodd">
        <g id="公安服务备份-3" fill-rule="nonzero">
            <rect id="矩形" fill="#000000" opacity="0" x="0" y="0" width="32" height="32"></rect>
            <path d="M16.971715,3.99319026 C16.3322727,3.84604784 15.6677273,3.84604784 15.02825,3.99319831 L7.77389341,5.7331511 C7.69274509,5.85644216 7.66660977,6.02614007 7.66666662,6.22504758 C7.66666666,6.88502098 7.43144651,7.49980473 6.95593524,7.99744183 C6.57149191,8.39977354 6.0151963,8.73316163 5,9.23333334 L5,17.1466667 C5,19.0575366 5.56286771,20.8787232 6.56236488,22.416023 C7.56184529,23.9532971 8.99794086,25.2066933 10.7444167,25.9820159 L16,28.3152176 L21.2555744,25.9820199 C23.0020591,25.2066933 24.4381547,23.9532971 25.4376351,22.416023 C26.4371323,20.8787232 27,19.0575366 27,17.1466667 L26.931506,9.07055009 C26.8159059,8.95427394 26.6340022,8.88404052 26.4072903,8.83175911 C25.7692865,8.68401129 25.2279711,8.32049675 24.8521285,7.76946664 C24.5363174,7.30645003 24.3333333,6.69858758 24.0746668,5.62792251 L16.971715,3.99319026 Z" id="路径" stroke="#000000" stroke-width="2"></path>
            <path d="M16.236,8.72666666 C16.1090653,8.66397966 15.9624151,8.65433232 15.8283621,8.69985031 C15.6943091,8.7453683 15.5838537,8.84231644 15.5213333,8.96933334 L13.6493333,12.764 L9.46133334,13.372 C9.25994387,13.4007853 9.09247067,13.541632 9.02958495,13.7351047 C8.96669923,13.9285775 9.0193554,14.1409742 9.16533334,14.2826667 L12.196,17.236 L11.48,21.4066667 C11.4456202,21.6066811 11.5277385,21.8088744 11.6918451,21.9282761 C11.8559517,22.0476778 12.0736034,22.063593 12.2533333,21.9693333 L16,20 L19.7466667,21.9693333 C19.9263966,22.063593 20.1440483,22.0476778 20.3081549,21.9282761 C20.4722615,21.8088744 20.5543798,21.6066811 20.52,21.4066667 L19.804,17.236 L22.8346667,14.2826667 C22.9806446,14.1409742 23.0333008,13.9285775 22.9704151,13.7351047 C22.9075293,13.541632 22.7400561,13.4007853 22.5386667,13.372 L18.352,12.764 L16.4786667,8.96933334 C16.4267224,8.86391817 16.3414152,8.77861097 16.236,8.72666666 L16.236,8.72666666 Z" id="路径" fill="#000000"></path>
        </g>
    </g>
</svg>