<?xml version="1.0" encoding="UTF-8"?>
<svg width="32px" height="32px" viewBox="0 0 32 32" version="1.1" xmlns="http://www.w3.org/2000/svg" xmlns:xlink="http://www.w3.org/1999/xlink">
    <title>编组 51备份</title>
    <g id="页面-1" stroke="none" stroke-width="1" fill="none" fill-rule="evenodd">
        <g id="编组-51备份" fill-rule="nonzero">
            <rect id="矩形" fill="#000000" opacity="0" x="0" y="0" width="32" height="32"></rect>
            <path d="M15.6488625,3 L16.5778389,3.01929985 C19.8794814,3.08930614 22.9689269,4.39678252 25.274778,6.70263369 C27.6393899,9.06724557 28.9479807,12.2325734 28.963684,15.6128337 L28.966926,16.5132909 L28.9173696,16.5138105 C28.8284651,17.9743094 28.498601,19.39831 27.9308013,20.7612856 C27.2585484,22.3777622 26.2805879,23.8339133 25.028225,25.0862762 C23.7758621,26.3386391 22.319711,27.3165996 20.7032344,27.9888525 C19.1424285,28.6378544 17.49723,28.9781599 15.8108484,28.9989794 C14.1244667,29.0197989 12.4891968,28.7220443 10.941916,28.1093626 C9.34154785,27.4768238 7.90910366,26.534525 6.68728621,25.3127075 C5.46546876,24.0908901 4.52316991,22.6584459 3.89063117,21.0580778 C3.27997572,19.5128232 2.98019481,17.875527 3.00101434,16.1891454 L3.007,15.983 L3.00062042,15.6482421 L3.01865272,15.6482364 C3.09796093,14.1513319 3.42987183,12.6920683 4.01114127,11.2967594 C4.68339415,9.68028272 5.66135467,8.22413162 6.91371755,6.97176873 C8.16608044,5.71940585 9.62223154,4.74144533 11.2387082,4.06919245 C12.650792,3.48203102 14.1319518,3.14754013 15.6501904,3.07370972 L15.6488625,3 Z M27.167222,16.5423675 L27.0118067,16.554281 C24.3378882,16.7895223 21.8436886,17.9549758 19.9017193,19.8969451 C17.9094748,21.8891896 16.7327621,24.4643381 16.5375264,27.2201923 C19.1767354,27.0240319 21.7780945,25.9049292 23.8124863,23.8705374 C25.861029,21.8219947 26.9815051,19.1985698 27.167222,16.5423675 Z M17.3895865,4.86282167 L17.3925865,4.81433813 C17.3176159,6.23472624 17.0132253,7.62922925 16.4818462,8.96704844 C15.8085802,10.6655874 14.8031136,12.1897693 13.4967516,13.4961312 C12.1903897,14.8024932 10.6662079,15.8079598 8.96766886,16.4812258 C7.62782344,17.0105787 6.23534666,17.3169955 4.81495855,17.3919661 C5.0669204,19.9118886 6.16225037,22.2408894 7.94938634,24.0280254 C9.79123055,25.8698696 12.1980894,26.9724434 14.7985039,27.1844378 C14.8916599,25.7863889 15.2080052,24.4204557 15.7411067,23.1092815 C16.4138661,21.4517737 17.4066181,19.9605688 18.6859805,18.6812063 C19.965343,17.4018439 21.454471,16.4111688 23.1119788,15.7384094 C24.4134406,15.2092568 25.7668069,14.8957073 27.1539961,14.79999 C26.9436292,12.3016554 25.8967382,9.8796837 24.0085241,7.99146962 C22.168164,6.15110943 19.8207579,5.10996868 17.3895865,4.86282167 Z M15.652532,4.82162809 L15.5146784,4.82892679 C12.8390157,5.00249321 10.1926645,6.12429926 8.12945631,8.18750749 C6.04599038,10.2709734 4.92250379,12.9490897 4.76603735,15.6515509 C7.5670549,15.498691 10.2670127,14.2943926 12.2810129,12.2803925 C14.315617,10.2457883 15.4947707,7.62423544 15.652532,4.82162809 Z" id="形状结合" fill="#282828"></path>
        </g>
    </g>
</svg>