<?xml version="1.0" encoding="UTF-8"?>
<svg width="32px" height="32px" viewBox="0 0 32 32" version="1.1" xmlns="http://www.w3.org/2000/svg" xmlns:xlink="http://www.w3.org/1999/xlink">
    <title>编组 33备份</title>
    <g id="页面-1" stroke="none" stroke-width="1" fill="none" fill-rule="evenodd">
        <g id="编组-33备份">
            <g id="icon-yiliao" fill="#000000" fill-rule="nonzero" opacity="0">
                <rect id="Rectangle-path" x="0" y="0" width="32" height="32"></rect>
            </g>
            <path d="M16,2.41572553 L6.39446741,6.39446741 L2.41572553,16 L6.39446741,25.6055326 L16,29.5842745 L25.6055326,25.6055326 L29.5842745,16 L25.6055326,6.39446741 L16,2.41572553 Z" id="形状结合" stroke="#000000" stroke-width="2"></path>
            <path d="M13.3333333,23.232 L13.3333333,17.3866667 L17.3866667,17.3866667 C18.4675556,17.3866667 19.3493333,17.2337778 20.032,16.928 C20.7146667,16.6222222 21.2408889,16.2346667 21.6106667,15.7653333 C21.9804444,15.296 22.2328889,14.7875556 22.368,14.24 C22.5031111,13.6924444 22.5706667,13.184 22.5706667,12.7146667 C22.5706667,12.2453333 22.5031111,11.7333333 22.368,11.1786667 C22.2328889,10.624 21.9804444,10.112 21.6106667,9.64266667 C21.2408889,9.17333333 20.7146667,8.78222222 20.032,8.46933333 C19.3493333,8.15644444 18.4675556,8 17.3866667,8 L17.3866667,8 L10.6666667,8 L10.6666667,23.232 L13.3333333,23.232 Z M17.2373333,15.2106667 L13.3333333,15.2106667 L13.3333333,10.176 L17.28,10.176 C17.6355556,10.176 17.9697778,10.2115556 18.2826667,10.2826667 C18.5955556,10.3537778 18.8728889,10.4853333 19.1146667,10.6773333 C19.3564444,10.8693333 19.5484444,11.1288889 19.6906667,11.456 C19.8328889,11.7831111 19.904,12.1955556 19.904,12.6933333 C19.904,13.1768889 19.8222222,13.5786667 19.6586667,13.8986667 C19.4951111,14.2186667 19.2817778,14.4746667 19.0186667,14.6666667 C18.7555556,14.8586667 18.4675556,14.9973333 18.1546667,15.0826667 C17.8417778,15.168 17.536,15.2106667 17.2373333,15.2106667 L17.2373333,15.2106667 Z" id="P" fill="#262626" fill-rule="nonzero"></path>
        </g>
    </g>
</svg>