<?xml version="1.0" encoding="UTF-8"?>
<svg width="32px" height="32px" viewBox="0 0 32 32" version="1.1" xmlns="http://www.w3.org/2000/svg" xmlns:xlink="http://www.w3.org/1999/xlink">
    <title>编组 44备份</title>
    <g id="页面-1" stroke="none" stroke-width="1" fill="none" fill-rule="evenodd">
        <g id="编组-44备份" fill="#000000" fill-rule="nonzero">
            <rect id="矩形备份-63" opacity="0" x="0" y="0" width="32" height="32"></rect>
            <g id="形状结合-3" transform="translate(4.000000, 2.000000)">
                <path d="M12.12435,0 L16.172695,6.988065 L24.2487,7 L20.221005,14 L24.2487,21.000035 L16.172695,21.0119 L12.12435,28 L8.076005,21.0119 L0,21.000035 L4.027695,14 L0,7 L8.076005,6.988065 L12.12435,0 Z M13.0460418,20.948987 L10.8290418,20.948987 L11.9370418,22.835987 L13.0460418,20.948987 Z M5.45648304,16.2077184 L5.17378364,16.7048096 C4.70158738,17.5337535 4.32642198,18.2023289 4.04860326,18.7099636 L6.91442444,18.7085126 C6.39073127,17.8126532 5.90477627,16.9791013 5.45648304,16.2077184 Z M18.4197681,16.2087936 L18.3585591,16.3138496 C17.9274653,17.0554073 17.4620698,17.8535882 16.962306,18.7085126 L19.8281272,18.7099636 C19.4968828,18.1047086 19.0272513,17.270662 18.4197681,16.2087936 Z M14.3980418,9.28998697 L9.47704182,9.28998697 L8.57900576,10.8201848 C7.90117602,11.9807582 7.29028828,13.0307543 6.74652509,13.9698422 C7.21257405,14.7726781 7.72798084,15.6588169 8.29259737,16.6264953 L8.57900576,17.1171213 L9.51304182,18.708987 L14.3620418,18.708987 L15.2977247,17.1171213 C15.9755763,15.9565104 16.5864816,14.9064841 17.130258,13.967373 C16.6641302,13.164557 16.148725,12.2784433 15.5841243,11.3107952 L15.2977247,10.8201848 L14.3980418,9.28998697 Z M19.793785,9.29000921 L16.9990055,9.29157734 C17.5084804,10.1632169 17.9819981,10.9754898 18.4196297,11.7285246 C19.0065251,10.7028737 19.4647088,9.88971776 19.793785,9.29000921 Z M4.08294545,9.29000921 C4.41202162,9.88971776 4.87020533,10.7028737 5.45701409,11.7286029 C5.89473236,10.9754898 6.36825008,10.1632169 6.87772501,9.29157734 L4.08294545,9.29000921 Z M11.9380418,5.10098697 L10.7930418,7.04998697 L13.0830418,7.04998697 L11.9380418,5.10098697 Z" id="形状结合"></path>
            </g>
        </g>
    </g>
</svg>