<?xml version="1.0" encoding="UTF-8"?>
<svg width="64px" height="36px" viewBox="0 0 64 36" version="1.1" xmlns="http://www.w3.org/2000/svg" xmlns:xlink="http://www.w3.org/1999/xlink">
    <title>编组 31备份</title>
    <g id="页面-1" stroke="none" stroke-width="1" fill="none" fill-rule="evenodd">
        <g id="编组-31备份">
            <g id="编组-30">
                <path d="M61.6621152,1.4961039 L42.8575192,20.3010273 L44.9145571,22.3580652 L62.5451152,4.72625876 L62.5451152,10.7932588 L47.9484283,25.3919364 L50.0054662,27.4489743 L62.5451152,14.9072588 L62.5451152,20.9762588 L53.0393374,30.4828455 L55.0963753,32.5398834 L62.5451152,25.0902588 L62.5451152,31.1582588 L59.2931152,34.4101039 L54.8131152,34.4101039 L42.8432727,22.4411039 L0.727272727,22.4415584 L0.727272727,13.4649351 L42.7282727,13.4641039 L54.6981152,1.4961039 L61.6621152,1.4961039 Z M18.1818182,14.961039 L6.54545455,14.961039 L6.54545455,20.9454545 L18.1818182,20.9454545 L18.1818182,14.961039 Z M35.6363636,14.961039 L24,14.961039 L24,20.9454545 L35.6363636,20.9454545 L35.6363636,14.961039 Z" id="形状结合" fill="#000000"></path>
                <rect id="矩形备份-23" stroke="#000000" stroke-width="2" x="1" y="1" width="62" height="33.9064935"></rect>
            </g>
        </g>
    </g>
</svg>