<?xml version="1.0" encoding="UTF-8"?>
<svg width="32px" height="32px" viewBox="0 0 32 32" version="1.1" xmlns="http://www.w3.org/2000/svg" xmlns:xlink="http://www.w3.org/1999/xlink">
    <title>花朵02备份</title>
    <g id="页面-1" stroke="none" stroke-width="1" fill="none" fill-rule="evenodd">
        <g id="花朵02备份" fill="#000000" fill-rule="nonzero">
            <rect id="矩形" opacity="0" x="0" y="0" width="32" height="32"></rect>
            <path d="M9.76,20.1728 C8.7616,18.704 8.8736,17.3504 9.9072,16.0928 C10.8224,15.4944 11.7312,14.8832 12.6144,14.2208 C13.3466236,15.2216963 14.476317,15.8565653 15.712,15.9616 C15.6736,17.3312 15.68,18.6624 15.248,19.3984 C14.1568,21.7152 11.536,22.1696 9.76,20.1728 L9.76,20.1728 Z M11.9008,2.1312 C13.6704,1.9904 14.7904,2.7584 15.3728,4.2784 C15.4368,5.3696 15.52,6.464 15.6576,7.5552 C14.4543561,7.65391868 13.3592635,8.2884144 12.6752,9.2832 C11.8461084,8.55017467 10.9589337,7.88559627 10.0224,7.296 C8.5472,5.2 9.2864,2.6912 11.9008,2.1312 L11.9008,2.1312 Z M25.5872,22.5728 C21.3856,22.0224 17.5872,24.9376 17.4912,29.7408 C22.16,29.7696 25.1232,27.7024 25.5872,22.5728 Z M6.7424,22.5728 C7.2064,27.7024 10.1696,29.7696 14.8384,29.7408 C14.7424,24.9376 10.944,22.0224 6.7424,22.5728 Z M15.6256,21.1392 L15.6256,29.8848 L16.7008,29.8848 L16.7008,21.1392 L15.6256,21.1392 L15.6256,21.1392 Z M5.7088,10.5632 C4.9792,13.136 6.8512,14.9632 9.392,14.64 C10.4416,14.176 11.2704,13.824 12.2464,13.44 C11.5712,12.1376 11.888,10.672 12.2592,9.7792 C11.2288,9.3888 10.224,8.9536 9.2288,8.4992 C7.6128,8.304 6.4096,8.9344 5.7088,10.5632 L5.7088,10.5632 Z M26.3008,10.9504 C25.5968,9.3216 24.3936,8.688 22.7776,8.8864 C21.7824,9.3408 20.9184,9.696 19.888,10.0864 C20.256,10.9792 20.4768,12.5312 19.7472,13.6672 C20.7401453,14.0375199 21.6994114,14.4925289 22.6144,15.0272 C25.1552,15.3504 27.0272,13.5232 26.3008,10.9504 L26.3008,10.9504 Z M22.1152,20.2272 C20.3392,22.2208 17.84,21.648 16.7488,19.328 C16.566282,18.2085514 16.4710618,17.0766082 16.464,15.9424 C17.6610946,15.8638646 18.7600916,15.2533107 19.4592,14.2784 C20.3663299,14.8325257 21.222964,15.4653641 22.0192,16.1696 C23.0496,17.4272 23.1168,18.7584 22.1152,20.2272 L22.1152,20.2272 Z M22.32,3.6 C23.3184,5.0656 23.2064,6.4224 22.1728,7.68 C21.2544,8.2752 20.3808,8.7552 19.4976,9.4144 C18.7926869,8.37378257 17.6705195,7.69067338 16.4224,7.5424 C16.6730901,6.55186259 16.8347993,5.54091209 16.9056,4.5216 C17.9968,2.2016 20.544,1.6032 22.32,3.6 Z" id="形状"></path>
        </g>
    </g>
</svg>