<?xml version="1.0" encoding="UTF-8"?>
<svg width="32px" height="32px" viewBox="0 0 32 32" version="1.1" xmlns="http://www.w3.org/2000/svg" xmlns:xlink="http://www.w3.org/1999/xlink">
    <title>摄像备份</title>
    <g id="页面-1" stroke="none" stroke-width="1" fill="none" fill-rule="evenodd">
        <g id="摄像备份" fill="#000000" fill-rule="nonzero">
            <rect id="矩形" opacity="0" x="0" y="0" width="32" height="32"></rect>
            <path d="M22.2856361,14.567929 L22.2856361,11.4999088 C22.2856361,11.1464957 21.9960489,10.8569084 21.6426357,10.8569084 L18.317853,10.8569084 L14.4609446,7 L5.57163698,7 L5.57163698,9.57127226 L13.3963285,9.57127226 L14.6819646,10.8569084 L3.64300043,10.8569084 C3.28958726,10.8569084 3,11.1464957 3,11.4999088 L3,24.3569996 C3,24.7104127 3.28922254,25 3.64300043,25 L21.6426357,25 C21.9960489,25 22.2856361,24.7104127 22.2856361,24.3569996 L22.2856361,21.2886147 L28.7141815,25 L28.7141815,10.8569084 L22.2856361,14.567929 Z" id="路径"></path>
        </g>
    </g>
</svg>