<?xml version="1.0" encoding="UTF-8"?>
<svg width="32px" height="32px" viewBox="0 0 32 32" version="1.1" xmlns="http://www.w3.org/2000/svg" xmlns:xlink="http://www.w3.org/1999/xlink">
    <title>钥匙备份</title>
    <g id="页面-1" stroke="none" stroke-width="1" fill="none" fill-rule="evenodd">
        <g id="钥匙备份" fill="#000000" fill-rule="nonzero">
            <rect id="矩形" opacity="0" x="0" y="0" width="32" height="32"></rect>
            <path d="M28.903125,8.384375 L26.534375,10.3875 L24.91875,8.48125 L27.665625,6.14375 L26.290625,4.525 L12.559375,16.1875 C12.2625,16.440625 11.884375,16.4625 11.534375,16.24375 C9.75,15.03125 6.60625,14.584375 4.15625,16.665625 C1.58125,18.859375 1.265625,22.7375 3.459375,25.315625 C5.653125,27.89375 9.528125,28.209375 12.109375,26.021875 C14.55625,23.940625 14.628125,20.771875 13.721875,18.809375 C13.559375,18.434375 13.64375,18.059375 13.940625,17.80625 L23.91875,9.334375 L25.53125,11.240625 L23.178125,13.25 L24.275,14.5375 L30,9.671875 L28.903125,8.384375 Z M11.009375,24.73125 C9.140625,26.315625 6.334375,26.0875 4.746875,24.221875 C3.1625,22.353125 3.390625,19.546875 5.25625,17.959375 C7.125,16.375 9.93125,16.6 11.51875,18.46875 C13.103125,20.334375 12.875,23.14375 11.009375,24.73125 Z" id="形状"></path>
        </g>
    </g>
</svg>