<?xml version="1.0" encoding="UTF-8"?>
<svg width="32px" height="32px" viewBox="0 0 32 32" version="1.1" xmlns="http://www.w3.org/2000/svg" xmlns:xlink="http://www.w3.org/1999/xlink">
    <title>残疾人备份</title>
    <g id="页面-1" stroke="none" stroke-width="1" fill="none" fill-rule="evenodd">
        <g id="残疾人备份" fill="#000000" fill-rule="nonzero">
            <rect id="矩形" opacity="0" x="0" y="0" width="32" height="32"></rect>
            <path d="M12.167122,7.69864745 C13.3192017,7.64491364 14.325408,6.90231731 14.7163608,5.81726848 C15.1073136,4.73221964 14.8059832,3.51850615 13.9529357,2.74230709 C13.0998881,1.96610803 11.8632,1.78035839 10.8197677,2.27170758 C9.77633536,2.76305676 9.13174695,3.83469394 9.18669326,4.98671649 C9.26164772,6.55823652 10.5955239,7.77194788 12.167122,7.69864745 L12.167122,7.69864745 Z M26.7323474,23.532758 L22.3928432,17.1572323 C22.3256676,17.0606327 22.2469942,16.9725604 22.1585556,16.8949546 C21.8217221,16.5543253 21.3630126,16.3619994 20.8839688,16.3605507 L15.069282,16.3605507 L14.9847934,14.6013203 L20.2116878,14.6013203 C20.8328909,14.6013203 21.3364756,14.0977356 21.3364756,13.4765324 C21.3364756,12.8553292 20.8328909,12.3517446 20.2116878,12.3517446 L14.8790529,12.3517446 L14.7976743,10.6521227 C14.7547117,9.74852022 14.2329465,8.93647736 13.4289225,8.52188279 C12.6248986,8.10728822 11.6607662,8.15312872 10.8997048,8.64213661 C10.1386434,9.1311445 9.69627628,9.98902785 9.73923883,10.8926303 L10.0580151,17.5413188 C10.128755,18.9347209 11.3102187,20.0101885 12.7041175,19.9500236 C12.7196676,19.9500236 12.7321076,19.9438035 12.7445476,19.9438035 C12.7963812,19.9469135 12.8482147,19.9593536 12.9000483,19.9593536 L20.6605662,19.9593536 L24.2474474,25.2266782 C24.5474652,25.6764552 25.0659163,25.9304636 25.6051956,25.8918894 C26.1444749,25.8533152 26.6214947,25.5281016 26.8544414,25.0402021 C27.0873881,24.5523025 27.0403711,23.9768886 26.7313107,23.5332763 L26.7323474,23.532758 Z M20.4086552,21.5988485 C20.3882492,21.5689375 20.3515432,21.554664 20.3162909,21.5629316 C20.2810386,21.5711992 20.2545061,21.600304 20.2495262,21.6361687 C19.8235337,24.6724139 17.4655103,27.0748871 14.4377489,27.5575004 C11.4099874,28.0401137 8.42190355,26.4897891 7.07307301,23.7364437 C5.72424247,20.9830982 6.33070119,17.6718508 8.56780076,15.5752726 C8.6091084,15.5365655 8.63192699,15.4820649 8.63051937,15.4254736 L8.51182057,12.9167301 C8.50873106,12.8670656 8.47987456,12.8226403 8.43575574,12.7996264 C8.39163693,12.7766125 8.33869141,12.7783671 8.29619303,12.8042514 C4.90242834,14.9812596 3.28951492,19.0908714 4.29656294,22.9950817 C5.30361095,26.899292 8.70309508,29.7160111 12.7264507,29.979855 C16.7498062,30.2436988 20.4880247,27.8950564 21.9963166,24.1557972 C22.0296957,24.0699976 22.0192549,23.9733239 21.9683265,23.8966295 L20.4091735,21.6004035 L20.4086552,21.5988485 Z" id="形状"></path>
        </g>
    </g>
</svg>