<?xml version="1.0" encoding="UTF-8"?>
<svg width="32px" height="32px" viewBox="0 0 32 32" version="1.1" xmlns="http://www.w3.org/2000/svg" xmlns:xlink="http://www.w3.org/1999/xlink">
    <title>编组 55</title>
    <g id="页面-1" stroke="none" stroke-width="1" fill="none" fill-rule="evenodd">
        <g id="编组-55" fill-rule="nonzero">
            <rect id="矩形" fill="#000000" opacity="0" x="0" y="0" width="32" height="32"></rect>
            <path d="M16,2 C17.1045695,2 18,2.8954305 18,4 C18,4.55031582 17.7777357,5.04871902 17.4180792,5.41033741 L19.6729223,9.23934375 L24.147003,9.24600107 C24.4446884,8.5151625 25.1621829,8 26,8 C27.1045695,8 28,8.8954305 28,10 C28,11.1045695 27.1045695,12 26,12 C25.8053097,12 25.6171168,11.9721815 25.4391792,11.9203024 L23.3458128,15.5 L25.438189,19.0799866 C25.6164185,19.0279219 25.8049485,19 26,19 C27.1045695,19 28,19.8954305 28,21 C28,22.1045695 27.1045695,23 26,23 C25.1625661,23 24.4453449,22.4853087 24.1474118,21.7550018 L19.6729223,21.760625 L17.4190439,25.5906333 C17.7781331,25.9521726 18,26.4501764 18,27 C18,28.1045695 17.1045695,29 16,29 C14.8954305,29 14,28.1045695 14,27 C14,26.4496842 14.2222643,25.951281 14.5819208,25.5896626 L12.3270777,21.760625 L7.85258816,21.7550018 C7.55465511,22.4853087 6.83743385,23 6,23 C4.8954305,23 4,22.1045695 4,21 C4,19.8954305 4.8954305,19 6,19 C6.19505151,19 6.38358153,19.0279219 6.56181103,19.0799866 L8.65418723,15.5 L6.56181103,11.9200134 C6.38358153,11.9720781 6.19505151,12 6,12 C4.8954305,12 4,11.1045695 4,10 C4,8.8954305 4.8954305,8 6,8 C6.83781712,8 7.55531158,8.5151625 7.85299696,9.24600107 L12.3270777,9.23934375 L14.5819208,5.41033741 C14.2222643,5.04871902 14,4.55031582 14,4 C14,2.8954305 14.8954305,2 16,2 Z" id="形状结合备份-15" stroke="#000000" stroke-width="2"></path>
        </g>
    </g>
</svg>