<?xml version="1.0" standalone="no"?><!DOCTYPE svg PUBLIC "-//W3C//DTD SVG 1.1//EN" "http://www.w3.org/Graphics/SVG/1.1/DTD/svg11.dtd"><svg t="1597210810087" class="icon" viewBox="0 0 1634 1024" version="1.1" xmlns="http://www.w3.org/2000/svg" p-id="14635" width="51.0625" height="32" xmlns:xlink="http://www.w3.org/1999/xlink"><defs><style type="text/css"></style></defs><path d="M16.121546 16.121546m64.486186 0l1192.994432 0q64.486186 0 64.486186 64.486186l0 677.104948q0 64.486186-64.486186 64.486186l-1192.994432 0q-64.486186 0-64.486186-64.486186l0-677.104948q0-64.486186 64.486186-64.486186Z" fill="#FF5456" p-id="14636"></path><path d="M612.876707 584.889703c23.988861 0 36.370209-13.542099 36.370209-40.23938V232.408213h-33.274872v303.729934c0 11.994431-5.029922 18.185104-14.70285 18.185104-13.929016 0-28.631866-0.773834-44.108551-1.934586l7.738342 32.501038h47.977722z m-117.622802 1.547668c20.893524 0 31.340286-10.446762 31.340286-30.953369V416.580759h17.798187v-33.661789h-17.798187V244.015726H439.150923v138.903244h-22.441192V244.015726H329.266463v138.903244h-20.11969v33.661789H328.879546c-1.160751 58.811401-10.059845 107.562957-26.310363 146.254668l26.310363 23.215027c18.958939-43.721634 29.405701-100.211532 30.953369-169.469695h25.923447v126.908813c0 8.899094-4.256088 13.542099-12.381348 13.542099-6.190674 0-12.381348-0.773834-18.958938-1.547669l8.512176 30.566452h20.11969c22.441193 0 33.661789-10.833679 33.661789-32.11412v-137.355575h22.441192v0.386917c-0.386917 58.811401-6.190674 107.562957-17.024352 146.254668l25.536529 22.82811c13.929016-43.334717 21.280441-99.824615 22.054275-169.469695h25.53653v128.069564c0 8.512176-3.482254 12.768265-9.672928 12.768265-5.803757 0-11.994431-0.773834-18.572021-1.547669l8.125259 30.566452h20.11969z m92.860107-82.026428V265.683084h-31.727203v238.727859h31.727203z m-92.860107-121.491973h-25.53653V275.356012h25.53653v107.562958z m-109.497543 0h-25.53653V275.356012h25.53653v107.562958z m531.624113 201.196899c22.441193 0 34.048706-12.768265 34.048706-37.53096V439.795785H1035.003278v-35.596374h-83.574097v-37.144043h44.108551V341.131921c10.833679 8.512176 22.441193 16.637436 35.596375 24.375779l21.667358-31.340287c-45.656219-26.310364-79.704925-58.811401-102.533035-97.890029h-35.596374a320.27064 320.27064 0 0 1-102.919952 99.437698l20.893524 30.953369c11.607513-7.351425 22.82811-15.476685 33.661788-23.988861v24.375778h47.977723v37.144043h-87.443268v35.596374h87.443268v97.503113c0 8.512176-3.482254 13.155182-9.672928 13.155182-10.833679 0-22.054275-0.773834-33.661789-1.934586l8.125259 35.596375h38.304794z m-176.434203 4.256088V278.451349h43.721634a1058.37952 1058.37952 0 0 1-35.596375 105.241455c22.82811 32.11412 34.435623 61.132904 34.435623 87.05635 0 6.577591-1.547668 11.220596-4.256088 14.315934-3.095337 2.321503-8.512176 3.869171-16.637436 4.643005-5.41684 0-11.994431-0.773834-20.11969-1.934586l12.381348 37.144043c25.923447 0 44.108551-5.029922 54.94223-15.089767 6.964508-7.738342 10.446762-20.893524 10.446762-39.078629-1.547668-26.310364-13.155182-57.263733-34.048706-92.47319a1694.858171 1694.858171 0 0 0 35.596374-105.241454v-29.018784h-116.848968v344.356231h35.983292z m244.531615-255.752212h-107.562957a348.451104 348.451104 0 0 0 54.555313-61.519821c14.70285 23.215027 32.11412 43.721634 53.007644 61.519821z m26.310364 230.989517l30.953369-20.893525a797.403927 797.403927 0 0 0-46.816971-82.026428L967.292783 478.487497c18.572021 31.340286 33.661789 59.585235 44.495468 85.121765z m-173.725784 1.934585c20.11969-24.762695 37.917877-54.168396 53.007645-87.830185l-31.727204-15.476684c-14.70285 31.727203-31.727203 58.811401-51.846893 81.639511l30.566452 21.667358z" fill="#FFFFFF" p-id="14637"></path></svg>