<?xml version="1.0" standalone="no"?><!DOCTYPE svg PUBLIC "-//W3C//DTD SVG 1.1//EN" "http://www.w3.org/Graphics/SVG/1.1/DTD/svg11.dtd"><svg t="1588581746838" class="icon" viewBox="0 0 1024 1024" version="1.1" xmlns="http://www.w3.org/2000/svg" p-id="3088" xmlns:xlink="http://www.w3.org/1999/xlink" width="200" height="200"><defs><style type="text/css"></style></defs><path d="M205.1 506.8a303.2 315.3 0 1 0 606.4 0 303.2 315.3 0 1 0-606.4 0Z" fill="#FFFFFF" p-id="3089"></path><path d="M513 98.2c-228.3 0-415 186.8-415 415s186.8 415 415 415 415-186.8 415-415-186.7-415-415-415z m171.2 591.4c-10.4 10.4-31.1 10.4-41.5 0L507.8 554.8 372.9 689.6c-10.4 10.4-31.1 10.4-41.5 0s-10.4-31.1 0-41.5l134.9-134.9-129.7-129.6c-10.4-10.4-10.4-31.1 0-41.5 10.4-10.4 31.1-10.4 41.5 0L513 476.9 642.7 342c10.4-10.4 31.1-10.4 41.5 0 10.4 10.4 10.4 31.1 0 41.5L549.3 518.4l134.9 134.9c15.6 5.2 15.6 26 0 36.3z" fill="#EA4B5F" p-id="3090"></path></svg>