<?xml version="1.0" standalone="no"?><!DOCTYPE svg PUBLIC "-//W3C//DTD SVG 1.1//EN" "http://www.w3.org/Graphics/SVG/1.1/DTD/svg11.dtd"><svg t="1597234682069" class="icon" viewBox="0 0 1024 1024" version="1.1" xmlns="http://www.w3.org/2000/svg" p-id="33788" xmlns:xlink="http://www.w3.org/1999/xlink" width="32" height="32"><defs><style type="text/css"></style></defs><path d="M15.058824 15.058824m240.941176 0l512 0q240.941176 0 240.941176 240.941176l0 512q0 240.941176-240.941176 240.941176l-512 0q-240.941176 0-240.941176-240.941176l0-512q0-240.941176 240.941176-240.941176Z" fill="#AC917F" p-id="33789"></path><path d="M259.222588 247.115294l3.011765 2.650353 180.705882 90.352941a30.117647 30.117647 0 0 1 8.553412 17.347765L451.764706 361.411765v90.352941h331.294118a30.117647 30.117647 0 0 1 29.906823 26.624L813.176471 481.882353v240.941176a30.117647 30.117647 0 0 1-26.593883 29.906824L783.058824 752.941176H240.941176a30.117647 30.117647 0 0 1-29.906823-26.593882L210.823529 722.823529V271.058824a30.177882 30.177882 0 0 1 48.399059-23.94353zM271.058824 318.644706V692.705882h481.882352v-180.705882H421.647059a30.117647 30.117647 0 0 1-29.906824-26.593882L391.529412 481.882353v-103.002353l-120.470588-60.235294zM421.647059 572.235294v60.235294h-90.352941v-60.235294h90.352941z m150.588235 0v60.235294h-90.352941v-60.235294h90.352941z m150.588235 0v60.235294h-90.352941v-60.235294h90.352941z m30.117647-303.22447c-4.276706 37.466353-26.563765 64.301176-66.800941 80.444235-60.355765 24.244706-104.809412-16.865882-159.081411 46.682353 6.354824-37.797647 42.405647-87.04 127.759058-87.04 56.922353 0 89.630118-13.342118 98.123294-40.056471z" fill="#FFFFFF" p-id="33790"></path></svg>