<?xml version="1.0" standalone="no"?><!DOCTYPE svg PUBLIC "-//W3C//DTD SVG 1.1//EN" "http://www.w3.org/Graphics/SVG/1.1/DTD/svg11.dtd"><svg t="1597234630011" class="icon" viewBox="0 0 1024 1024" version="1.1" xmlns="http://www.w3.org/2000/svg" p-id="32519" xmlns:xlink="http://www.w3.org/1999/xlink" width="32" height="32"><defs><style type="text/css"></style></defs><path d="M15.058824 15.058824m240.941176 0l512 0q240.941176 0 240.941176 240.941176l0 512q0 240.941176-240.941176 240.941176l-512 0q-240.941176 0-240.941176-240.941176l0-512q0-240.941176 240.941176-240.941176Z" fill="#6A9AFF" p-id="32520"></path><path d="M778.752 240.941176h-120.470588c-63.247059 0-116.434824 18.401882-146.281412 47.314824C482.183529 259.343059 428.935529 240.941176 365.718588 240.941176h-120.470588C226.273882 240.941176 210.823529 256.271059 210.823529 275.365647v395.836235c0 18.913882 15.450353 34.424471 34.424471 34.424471h120.470588c45.869176 0 95.744 19.606588 113.603765 38.369882 8.131765 8.432941 19.335529 13.251765 31.021176 13.251765h3.46353c11.625412 0 22.768941-4.818824 30.780235-13.251765 17.829647-18.582588 67.704471-38.369882 113.694118-38.369882h120.470588c18.974118 0 34.424471-15.510588 34.424471-34.424471V275.365647C813.176471 256.271059 797.726118 240.941176 778.752 240.941176zM365.718588 653.974588H262.445176v-361.411764h103.273412c73.547294 0 120.470588 30.629647 120.470588 51.651764V682.164706c-30.599529-17.709176-72.643765-28.220235-120.470588-28.220235z m395.836236 0h-103.273412c-47.826824 0-89.871059 10.511059-120.470588 28.220236V344.244706c0-21.022118 46.923294-51.651765 120.470588-51.651765h103.273412v361.411765z" fill="#FFFFFF" p-id="32521"></path></svg>