<?xml version="1.0" standalone="no"?><!DOCTYPE svg PUBLIC "-//W3C//DTD SVG 1.1//EN" "http://www.w3.org/Graphics/SVG/1.1/DTD/svg11.dtd"><svg t="1597234723653" class="icon" viewBox="0 0 1024 1024" version="1.1" xmlns="http://www.w3.org/2000/svg" p-id="34916" xmlns:xlink="http://www.w3.org/1999/xlink" width="32" height="32"><defs><style type="text/css"></style></defs><path d="M15.058824 15.058824m240.941176 0l512 0q240.941176 0 240.941176 240.941176l0 512q0 240.941176-240.941176 240.941176l-512 0q-240.941176 0-240.941176-240.941176l0-512q0-240.941176 240.941176-240.941176Z" fill="#99C565" p-id="34917"></path><path d="M664.997647 481.942588a210.221176 210.221176 0 0 1 46.622118-104.628706 239.344941 239.344941 0 0 1 39.213176 104.628706h-85.835294z m-122.910118 60.235294h61.921883a269.673412 269.673412 0 0 0 67.373176 150.076236 239.977412 239.977412 0 0 1-129.295059 58.669176v-208.715294z m-122.217411 0h61.982117v208.745412a239.887059 239.887059 0 0 1-129.084235-58.518588 271.149176 271.149176 0 0 0 67.102118-150.226824z m61.982117-60.235294h-61.891764a269.583059 269.583059 0 0 0-67.373177-150.076235 239.766588 239.766588 0 0 1 129.264941-58.669177v208.745412z m60.235294 0v-208.715294a239.766588 239.766588 0 0 1 129.264942 58.639059 269.914353 269.914353 0 0 0-67.312942 150.076235h-61.952zM312.32 377.283765a209.317647 209.317647 0 0 1 46.622118 104.658823h-85.835294a239.616 239.616 0 0 1 39.213176-104.658823z m-39.213176 164.894117h85.805176a210.703059 210.703059 0 0 1-46.622118 104.628706 239.435294 239.435294 0 0 1-39.183058-104.628706z m438.482823 104.658824a209.739294 209.739294 0 0 1-46.682353-104.658824h85.89553a239.736471 239.736471 0 0 1-39.213177 104.658824z m-199.68-435.952941c-166.038588 0-301.176471 135.137882-301.176471 301.17647 0 166.068706 135.137882 301.176471 301.176471 301.176471 166.128941 0 301.176471-135.107765 301.176471-301.176471s-135.047529-301.176471-301.176471-301.17647z" fill="#FFFFFF" p-id="34918"></path></svg>