<?xml version="1.0" standalone="no"?><!DOCTYPE svg PUBLIC "-//W3C//DTD SVG 1.1//EN" "http://www.w3.org/Graphics/SVG/1.1/DTD/svg11.dtd"><svg t="1597234782304" class="icon" viewBox="0 0 1024 1024" version="1.1" xmlns="http://www.w3.org/2000/svg" p-id="36185" xmlns:xlink="http://www.w3.org/1999/xlink" width="32" height="32"><defs><style type="text/css"></style></defs><path d="M15.058824 15.058824m240.941176 0l512 0q240.941176 0 240.941176 240.941176l0 512q0 240.941176-240.941176 240.941176l-512 0q-240.941176 0-240.941176-240.941176l0-512q0-240.941176 240.941176-240.941176Z" fill="#6A9AFF" p-id="36186"></path><path d="M512 210.823529c166.339765 0 301.176471 134.836706 301.176471 301.176471s-134.836706 301.176471-301.176471 301.176471S210.823529 678.339765 210.823529 512 345.660235 210.823529 512 210.823529z m0.421647 150.588236l-0.421647 0.542117a52.645647 52.645647 0 0 0-0.421647-0.542117S421.647059 463.540706 421.647059 546.484706a89.961412 89.961412 0 0 0 89.931294 89.931294h0.843294A89.961412 89.961412 0 0 0 602.352941 546.484706C602.352941 463.510588 512.421647 361.411765 512.421647 361.411765z" fill="#FFFFFF" p-id="36187"></path></svg>