<?xml version="1.0" standalone="no"?><!DOCTYPE svg PUBLIC "-//W3C//DTD SVG 1.1//EN" "http://www.w3.org/Graphics/SVG/1.1/DTD/svg11.dtd"><svg t="1597234786988" class="icon" viewBox="0 0 1024 1024" version="1.1" xmlns="http://www.w3.org/2000/svg" p-id="36326" xmlns:xlink="http://www.w3.org/1999/xlink" width="32" height="32"><defs><style type="text/css"></style></defs><path d="M15.058824 15.058824m240.941176 0l512 0q240.941176 0 240.941176 240.941176l0 512q0 240.941176-240.941176 240.941176l-512 0q-240.941176 0-240.941176-240.941176l0-512q0-240.941176 240.941176-240.941176Z" fill="#6A9AFF" p-id="36327"></path><path d="M512 512m-301.176471 0a301.176471 301.176471 0 1 0 602.352942 0 301.176471 301.176471 0 1 0-602.352942 0Z" fill="#FFFFFF" p-id="36328"></path><path d="M621.176471 271.058824L331.294118 517.330824l155.407058 48.790588L365.327059 752.941176l310.181647-226.183529-162.936471-47.224471z" fill="#F76666" p-id="36329"></path></svg>