<?xml version="1.0" standalone="no"?><!DOCTYPE svg PUBLIC "-//W3C//DTD SVG 1.1//EN" "http://www.w3.org/Graphics/SVG/1.1/DTD/svg11.dtd"><svg t="1597234869819" class="icon" viewBox="0 0 1024 1024" version="1.1" xmlns="http://www.w3.org/2000/svg" p-id="38866" xmlns:xlink="http://www.w3.org/1999/xlink" width="32" height="32"><defs><style type="text/css"></style></defs><path d="M15.058824 15.058824m240.941176 0l512 0q240.941176 0 240.941176 240.941176l0 512q0 240.941176-240.941176 240.941176l-512 0q-240.941176 0-240.941176-240.941176l0-512q0-240.941176 240.941176-240.941176Z" fill="#5C93A7" p-id="38867"></path><path d="M512 150.588235l255.548235 105.86353L873.411765 512l-105.86353 255.548235L512 873.411765l-255.548235-105.86353L150.588235 512l105.86353-255.548235L512 150.588235z m0 77.432471l-75.896471 100.683294-124.897882-17.498353 17.498353 124.867765L228.020706 512l100.683294 75.896471-17.498353 124.897882 124.867765-17.498353L512 795.979294l75.896471-100.683294 124.897882 17.498353-17.498353-124.867765L795.979294 512l-100.683294-75.896471 17.498353-124.897882-124.867765 17.498353L512 228.020706z" fill="#FFFFFF" p-id="38868"></path></svg>