<?xml version="1.0" standalone="no"?><!DOCTYPE svg PUBLIC "-//W3C//DTD SVG 1.1//EN" "http://www.w3.org/Graphics/SVG/1.1/DTD/svg11.dtd"><svg t="1597234776496" class="icon" viewBox="0 0 1024 1024" version="1.1" xmlns="http://www.w3.org/2000/svg" p-id="36044" xmlns:xlink="http://www.w3.org/1999/xlink" width="32" height="32"><defs><style type="text/css"></style></defs><path d="M15.058824 15.058824m240.941176 0l512 0q240.941176 0 240.941176 240.941176l0 512q0 240.941176-240.941176 240.941176l-512 0q-240.941176 0-240.941176-240.941176l0-512q0-240.941176 240.941176-240.941176Z" fill="#6A9AFF" p-id="36045"></path><path d="M512 150.588235l255.548235 105.86353L873.411765 512l-105.86353 255.548235L512 873.411765l-255.548235-105.86353L150.588235 512l105.86353-255.548235L512 150.588235z m-164.291765 136.854589l-42.586353 17.679058L219.437176 512l85.684706 206.878118 42.586353 17.648941V287.442824z m328.553412 0v449.084235l42.616471-17.648941L804.562824 512 718.908235 305.121882l-42.61647-17.679058z" fill="#FFFFFF" p-id="36046"></path></svg>