<?xml version="1.0" standalone="no"?><!DOCTYPE svg PUBLIC "-//W3C//DTD SVG 1.1//EN" "http://www.w3.org/Graphics/SVG/1.1/DTD/svg11.dtd"><svg t="1597234643956" class="icon" viewBox="0 0 1024 1024" version="1.1" xmlns="http://www.w3.org/2000/svg" p-id="32942" xmlns:xlink="http://www.w3.org/1999/xlink" width="32" height="32"><defs><style type="text/css"></style></defs><path d="M15.058824 15.058824m240.941176 0l512 0q240.941176 0 240.941176 240.941176l0 512q0 240.941176-240.941176 240.941176l-512 0q-240.941176 0-240.941176-240.941176l0-512q0-240.941176 240.941176-240.941176Z" fill="#6A9AFF" p-id="32943"></path><path d="M754.718118 744.628706v51.922823H266.601412v-51.922823h488.116706z m-41.261177-72.794353v51.922823H308.464941v-51.922823H713.487059zM370.447059 484.984471v155.798588H318.524235v-155.798588H370.447059z m166.159059 0v155.798588h-51.922824v-155.798588h51.922824z m166.159058 0v155.798588H650.842353v-155.798588h51.922823zM511.277176 240.941176l269.70353 207.721412H240.941176L511.277176 240.941176z m-0.12047 65.536l-117.458824 90.232471h234.736942l-117.278118-90.232471z" fill="#FFFFFF" p-id="32944"></path></svg>