<?xml version="1.0" standalone="no"?><!DOCTYPE svg PUBLIC "-//W3C//DTD SVG 1.1//EN" "http://www.w3.org/Graphics/SVG/1.1/DTD/svg11.dtd"><svg t="1597234668847" class="icon" viewBox="0 0 1024 1024" version="1.1" xmlns="http://www.w3.org/2000/svg" p-id="33506" xmlns:xlink="http://www.w3.org/1999/xlink" width="32" height="32"><defs><style type="text/css"></style></defs><path d="M15.058824 15.058824m240.941176 0l512 0q240.941176 0 240.941176 240.941176l0 512q0 240.941176-240.941176 240.941176l-512 0q-240.941176 0-240.941176-240.941176l0-512q0-240.941176 240.941176-240.941176Z" fill="#6A9AFF" p-id="33507"></path><path d="M642.891294 403.907765c29.575529 0 53.669647-24.094118 53.669647-53.669647a53.699765 53.699765 0 0 0-107.369412 0c0 29.575529 24.094118 53.669647 53.699765 53.669647M642.891294 430.772706c-64.240941 0-107.369412 53.910588-107.369412 134.174118v53.669647c0 14.787765 12.047059 26.864941 26.834824 26.864941h26.834823v107.339294c0 14.787765 12.047059 26.834824 26.834824 26.834823h53.699765c14.817882 0 26.804706-12.047059 26.804706-26.834823v-107.339294h26.864941c14.817882 0 26.834824-12.047059 26.834823-26.864941v-53.669647c0-80.263529-43.128471-134.174118-107.339294-134.174118M378.458353 403.907765c29.605647 0 53.669647-24.094118 53.669647-53.669647a53.699765 53.699765 0 0 0-107.339294 0c0 29.575529 24.064 53.669647 53.669647 53.669647M377.886118 430.742588c-48.308706 0-51.742118 14.095059-84.690824 148.630588-5.872941 24.064-12.830118 52.555294-21.293176 86.40753a26.895059 26.895059 0 0 0 25.479529 33.340235s19.968 0.451765 35.749647 0.512c5.12 15.36 12.8 39.303529 19.727059 61.259294a26.804706 26.804706 0 0 0 51.2 0c6.927059-21.955765 14.607059-45.899294 19.757176-61.259294 15.781647-0.060235 35.749647-0.512 35.749647-0.512a26.895059 26.895059 0 0 0 25.419295-33.340235c-8.432941-33.942588-15.450353-62.524235-21.323295-86.528-32.918588-134.475294-36.352-148.48-85.775058-148.48z" fill="#FFFFFF" p-id="33508"></path></svg>