<?xml version="1.0" standalone="no"?><!DOCTYPE svg PUBLIC "-//W3C//DTD SVG 1.1//EN" "http://www.w3.org/Graphics/SVG/1.1/DTD/svg11.dtd"><svg t="1597234603152" class="icon" viewBox="0 0 1024 1024" version="1.1" xmlns="http://www.w3.org/2000/svg" p-id="31814" xmlns:xlink="http://www.w3.org/1999/xlink" width="32" height="32"><defs><style type="text/css"></style></defs><path d="M15.058824 15.058824m240.941176 0l512 0q240.941176 0 240.941176 240.941176l0 512q0 240.941176-240.941176 240.941176l-512 0q-240.941176 0-240.941176-240.941176l0-512q0-240.941176 240.941176-240.941176Z" fill="#6A9AFF" p-id="31815"></path><path d="M511.969882 210.823529S543.804235 286.087529 752.941176 286.087529v308.495059C752.941176 716.468706 511.969882 813.176471 511.969882 813.176471S271.058824 716.468706 271.058824 594.582588V286.087529C479.442824 286.087529 511.969882 210.823529 511.969882 210.823529zM512 301.176471l-61.952 125.530353-138.541176 20.148705 100.231529 97.731765-23.642353 137.968941L512 617.411765l123.904 65.14447-23.642353-137.968941 100.231529-97.731765-138.541176-20.148705L512 301.176471z" fill="#FFFFFF" p-id="31816"></path></svg>