<?xml version="1.0" standalone="no"?><!DOCTYPE svg PUBLIC "-//W3C//DTD SVG 1.1//EN" "http://www.w3.org/Graphics/SVG/1.1/DTD/svg11.dtd"><svg t="1597234811329" class="icon" viewBox="0 0 1024 1024" version="1.1" xmlns="http://www.w3.org/2000/svg" p-id="37032" xmlns:xlink="http://www.w3.org/1999/xlink" width="32" height="32"><defs><style type="text/css"></style></defs><path d="M15.058824 15.058824m240.941176 0l512 0q240.941176 0 240.941176 240.941176l0 512q0 240.941176-240.941176 240.941176l-512 0q-240.941176 0-240.941176-240.941176l0-512q0-240.941176 240.941176-240.941176Z" fill="#C0A7FF" p-id="37033"></path><path d="M481.882353 722.823529v90.352942h-150.588235l18.070588-90.352942H481.882353z m192.752941 0l18.070588 90.352942h-150.588235v-90.352942h132.517647zM481.882353 361.411765v331.294117h-126.494118l66.228706-331.294117H481.882353z m120.470588 0l66.258824 331.294117H542.117647V361.411765h60.235294z m-120.470588-150.588236v120.470589h-54.241882L451.764706 210.823529h30.117647z m90.352941 0l24.094118 120.470589H542.117647V210.823529h30.117647z" fill="#FFFFFF" p-id="37034"></path></svg>