<?xml version="1.0" standalone="no"?><!DOCTYPE svg PUBLIC "-//W3C//DTD SVG 1.1//EN" "http://www.w3.org/Graphics/SVG/1.1/DTD/svg11.dtd"><svg t="1597234570637" class="icon" viewBox="0 0 1024 1024" version="1.1" xmlns="http://www.w3.org/2000/svg" p-id="30827" xmlns:xlink="http://www.w3.org/1999/xlink" width="32" height="32"><defs><style type="text/css"></style></defs><path d="M15.058824 15.058824m240.941176 0l512 0q240.941176 0 240.941176 240.941176l0 512q0 240.941176-240.941176 240.941176l-512 0q-240.941176 0-240.941176-240.941176l0-512q0-240.941176 240.941176-240.941176Z" fill="#6A9AFF" p-id="30828"></path><path d="M261.722353 394.872471a258.409412 258.409412 0 0 1 71.619765-10.089412l1.65647 0.030117h0.060236c11.053176 0.090353 22.016 0.873412 32.88847 2.349177l0.722824 0.090353c3.553882 0.481882 7.077647 1.054118 10.601411 1.686588l0.361412 0.060235a260.758588 260.758588 0 0 1 52.976941 15.600942c2.409412 0.993882 4.728471 2.078118 7.077647 3.132235 1.505882 0.662588 3.011765 1.325176 4.457412 2.017882 1.626353 0.752941 3.192471 1.566118 4.818824 2.349177a277.202824 277.202824 0 0 1 19.124706 10.541176l0.210823 0.180706a263.047529 263.047529 0 0 1 108.845177 132.126118l1.054117 2.861176a280.184471 280.184471 0 0 1 9.637647 33.972706c0.512 2.349176 0.963765 4.698353 1.385412 7.047529 0.391529 2.108235 0.783059 4.186353 1.114353 6.264471 0.451765 2.710588 0.783059 5.391059 1.114353 8.071529l0.722823 5.601883c0.301176 3.102118 0.542118 6.234353 0.783059 9.33647l0.331294 4.547765a263.890824 263.890824 0 0 1-5.270588 68.48753l-0.481882 2.108235c-100.201412-0.602353-181.579294-82.763294-181.579294-183.717647a20.48 20.48 0 0 0-20.389647-20.570353 20.48 20.48 0 0 0-20.419765 20.540235 225.129412 225.129412 0 0 0 141.974588 209.317647c-141.312-2.650353-255.457882-119.055059-255.457882-261.842823 0-24.425412 3.373176-48.64 10.059294-72.101647z m98.394353-106.435765a183.958588 183.958588 0 0 1 48.097882-6.415059 184.32 184.32 0 0 1 112.790588 38.761412c1.957647 1.505882 3.915294 3.011765 5.812706 4.638117 1.204706 0.993882 2.409412 2.108235 3.614118 3.132236 6.806588 6.023529 13.251765 12.589176 19.184941 19.57647 1.084235 1.325176 2.228706 2.590118 3.282824 3.915294 1.445647 1.807059 2.831059 3.704471 4.21647 5.571765a194.078118 194.078118 0 0 1 7.137883 10.390588c0.602353 0.903529 1.144471 1.867294 1.716706 2.800942a297.261176 297.261176 0 0 0-21.89553 11.233882l-2.951529 1.656471a295.634824 295.634824 0 0 0-19.064471 11.986823c-2.168471 1.475765-4.306824 3.011765-6.445176 4.517647-1.204706 0.873412-2.439529 1.656471-3.614118 2.56a300.272941 300.272941 0 0 0-46.893176-28.461176c-1.505882-0.752941-3.041882-1.445647-4.577883-2.168471a311.958588 311.958588 0 0 0-13.010823-5.752471l-2.409412-0.993882a297.050353 297.050353 0 0 0-58.789647-16.926118l-0.993883-0.180705a296.568471 296.568471 0 0 0-28.069647-3.553883l-3.312941-0.301176a187.331765 187.331765 0 0 1 6.174118-56.018824z m303.766588 0a187.331765 187.331765 0 0 1 6.204235 55.988706c-0.602353 0-1.204706 0.120471-1.807058 0.150588-3.764706 0.301176-7.529412 0.662588-11.324236 1.084235-1.536 0.180706-3.072 0.301176-4.608 0.512-4.517647 0.602353-8.975059 1.264941-13.43247 2.048-3.102118 0.542118-6.204235 1.204706-9.276236 1.807059l-4.608 0.993882a284.521412 284.521412 0 0 0-13.251764 3.312942c-2.258824 0.602353-4.547765 1.144471-6.836706 1.807058l-1.505883-2.56a243.862588 243.862588 0 0 0-5.330823-8.673882l-1.686588-2.56a225.972706 225.972706 0 0 0-43.971765-49.091765 185.584941 185.584941 0 0 1 111.435294-4.818823z m108.453647 178.537412a261.601882 261.601882 0 0 1-142.637176 233.712941c0.180706-0.903529 0.301176-1.807059 0.421647-2.680471a307.2 307.2 0 0 0 1.204706-7.469176l0.722823-5.270588 0.873412-7.830589 0.481882-4.939294c0.240941-2.891294 0.421647-5.782588 0.602353-8.673882l0.210824-4.216471a300.935529 300.935529 0 0 0-0.090353-28.310588c-0.090353-1.867294-0.301176-3.734588-0.421647-5.601882-0.210824-3.252706-0.421647-6.475294-0.752941-9.697883-0.150588-1.746824-0.421647-3.463529-0.632471-5.210353-0.391529-3.312941-0.752941-6.656-1.264941-9.968941-0.150588-1.084235-0.391529-2.108235-0.542118-3.19247a302.501647 302.501647 0 0 0-86.437647-167.393883 260.126118 260.126118 0 0 1 105.712941-42.164706l3.132236-0.481882a267.143529 267.143529 0 0 1 23.67247-2.379294l1.656471-0.090353c3.553882-0.180706 7.107765-0.301176 10.691764-0.301177h0.090353l1.626353-0.030117c24.274824 0 48.338824 3.403294 71.619765 10.089412 6.686118 23.491765 10.059294 47.676235 10.059294 72.101647zM512 770.048a299.068235 299.068235 0 0 0 83.847529-12.016941h0.120471l0.060235-0.060235c0.150588 0 0.301176-0.060235 0.421647-0.090353a283.888941 283.888941 0 0 0 9.848471-3.072l0.060235-0.030118 0.060236-0.030118C730.081882 713.697882 813.176471 598.046118 813.176471 466.974118c0-32.316235-5.12-64.240941-15.179295-94.960942a20.48 20.48 0 0 0-12.950588-13.071058 299.068235 299.068235 0 0 0-74.209882-14.516706c0.090353-2.56 0.240941-5.12 0.240941-7.589647 0-24.274824-3.824941-48.278588-11.384471-71.378824a20.510118 20.510118 0 0 0-13.010823-13.040941 224.677647 224.677647 0 0 0-174.772706 14.064941A224.466824 224.466824 0 0 0 337.317647 252.385882a20.48 20.48 0 0 0-13.010823 13.071059 228.592941 228.592941 0 0 0-11.384471 71.348706c0 2.469647 0.180706 5.029647 0.240941 7.589647a299.008 299.008 0 0 0-74.179765 14.516706 20.48 20.48 0 0 0-12.980705 13.071059A304.399059 304.399059 0 0 0 210.823529 466.974118c0 167.092706 135.107765 303.073882 301.176471 303.073882z" fill="#FFFFFF" p-id="30829"></path></svg>