<?xml version="1.0" standalone="no"?><!DOCTYPE svg PUBLIC "-//W3C//DTD SVG 1.1//EN" "http://www.w3.org/Graphics/SVG/1.1/DTD/svg11.dtd"><svg t="1597234858389" class="icon" viewBox="0 0 1024 1024" version="1.1" xmlns="http://www.w3.org/2000/svg" p-id="38443" xmlns:xlink="http://www.w3.org/1999/xlink" width="32" height="32"><defs><style type="text/css"></style></defs><path d="M15.058824 15.058824m240.941176 0l512 0q240.941176 0 240.941176 240.941176l0 512q0 240.941176-240.941176 240.941176l-512 0q-240.941176 0-240.941176-240.941176l0-512q0-240.941176 240.941176-240.941176Z" fill="#5C93A7" p-id="38444"></path><path d="M607.171765 561.874824V206.576941A25.901176 25.901176 0 0 0 581.270588 180.705882h-129.325176a25.901176 25.901176 0 0 0-25.871059 25.901177v355.267765A155.949176 155.949176 0 0 0 361.411765 688.007529 155.407059 155.407059 0 0 0 516.608 843.294118a155.407059 155.407059 0 0 0 155.226353-155.286589 155.949176 155.949176 0 0 0-64.662588-126.132705zM555.429647 232.478118v51.742117h-77.613176V232.508235h77.613176zM516.608 791.491765a103.604706 103.604706 0 0 1-103.454118-103.514353c0-36.864 19.817412-71.228235 51.742118-89.690353a25.901176 25.901176 0 0 0 12.950588-22.40753v-239.917176h77.583059v239.917176c0 9.246118 4.909176 17.769412 12.920471 22.40753a103.936 103.936 0 0 1 51.742117 89.690353 103.604706 103.604706 0 0 1-103.484235 103.514353z" fill="#FFFFFF" p-id="38445"></path></svg>