<?xml version="1.0" standalone="no"?><!DOCTYPE svg PUBLIC "-//W3C//DTD SVG 1.1//EN" "http://www.w3.org/Graphics/SVG/1.1/DTD/svg11.dtd"><svg t="1597234827472" class="icon" viewBox="0 0 1024 1024" version="1.1" xmlns="http://www.w3.org/2000/svg" p-id="37596" xmlns:xlink="http://www.w3.org/1999/xlink" width="32" height="32"><defs><style type="text/css"></style></defs><path d="M15.058824 15.058824m240.941176 0l512 0q240.941176 0 240.941176 240.941176l0 512q0 240.941176-240.941176 240.941176l-512 0q-240.941176 0-240.941176-240.941176l0-512q0-240.941176 240.941176-240.941176Z" fill="#C0A7FF" p-id="37597"></path><path d="M512 569.645176l182.181647 182.211765A299.851294 299.851294 0 0 1 512 813.176471a299.851294 299.851294 0 0 1-182.181647-61.31953L512 569.645176zM272.143059 329.818353l197.270588 197.240471-183.657412 183.717647a299.971765 299.971765 0 0 1-74.812235-190.34353L210.823529 512c0-68.457412 22.859294-131.614118 61.31953-182.181647z m479.713882 0A299.851294 299.851294 0 0 1 813.176471 512a300.032 300.032 0 0 1-74.902589 198.776471l-183.687529-183.717647zM512 210.823529c76.197647 0 145.769412 28.310588 198.776471 74.932706L512 484.472471l-198.776471-198.776471a299.971765 299.971765 0 0 1 190.34353-74.752z" fill="#FFFFFF" p-id="37598"></path></svg>