<?xml version="1.0" standalone="no"?><!DOCTYPE svg PUBLIC "-//W3C//DTD SVG 1.1//EN" "http://www.w3.org/Graphics/SVG/1.1/DTD/svg11.dtd"><svg t="1597234750693" class="icon" viewBox="0 0 1024 1024" version="1.1" xmlns="http://www.w3.org/2000/svg" p-id="35198" xmlns:xlink="http://www.w3.org/1999/xlink" width="32" height="32"><defs><style type="text/css"></style></defs><path d="M15.058824 15.058824m240.941176 0l512 0q240.941176 0 240.941176 240.941176l0 512q0 240.941176-240.941176 240.941176l-512 0q-240.941176 0-240.941176-240.941176l0-512q0-240.941176 240.941176-240.941176Z" fill="#F76666" p-id="35199"></path><path d="M533.112471 785.468235v-46.983529a199.469176 199.469176 0 0 0 56.018823-9.938824 134.324706 134.324706 0 0 0 45.176471-25.298823 116.314353 116.314353 0 0 0 30.418823-41.562353c7.439059-16.655059 11.143529-36.231529 11.14353-58.729412 0-21.684706-4.005647-39.966118-12.047059-54.814118a114.657882 114.657882 0 0 0-31.924706-37.345882 178.115765 178.115765 0 0 0-45.778824-24.69647c-17.257412-6.415059-34.936471-12.047059-53.007058-16.865883v-127.09647c21.684706 0 37.436235 5.421176 47.284705 16.263529 9.848471 10.842353 15.149176 26.503529 15.962353 46.983529h68.668236c0-19.666824-3.523765-36.954353-10.541177-51.802353a103.695059 103.695059 0 0 0-28.310588-36.743529 120.259765 120.259765 0 0 0-41.863529-21.684706c-16.052706-4.818824-33.129412-7.228235-51.2-7.228235V240.941176h-25.901177v46.98353c-18.070588 0-35.328 2.620235-51.802353 7.830588a138.691765 138.691765 0 0 0-43.670588 22.588235c-12.649412 9.848471-22.678588 22.076235-30.117647 36.74353s-11.143529 31.623529-11.14353 50.898823c0 22.076235 4.005647 40.568471 12.047059 55.416471 8.041412 14.848 18.582588 27.196235 31.62353 37.044706 13.040941 9.848471 27.708235 17.859765 43.971764 24.094117 16.263529 6.234353 32.617412 11.535059 49.091765 15.962353v145.769412c-27.708235-0.813176-47.585882-8.824471-59.632941-24.094117-12.047059-15.269647-17.859765-36.141176-17.468235-62.644706h-68.668236c-0.391529 22.497882 2.921412 42.375529 9.938824 59.632941s16.956235 31.834353 29.81647 43.670588c12.860235 11.836235 28.310588 20.992 46.381177 27.407059 18.070588 6.415059 37.948235 9.848471 59.632941 10.24v46.983529h25.901177z m-25.901177-322.861176a223.111529 223.111529 0 0 1-24.997647-7.529412c-8.222118-3.011765-15.450353-6.927059-21.684706-11.745882a60.988235 60.988235 0 0 1-15.36-17.468236 47.887059 47.887059 0 0 1-6.023529-24.69647c0-21.293176 5.933176-36.442353 17.769412-45.477647 11.836235-9.035294 28.611765-13.552941 50.29647-13.552941v120.470588z m25.901177 221.665882v-140.348235c9.246118 2.409412 18.281412 5.210353 27.105882 8.432941 8.824471 3.222588 16.775529 7.439059 23.792941 12.649412 7.017412 5.210353 12.649412 11.655529 16.865882 19.275294 4.216471 7.619765 6.324706 17.076706 6.324706 28.310588 0 24.094118-6.927059 41.652706-20.781176 52.705883-13.854118 11.053176-31.623529 17.377882-53.308235 18.974117z" fill="#FFFFFF" p-id="35200"></path></svg>