<?xml version="1.0" standalone="no"?><!DOCTYPE svg PUBLIC "-//W3C//DTD SVG 1.1//EN" "http://www.w3.org/Graphics/SVG/1.1/DTD/svg11.dtd"><svg t="1597234584605" class="icon" viewBox="0 0 1024 1024" version="1.1" xmlns="http://www.w3.org/2000/svg" p-id="31250" xmlns:xlink="http://www.w3.org/1999/xlink" width="32" height="32"><defs><style type="text/css"></style></defs><path d="M15.058824 15.058824m240.941176 0l512 0q240.941176 0 240.941176 240.941176l0 512q0 240.941176-240.941176 240.941176l-512 0q-240.941176 0-240.941176-240.941176l0-512q0-240.941176 240.941176-240.941176Z" fill="#6A9AFF" p-id="31251"></path><path d="M722.823529 391.529412v361.411764c0 33.249882-27.015529 60.235294-60.235294 60.235295H361.411765c-33.219765 0-60.235294-26.985412-60.235294-60.235295V391.529412h421.647058z m-60.235294 60.235294H361.411765v301.17647h301.236706L662.588235 451.764706z m-180.705882 60.235294v180.705882h-60.235294v-180.705882h60.235294z m120.470588 0v180.705882h-60.235294v-180.705882h60.235294z m0-271.058824v60.235295h180.705883v60.235294H240.941176V301.176471h180.705883V240.941176h180.705882z" fill="#FFFFFF" p-id="31252"></path></svg>