<?xml version="1.0" standalone="no"?><!DOCTYPE svg PUBLIC "-//W3C//DTD SVG 1.1//EN" "http://www.w3.org/Graphics/SVG/1.1/DTD/svg11.dtd"><svg t="1597234593922" class="icon" viewBox="0 0 1024 1024" version="1.1" xmlns="http://www.w3.org/2000/svg" p-id="31532" xmlns:xlink="http://www.w3.org/1999/xlink" width="32" height="32"><defs><style type="text/css"></style></defs><path d="M15.058824 15.058824m240.941176 0l512 0q240.941176 0 240.941176 240.941176l0 512q0 240.941176-240.941176 240.941176l-512 0q-240.941176 0-240.941176-240.941176l0-512q0-240.941176 240.941176-240.941176Z" fill="#6A9AFF" p-id="31533"></path><path d="M290.334118 508.656941H240.941176v-60.928h61.229177a256 256 0 0 1 420.261647-105.682823c-11.896471 12.167529-28.220235 28.882824-42.104471 44.032a195.011765 195.011765 0 0 0-312.95247 61.680941h291.237647v60.897882H351.472941c-1.114353 12.167529-1.114353 24.395294 0 36.562824h307.2v60.928h-291.297882A195.011765 195.011765 0 0 0 680.658824 667.527529c13.974588 15.088941 26.624 27.828706 42.194823 43.91153a256 256 0 0 1-420.653176-105.321412H240.941176v-60.897882h49.392942a259.614118 259.614118 0 0 1 0-36.562824z" fill="#FFFFFF" p-id="31534"></path></svg>