<?xml version="1.0" standalone="no"?><!DOCTYPE svg PUBLIC "-//W3C//DTD SVG 1.1//EN" "http://www.w3.org/Graphics/SVG/1.1/DTD/svg11.dtd"><svg t="1597234658593" class="icon" viewBox="0 0 1024 1024" version="1.1" xmlns="http://www.w3.org/2000/svg" p-id="33224" xmlns:xlink="http://www.w3.org/1999/xlink" width="32" height="32"><defs><style type="text/css"></style></defs><path d="M15.058824 15.058824m240.941176 0l512 0q240.941176 0 240.941176 240.941176l0 512q0 240.941176-240.941176 240.941176l-512 0q-240.941176 0-240.941176-240.941176l0-512q0-240.941176 240.941176-240.941176Z" fill="#6A9AFF" p-id="33225"></path><path d="M515.764706 240.941176a37.647059 37.647059 0 0 1 19.124706 70.083765l49.995294 85.022118 103.062588 0.12047a37.647059 37.647059 0 1 1 10.089412 42.526118l-43.971765 75.173647 51.862588 88.726588a37.647059 37.647059 0 1 1-20.48 28.973177l-100.532705 0.150588-58.88 100.050824a37.647059 37.647059 0 1 1-20.510118 0l-58.910118-100.050824-100.562823-0.150588a37.647059 37.647059 0 1 1-20.419765-28.943059l51.862588-88.756706-43.971764-75.203765a37.647059 37.647059 0 1 1 10.059294-42.465882l103.03247-0.150588 50.025412-85.022118A37.647059 37.647059 0 0 1 515.764706 240.941176z" fill="#FFFFFF" p-id="33226"></path></svg>