<?xml version="1.0" standalone="no"?><!DOCTYPE svg PUBLIC "-//W3C//DTD SVG 1.1//EN" "http://www.w3.org/Graphics/SVG/1.1/DTD/svg11.dtd"><svg t="1597234634802" class="icon" viewBox="0 0 1024 1024" version="1.1" xmlns="http://www.w3.org/2000/svg" p-id="32660" xmlns:xlink="http://www.w3.org/1999/xlink" width="32" height="32"><defs><style type="text/css"></style></defs><path d="M15.058824 15.058824m240.941176 0l512 0q240.941176 0 240.941176 240.941176l0 512q0 240.941176-240.941176 240.941176l-512 0q-240.941176 0-240.941176-240.941176l0-512q0-240.941176 240.941176-240.941176Z" fill="#6A9AFF" p-id="32661"></path><path d="M794.684235 408.425412l-267.745882-133.842824a33.249882 33.249882 0 0 0-29.876706 0L229.345882 408.395294a33.430588 33.430588 0 0 0 0 59.904l14.938353 7.469177v117.790117a33.370353 33.370353 0 0 0 16.745412 62.313412 33.340235 33.340235 0 1 0 16.745412-62.283294v-101.074824l50.176 25.088v104.809412c0 64.662588 82.401882 117.127529 184.048941 117.12753 101.647059 0 184.048941-52.464941 184.048941-117.157648v-104.779294l98.635294-49.302588a33.460706 33.460706 0 0 0 0-59.904z m-148.841411 214.016c0 30.930824-58.428235 66.921412-133.842824 66.921412-75.384471 0-133.842824-35.990588-133.842824-66.921412V542.72l118.904471 59.452235a33.249882 33.249882 0 0 0 29.906824 0l118.874353-59.452235v79.721412zM512 553.532235l-230.309647-115.139764L512 323.222588l230.339765 115.169883L512 553.532235z" fill="#FFFFFF" p-id="32662"></path></svg>