<?xml version="1.0" standalone="no"?><!DOCTYPE svg PUBLIC "-//W3C//DTD SVG 1.1//EN" "http://www.w3.org/Graphics/SVG/1.1/DTD/svg11.dtd"><svg t="1597234608978" class="icon" viewBox="0 0 1024 1024" version="1.1" xmlns="http://www.w3.org/2000/svg" p-id="31955" xmlns:xlink="http://www.w3.org/1999/xlink" width="32" height="32"><defs><style type="text/css"></style></defs><path d="M15.058824 15.058824m240.941176 0l512 0q240.941176 0 240.941176 240.941176l0 512q0 240.941176-240.941176 240.941176l-512 0q-240.941176 0-240.941176-240.941176l0-512q0-240.941176 240.941176-240.941176Z" fill="#6A9AFF" p-id="31956"></path><path d="M478.569412 519.529412l-112.64 112.64-112.609883-112.64 112.64-112.64 112.64 112.64z m153.6 153.6l-112.64 112.609882-112.64-112.64 112.64-112.64 112.64 112.64z m-206.848-153.6l-59.361883-59.392-59.392 59.392 59.361883 59.392 59.392-59.392z m153.6 153.6l-59.392-59.422118-59.392 59.392 59.392 59.392 59.392-59.392z m53.248-307.2l-112.64 112.64-112.64-112.64 112.64-112.609883 112.64 112.64z m153.569882 153.6l-112.64 112.64-112.64-112.64 112.64-112.64 112.64 112.64z m-206.817882-153.6L519.529412 306.597647l-59.392 59.361882 59.392 59.392 59.392-59.392z m153.6 153.6l-59.422118-59.392-59.361882 59.392 59.392 59.392 59.361882-59.392z" fill="#FFFFFF" p-id="31957"></path></svg>