<?xml version="1.0" standalone="no"?><!DOCTYPE svg PUBLIC "-//W3C//DTD SVG 1.1//EN" "http://www.w3.org/Graphics/SVG/1.1/DTD/svg11.dtd"><svg t="1597234649060" class="icon" viewBox="0 0 1024 1024" version="1.1" xmlns="http://www.w3.org/2000/svg" p-id="33083" xmlns:xlink="http://www.w3.org/1999/xlink" width="32" height="32"><defs><style type="text/css"></style></defs><path d="M15.058824 15.058824m240.941176 0l512 0q240.941176 0 240.941176 240.941176l0 512q0 240.941176-240.941176 240.941176l-512 0q-240.941176 0-240.941176-240.941176l0-512q0-240.941176 240.941176-240.941176Z" fill="#6A9AFF" p-id="33084"></path><path d="M510.403765 210.823529a58.127059 58.127059 0 0 0-58.127059 58.127059l0.180706 4.216471c0.602353 8.372706 3.011765 16.384 6.927059 23.612235l1.897411 3.222588-37.586823 63.849412-75.986824 0.090353-0.210823-0.301176A58.127059 58.127059 0 0 0 240.941176 395.745882l0.120471 3.553883A58.127059 58.127059 0 0 0 299.068235 453.872941l3.674353-0.12047 34.032941 58.217411-34.032941 58.24753-3.674353-0.090353a58.127059 58.127059 0 1 0 0 116.254117l3.915294-0.150588a58.127059 58.127059 0 0 0 42.104471-22.497882l2.620235-3.674353 75.986824 0.090353 37.586823 63.819294-1.897411 3.252706a58.127059 58.127059 0 1 0 109.17647 27.828706l-0.180706-4.216471c-0.602353-8.372706-3.011765-16.384-6.927059-23.582117l-1.927529-3.252706 37.586824-63.849412 75.986823-0.090353 0.240941 0.331294a58.127059 58.127059 0 0 0 106.556236-32.135529l-0.120471-3.553883a58.127059 58.127059 0 0 0-58.006588-54.573176l-3.704471 0.090353L684.032 512l34.032941-58.247529 3.704471 0.12047a58.127059 58.127059 0 1 0 0-116.254117l-3.945412 0.150588a58.127059 58.127059 0 0 0-42.104471 22.528l-2.620235 3.644235-75.986823-0.090353-37.586824-63.849412 1.927529-3.222588A58.127059 58.127059 0 0 0 510.403765 210.823529z m0 31.713883a26.413176 26.413176 0 0 1 18.733176 45.025882l-8.613647 8.673882 58.428235 99.267765 114.296471 0.180706 4.035765-9.878588a26.443294 26.443294 0 1 1 17.076706 35.328l-11.896471-3.46353L647.318588 512l55.115294 94.358588 11.896471-3.493647a26.443294 26.443294 0 1 1-17.046588 35.358118l-4.035765-9.878588-114.266353 0.12047-58.428235 99.297883 8.613647 8.673882a26.413176 26.413176 0 1 1-37.466353 0l8.613647-8.673882-58.458353-99.297883-114.296471-0.12047-4.005647 9.878588a26.443294 26.443294 0 1 1-17.076706-35.358118l11.896471 3.493647L373.519059 512l-55.115294-94.358588-11.926589 3.493647a26.443294 26.443294 0 1 1 17.076706-35.328l4.005647 9.878588 114.296471-0.180706 58.428235-99.267765-8.613647-8.673882a26.413176 26.413176 0 0 1 18.733177-45.056z" fill="#FFFFFF" p-id="33085"></path></svg>