<?xml version="1.0" standalone="no"?><!DOCTYPE svg PUBLIC "-//W3C//DTD SVG 1.1//EN" "http://www.w3.org/Graphics/SVG/1.1/DTD/svg11.dtd"><svg t="1597234623927" class="icon" viewBox="0 0 1024 1024" version="1.1" xmlns="http://www.w3.org/2000/svg" p-id="32378" xmlns:xlink="http://www.w3.org/1999/xlink" width="32" height="32"><defs><style type="text/css"></style></defs><path d="M15.058824 15.058824m240.941176 0l512 0q240.941176 0 240.941176 240.941176l0 512q0 240.941176-240.941176 240.941176l-512 0q-240.941176 0-240.941176-240.941176l0-512q0-240.941176 240.941176-240.941176Z" fill="#6A9AFF" p-id="32379"></path><path d="M542.117647 722.823529v90.352942h-60.235294v-90.352942h60.235294z m-200.463059-83.034353l42.586353 42.586353-63.879529 63.909647-42.586353-42.586352 63.849412-63.909648z m340.690824 0l63.939764 63.909648-42.586352 42.586352-63.939765-63.909647 42.586353-42.556235zM512 361.472c83.034353 0 150.588235 67.523765 150.588235 150.588235 0 83.004235-67.553882 150.588235-150.588235 150.588236s-150.588235-67.584-150.588235-150.588236c0-83.064471 67.553882-150.588235 150.588235-150.588235z m0 60.235294c-49.814588 0-90.352941 40.538353-90.352941 90.352941 0 49.784471 40.538353 90.352941 90.352941 90.352941s90.352941-40.568471 90.352941-90.352941c0-49.844706-40.538353-90.352941-90.352941-90.352941zM813.176471 481.882353v60.235294h-90.352942v-60.235294h90.352942zM301.176471 481.882353v60.235294H210.823529v-60.235294h90.352942z m402.522353-204.137412l42.586352 42.586353-63.939764 63.909647-42.586353-42.586353 63.939765-63.909647z m-383.337412 0l63.849412 63.909647-42.556236 42.586353-63.879529-63.909647 42.586353-42.586353zM542.117647 210.823529v90.352942h-60.235294V210.823529h60.235294z" fill="#FFFFFF" p-id="32380"></path></svg>