<?xml version="1.0" standalone="no"?><!DOCTYPE svg PUBLIC "-//W3C//DTD SVG 1.1//EN" "http://www.w3.org/Graphics/SVG/1.1/DTD/svg11.dtd"><svg t="1597234702442" class="icon" viewBox="0 0 1024 1024" version="1.1" xmlns="http://www.w3.org/2000/svg" p-id="34352" xmlns:xlink="http://www.w3.org/1999/xlink" width="32" height="32"><defs><style type="text/css"></style></defs><path d="M15.058824 15.058824m240.941176 0l512 0q240.941176 0 240.941176 240.941176l0 512q0 240.941176-240.941176 240.941176l-512 0q-240.941176 0-240.941176-240.941176l0-512q0-240.941176 240.941176-240.941176Z" fill="#F76666" p-id="34353"></path><path d="M512 210.823529c166.339765 0 301.176471 134.836706 301.176471 301.176471s-134.836706 301.176471-301.176471 301.176471S210.823529 678.339765 210.823529 512 345.660235 210.823529 512 210.823529z m-95.894588 120.470589H331.294118v344.064h57.344v-265.517177h0.963764l95.412706 265.517177h49.633883l95.412705-265.517177h0.963765v265.517177h57.344V331.294118h-83.847529L512 600.666353h-0.963765L416.105412 331.294118z" fill="#FFFFFF" p-id="34354"></path></svg>