<?xml version="1.0" standalone="no"?><!DOCTYPE svg PUBLIC "-//W3C//DTD SVG 1.1//EN" "http://www.w3.org/Graphics/SVG/1.1/DTD/svg11.dtd"><svg t="1597234795430" class="icon" viewBox="0 0 1024 1024" version="1.1" xmlns="http://www.w3.org/2000/svg" p-id="36609" xmlns:xlink="http://www.w3.org/1999/xlink" width="32" height="32"><defs><style type="text/css"></style></defs><path d="M15.058824 15.058824m240.941176 0l512 0q240.941176 0 240.941176 240.941176l0 512q0 240.941176-240.941176 240.941176l-512 0q-240.941176 0-240.941176-240.941176l0-512q0-240.941176 240.941176-240.941176Z" fill="#5C93A7" p-id="36610"></path><path d="M512 210.823529c166.339765 0 301.176471 134.836706 301.176471 301.176471s-134.836706 301.176471-301.176471 301.176471S210.823529 678.339765 210.823529 512 345.660235 210.823529 512 210.823529z m-11.806118 120.470589a177.392941 177.392941 0 0 0-45.778823 6.023529c-15.088941 4.005647-28.611765 10.209882-40.478118 18.552471a96.436706 96.436706 0 0 0-28.672 31.563294c-7.228235 12.679529-10.842353 27.708235-10.842353 45.056 0 9.005176 1.204706 17.829647 3.614118 26.503529 2.409412 8.673882 6.505412 16.865882 12.288 24.576 5.782588 7.710118 13.552941 14.697412 23.371294 20.961883 9.788235 6.264471 22.076235 11.324235 36.864 15.179294 23.792941 6.415059 43.760941 11.655529 59.994353 15.661176 16.233412 4.005647 30.418824 8.282353 42.646588 12.769882 7.077647 2.56 13.552941 6.987294 19.516235 13.251765 5.933176 6.264471 8.914824 15.962353 8.914824 29.153883 0 6.415059-1.295059 12.769882-3.855059 19.034352a42.646588 42.646588 0 0 1-12.528941 16.624942c-5.782588 4.818824-13.342118 8.734118-22.648471 11.806117-9.336471 3.041882-20.570353 4.577882-33.731764 4.577883-12.197647 0-23.521882-1.355294-33.972706-4.096a80.143059 80.143059 0 0 1-27.708235-13.010824 60.928 60.928 0 0 1-18.793412-22.889412 72.282353 72.282353 0 0 1-6.565647-27.316706L421.647059 568.862118h-60.235294c0.301176 21.202824 4.336941 39.604706 12.047059 55.175529 7.710118 15.570824 17.980235 28.340706 30.84047 38.309647 12.860235 9.938824 27.949176 17.347765 45.296941 22.166588 17.347765 4.818824 35.84 7.228235 55.416471 7.228236 17.016471 0 33.731765-2.017882 50.115765-6.02353a135.107765 135.107765 0 0 0 43.851294-19.034353c12.860235-8.673882 23.190588-19.847529 31.081411-33.490823 7.860706-13.643294 11.806118-30.117647 11.806118-49.392941a92.461176 92.461176 0 0 0-4.096-26.985412 86.558118 86.558118 0 0 0-12.528941-25.298824 92.672 92.672 0 0 0-20.961882-20.961882 100.412235 100.412235 0 0 0-29.394824-14.456471 1174.889412 1174.889412 0 0 0-22.407529-6.023529 11190.603294 11190.603294 0 0 1-61.680942-16.384l-15.179294-4.096c-12.197647-3.523765-22.076235-8.734118-29.635764-15.661177-7.529412-6.927059-11.324235-16.474353-11.324236-28.672 0-8.673882 2.017882-15.902118 6.02353-21.684705 4.005647-5.782588 9.065412-10.360471 15.179294-13.733647 6.113882-3.373176 12.860235-5.782588 20.239059-7.228236 7.378824-1.445647 14.607059-2.168471 21.684706-2.16847 20.871529 0 38.068706 4.577882 51.561411 13.733647 12.257882 8.312471 19.606588 22.016 22.076236 41.110588l0.572235 5.872941h60.235294c0-17.980235-3.523765-33.822118-10.601412-47.465412a102.701176 102.701176 0 0 0-28.672-34.454588c-12.047059-9.336471-26.021647-16.293647-41.923764-20.961882A180.013176 180.013176 0 0 0 500.193882 331.294118z" fill="#FFFFFF" p-id="36611"></path></svg>