<?xml version="1.0" standalone="no"?><!DOCTYPE svg PUBLIC "-//W3C//DTD SVG 1.1//EN" "http://www.w3.org/Graphics/SVG/1.1/DTD/svg11.dtd"><svg t="1597234664769" class="icon" viewBox="0 0 1024 1024" version="1.1" xmlns="http://www.w3.org/2000/svg" p-id="33365" xmlns:xlink="http://www.w3.org/1999/xlink" width="32" height="32"><defs><style type="text/css"></style></defs><path d="M15.058824 15.058824m240.941176 0l512 0q240.941176 0 240.941176 240.941176l0 512q0 240.941176-240.941176 240.941176l-512 0q-240.941176 0-240.941176-240.941176l0-512q0-240.941176 240.941176-240.941176Z" fill="#6A9AFF" p-id="33366"></path><path d="M512 180.705882c39.303529 0 72.884706 25.238588 85.232941 60.385883C648.372706 238.019765 692.705882 279.762824 692.705882 331.294118c0 30.177882-23.883294 53.097412-47.043764 68.21647 9.246118 13.884235 16.926118 31.653647 16.926117 52.254118 0 49.844706-40.538353 90.352941-90.352941 90.352941-10.601412 0-20.660706-2.017882-30.117647-5.391059V572.235294h150.588235a30.117647 30.117647 0 0 1 28.55153 39.634824l-60.235294 180.705882A30.087529 30.087529 0 0 1 632.470588 813.176471h-240.941176a30.117647 30.117647 0 0 1-28.581647-20.600471l-60.235294-180.705882A30.087529 30.087529 0 0 1 331.294118 572.235294h150.588235v-35.508706A89.389176 89.389176 0 0 1 451.764706 542.117647c-49.844706 0-90.352941-40.508235-90.352941-90.352941 0-20.630588 7.68-38.369882 16.926117-52.284235C355.177412 384.331294 331.294118 361.411765 331.294118 331.294118c0-51.531294 44.393412-93.214118 95.472941-90.202353A90.533647 90.533647 0 0 1 512 180.705882z m138.902588 451.764706h-277.835294l40.146824 120.470588h197.571764l40.116706-120.470588z m-83.034353-248.621176l-1.234823 2.921412A60.295529 60.295529 0 0 1 512 421.647059c-25.088 0-46.682353-15.420235-55.717647-37.285647l0.602353 2.981647a30.117647 30.117647 0 0 1-12.107294 27.979294c-5.903059 4.427294-23.130353 20.871529-23.130353 36.442353a30.147765 30.147765 0 0 0 60.235294 0 30.117647 30.117647 0 1 1 60.235294 0 30.147765 30.147765 0 0 0 60.235294 0c0-15.570824-17.257412-32.015059-23.280941-36.562824a30.298353 30.298353 0 0 1-11.203765-31.35247zM512 240.941176c-16.624941 0-30.117647 13.522824-30.117647 30.117648 0 1.264941 0.301176 2.439529 0.421647 3.644235a30.72 30.72 0 0 1-13.071059 29.846588 30.027294 30.027294 0 0 1-32.165647 1.114353C416.707765 293.406118 391.529412 309.398588 391.529412 331.294118c2.198588 6.866824 25.449412 23.070118 46.832941 31.834353 7.017412 2.861176 12.559059 8.192 15.751529 14.817882A60.295529 60.295529 0 0 1 512 301.176471a60.295529 60.295529 0 0 1 57.765647 77.342117 29.635765 29.635765 0 0 1 15.902118-15.420235c21.383529-8.734118 44.604235-24.937412 46.893176-32.677647-0.120471-20.720941-25.118118-37.104941-45.68847-24.726588a30.057412 30.057412 0 0 1-45.327059-30.08753c0.301176-2.108235 0.542118-3.282824 0.602353-4.547764 0-16.594824-13.552941-30.117647-30.117647-30.117648z" fill="#FFFFFF" p-id="33367"></path></svg>