<?xml version="1.0" standalone="no"?><!DOCTYPE svg PUBLIC "-//W3C//DTD SVG 1.1//EN" "http://www.w3.org/Graphics/SVG/1.1/DTD/svg11.dtd"><svg t="1597234712281" class="icon" viewBox="0 0 1024 1024" version="1.1" xmlns="http://www.w3.org/2000/svg" p-id="34634" xmlns:xlink="http://www.w3.org/1999/xlink" width="32" height="32"><defs><style type="text/css"></style></defs><path d="M15.058824 15.058824m240.941176 0l512 0q240.941176 0 240.941176 240.941176l0 512q0 240.941176-240.941176 240.941176l-512 0q-240.941176 0-240.941176-240.941176l0-512q0-240.941176 240.941176-240.941176Z" fill="#FABACE" p-id="34635"></path><path d="M526.275765 481.039059c-2.710588-25.750588-2.108235-51.501176 2.469647-76.559059l74.059294 74.089412c-24.997647 4.517647-50.778353 5.180235-76.498824 2.469647zM303.585882 569.795765c14.697412-9.788235 30.117647-18.070588 46.290824-24.696471l112.338823 112.338824a267.203765 267.203765 0 0 1-24.69647 46.290823L303.585882 569.795765z m177.453177-43.489883c2.710588 25.720471 2.108235 51.501176-2.43953 76.498824l-74.119529-74.089412a268.408471 268.408471 0 0 1 76.559059-2.409412z m222.659765-88.786823c-14.667294 9.728-30.117647 18.040471-46.260706 24.69647l-112.338824-112.368941a268.468706 268.468706 0 0 1 24.696471-46.230588l133.903059 133.903059z m57.283764-49.212235l-15.932235 15.902117c-0.602353 0.602353-1.295059 1.114353-1.927529 1.716706l-141.733648-141.733647c0.602353-0.632471 1.084235-1.355294 1.716706-1.957647l15.872-15.932235L583.499294 210.823529l-15.902118 15.902118a319.397647 319.397647 0 0 0-92.431058 248.470588 319.367529 319.367529 0 0 0-248.440471 92.431059L210.823529 583.529412l35.478589 35.478588 15.932235-15.932235c0.602353-0.602353 1.325176-1.114353 1.957647-1.686589l141.733647 141.733648c-0.602353 0.632471-1.084235 1.325176-1.716706 1.957647l-15.902117 15.902117 35.508705 35.478588 15.872-15.872a319.397647 319.397647 0 0 0 92.461177-248.470588 318.976 318.976 0 0 0 248.410353-92.431059l15.932235-15.872-35.508706-35.508705z" fill="#FFFFFF" p-id="34636"></path></svg>