<?xml version="1.0" standalone="no"?><!DOCTYPE svg PUBLIC "-//W3C//DTD SVG 1.1//EN" "http://www.w3.org/Graphics/SVG/1.1/DTD/svg11.dtd"><svg t="1597234730787" class="icon" viewBox="0 0 1024 1024" version="1.1" xmlns="http://www.w3.org/2000/svg" p-id="35057" xmlns:xlink="http://www.w3.org/1999/xlink" width="32" height="32"><defs><style type="text/css"></style></defs><path d="M15.058824 15.058824m240.941176 0l512 0q240.941176 0 240.941176 240.941176l0 512q0 240.941176-240.941176 240.941176l-512 0q-240.941176 0-240.941176-240.941176l0-512q0-240.941176 240.941176-240.941176Z" fill="#FABCA6" p-id="35058"></path><path d="M647.529412 632.470588c-24.907294 0-45.176471-20.269176-45.176471-45.17647s20.269176-45.176471 45.176471-45.176471 45.176471 20.269176 45.17647 45.176471-20.269176 45.176471-45.17647 45.17647m-301.176471 90.352941c-24.907294 0-45.176471-20.269176-45.17647-45.17647s20.269176-45.176471 45.17647-45.176471 45.176471 20.269176 45.176471 45.176471-20.269176 45.176471-45.176471 45.17647M739.689412 246.121412a30.117647 30.117647 0 0 0-28.069647-3.011765l-301.176471 120.470588A30.208 30.208 0 0 0 391.529412 391.529412v191.307294A103.936 103.936 0 0 0 346.352941 572.235294C288.225882 572.235294 240.941176 619.52 240.941176 677.647059S288.225882 783.058824 346.352941 783.058824s105.411765-47.284706 105.411765-105.411765v-265.697883l240.941176-96.37647v176.911059A104.026353 104.026353 0 0 0 647.529412 481.882353c-58.127059 0-105.411765 47.284706-105.411765 105.411765s47.284706 105.411765 105.411765 105.411764 105.411765-47.284706 105.411764-105.411764V271.058824a30.117647 30.117647 0 0 0-13.251764-24.937412" fill="#FFFFFF" p-id="35059"></path></svg>