<?xml version="1.0" standalone="no"?><!DOCTYPE svg PUBLIC "-//W3C//DTD SVG 1.1//EN" "http://www.w3.org/Graphics/SVG/1.1/DTD/svg11.dtd"><svg t="1597234618268" class="icon" viewBox="0 0 1024 1024" version="1.1" xmlns="http://www.w3.org/2000/svg" p-id="32237" xmlns:xlink="http://www.w3.org/1999/xlink" width="32" height="32"><defs><style type="text/css"></style></defs><path d="M15.058824 15.058824m240.941176 0l512 0q240.941176 0 240.941176 240.941176l0 512q0 240.941176-240.941176 240.941176l-512 0q-240.941176 0-240.941176-240.941176l0-512q0-240.941176 240.941176-240.941176Z" fill="#6A9AFF" p-id="32238"></path><path d="M442.157176 330.209882a59.723294 59.723294 0 1 0-5.571764-119.326117 59.723294 59.723294 0 0 0 5.571764 119.326117zM747.309176 661.985882l-90.925176-133.571764a30.418824 30.418824 0 0 0-4.909176-5.51153 37.707294 37.707294 0 0 0-26.684236-11.203764H502.964706l-1.776941-36.833883h109.507764a23.552 23.552 0 0 0 0-47.134117h-111.73647l-1.686588-35.599059a53.037176 53.037176 0 0 0-105.984 5.029647l6.686117 139.294117c1.505882 29.214118 26.232471 51.712 55.416471 50.447059 0.361412 0 0.602353-0.120471 0.873412-0.12047 1.084235 0.060235 2.168471 0.301176 3.252705 0.301176h162.575059l75.14353 110.381177a31.503059 31.503059 0 1 0 52.043294-35.478589h0.030117z m-132.487529-40.538353a1.807059 1.807059 0 0 0-3.312941 0.783059 146.191059 146.191059 0 1 1-244.766118-126.976 4.156235 4.156235 0 0 0 1.325177-3.132235l-2.469647-52.555294a2.981647 2.981647 0 0 0-4.517647-2.349177 195.614118 195.614118 0 1 0 287.021176 237.808942 5.933176 5.933176 0 0 0-0.602353-5.421177l-32.647529-48.128z" fill="#FFFFFF" p-id="32239"></path></svg>