<?xml version="1.0" standalone="no"?><!DOCTYPE svg PUBLIC "-//W3C//DTD SVG 1.1//EN" "http://www.w3.org/Graphics/SVG/1.1/DTD/svg11.dtd"><svg t="1597234525087" class="icon" viewBox="0 0 1024 1024" version="1.1" xmlns="http://www.w3.org/2000/svg" p-id="29840" xmlns:xlink="http://www.w3.org/1999/xlink" width="32" height="32"><defs><style type="text/css"></style></defs><path d="M15.058824 15.058824m240.941176 0l512 0q240.941176 0 240.941176 240.941176l0 512q0 240.941176-240.941176 240.941176l-512 0q-240.941176 0-240.941176-240.941176l0-512q0-240.941176 240.941176-240.941176Z" fill="#CF0A80" p-id="29841"></path><path d="M487.002353 318.945882c21.534118-80.384 112.248471-125.831529 202.631529-101.616941 51.260235 13.733647 91.437176 47.796706 112.64 88.636235-37.074824 9.065412-68.306824 36.743529-78.908235 76.318118a122.096941 122.096941 0 0 1-66.288941 79.149177 240.941176 240.941176 0 1 1-174.170353-112.850824c0.090353-9.788235 1.445647-19.727059 4.096-29.635765zM451.764706 391.770353a195.764706 195.764706 0 1 0 158.659765 81.046588 120.530824 120.530824 0 0 1-36.894118-4.035765 122.398118 122.398118 0 0 1-47.314824-24.847058c-4.216471 8.131765-8.011294 16.474353-11.324235 25.20847a14.125176 14.125176 0 0 1-26.383059-9.968941c4.848941-12.950588 10.721882-25.298824 17.408-37.135059a122.970353 122.970353 0 0 1-14.366117-26.172235A191.337412 191.337412 0 0 0 451.764706 391.770353z m230.550588-147.154824c-75.203765-20.178824-150.588235 16.444235-168.05647 81.618824a93.846588 93.846588 0 0 0 8.583529 69.722353 264.222118 264.222118 0 0 1 120.169412-90.955294 13.824 13.824 0 0 1 10.812235 0.361412c3.312941 1.475765 6.023529 4.246588 7.378824 7.920941a14.004706 14.004706 0 0 1-8.282353 18.160941 235.911529 235.911529 0 0 0-111.977412 87.883294c10.932706 10.24 24.425412 18.070588 39.905882 22.196706a94.268235 94.268235 0 0 0 115.260235-66.56 134.776471 134.776471 0 0 1 63.548236-82.070588 153.690353 153.690353 0 0 0-77.342118-48.278589z" fill="#FFFFFF" p-id="29842"></path></svg>