<?xml version="1.0" standalone="no"?><!DOCTYPE svg PUBLIC "-//W3C//DTD SVG 1.1//EN" "http://www.w3.org/Graphics/SVG/1.1/DTD/svg11.dtd"><svg t="1597234521054" class="icon" viewBox="0 0 1024 1024" version="1.1" xmlns="http://www.w3.org/2000/svg" p-id="29699" xmlns:xlink="http://www.w3.org/1999/xlink" width="32" height="32"><defs><style type="text/css"></style></defs><path d="M15.058824 15.058824m240.941176 0l512 0q240.941176 0 240.941176 240.941176l0 512q0 240.941176-240.941176 240.941176l-512 0q-240.941176 0-240.941176-240.941176l0-512q0-240.941176 240.941176-240.941176Z" fill="#A38783" p-id="29700"></path><path d="M217.178353 530.823529c50.055529-207.149176 233.532235-329.456941 358.761412-278.256941 126.795294 51.862588 264.553412 308.555294 196.517647 447.397647-39.363765 80.384-183.597176 109.146353-327.68 79.811765-155.648-31.683765-255.909647-119.868235-229.827765-239.194353z m305.332706-88.425411c-50.778353 95.382588-130.861176 164.291765-239.314824 206.336 32.286118 40.207059 92.099765 70.806588 170.616471 86.768941 126.162824 25.690353 250.488471 0.903529 278.076235-55.416471 55.175529-112.64-68.367059-342.889412-173.056-385.686588l3.764706 1.626353c-3.975529 54.753882-17.317647 103.604706-40.056471 146.371765z m-4.577883-156.340706c-97.129412-2.710588-223.141647 100.683294-258.861176 264.161882a112.158118 112.158118 0 0 0 2.228706 58.518588c101.496471-38.038588 174.983529-100.472471 221.364706-187.572706 19.516235-36.713412 31.171765-79.088941 34.816-127.307294z" fill="#FFFFFF" p-id="29701"></path></svg>