<?xml version="1.0" standalone="no"?><!DOCTYPE svg PUBLIC "-//W3C//DTD SVG 1.1//EN" "http://www.w3.org/Graphics/SVG/1.1/DTD/svg11.dtd"><svg t="1597234535122" class="icon" viewBox="0 0 1024 1024" version="1.1" xmlns="http://www.w3.org/2000/svg" p-id="30122" xmlns:xlink="http://www.w3.org/1999/xlink" width="32" height="32"><defs><style type="text/css"></style></defs><path d="M15.058824 15.058824m240.941176 0l512 0q240.941176 0 240.941176 240.941176l0 512q0 240.941176-240.941176 240.941176l-512 0q-240.941176 0-240.941176-240.941176l0-512q0-240.941176 240.941176-240.941176Z" fill="#ACD94E" p-id="30123"></path><path d="M754.537412 538.112a17.709176 17.709176 0 0 0-4.818824 6.625882 181.880471 181.880471 0 0 1-39.845647 59.181177 184.048941 184.048941 0 0 1-130.017882 53.488941 184.410353 184.410353 0 0 1-53.940706-7.981176l1.355294-1.114353a226.484706 226.484706 0 0 0 8.161882-6.625883 208.384 208.384 0 0 0 12.107295-11.053176l0.150588-0.120471a17.408 17.408 0 0 0 2.921412-3.975529 17.618824 17.618824 0 0 0 2.319058-8.613647c0-0.692706-0.120471-1.355294-0.180706-1.987765-0.060235-0.512-0.060235-1.024-0.150588-1.505882l-0.090353-0.271059a17.709176 17.709176 0 0 0-4.818823-8.854588l-146.582588-145.528471 4.397176-4.005647a17.528471 17.528471 0 0 0 4.427294-6.264471 182.000941 182.000941 0 0 1 39.905882-59.241411 182.904471 182.904471 0 0 1 59.632942-39.604706 184.380235 184.380235 0 0 1 70.384941-13.854118 184.32 184.32 0 0 1 129.987765 53.458824 181.850353 181.850353 0 0 1 39.905882 59.241411c0.993882 2.349176 2.499765 4.517647 4.427294 6.264471l44.815059 40.96-44.453647 41.381647z m-534.437647-23.190588H265.938824a17.859765 17.859765 0 0 0 17.92-17.829647 17.859765 17.859765 0 0 0-17.92-17.79953H216.545882a175.585882 175.585882 0 0 1 40.387765-112.218353l105.532235 104.809412 146.462118 145.347765 0.060235 0.060235c-2.258824 1.807059-4.577882 3.614118-6.927059 5.330824-0.301176 0.301176-0.692706 0.512-1.024 0.752941a264.463059 264.463059 0 0 1-6.144 4.21647 179.290353 179.290353 0 0 1-7.68 4.818824l-0.843294 0.542118a216.666353 216.666353 0 0 1-7.499294 4.156235l-0.030117 0.030118a179.2 179.2 0 0 1-82.853647 20.269176v-48.971294a17.859765 17.859765 0 0 0-17.950118-17.829647 17.859765 17.859765 0 0 0-17.950118 17.829647v45.477647a178.176 178.176 0 0 1-77.763764-36.623059l41.110588-40.779294a17.769412 17.769412 0 0 0 0.030117-25.208471 18.070588 18.070588 0 0 0-25.359058 0L256.963765 592.112941a175.676235 175.676235 0 0 1-36.864-77.191529z m561.212235-82.793412a219.346824 219.346824 0 0 0-117.368471-114.386824A219.798588 219.798588 0 0 0 579.855059 301.176471a219.798588 219.798588 0 0 0-201.487059 130.951529l-2.650353 2.469647-106.676706-105.953882a18.040471 18.040471 0 0 0-25.359059 0A211.335529 211.335529 0 0 0 180.705882 479.593412c0 57.012706 22.347294 110.622118 62.945883 150.889412a214.016 214.016 0 0 0 130.650353 61.530352c1.204706 0.271059 2.469647 0.391529 3.764706 0.39153l0.752941-0.090353a215.341176 215.341176 0 0 0 108.513882-19.576471 219.557647 219.557647 0 0 0 92.521412 20.269177 219.497412 219.497412 0 0 0 155.376941-63.849412 217.630118 217.630118 0 0 0 46.08-67.162353l56.32-52.464941a17.709176 17.709176 0 0 0-0.150588-26.112l-56.169412-51.290353z" fill="#FFFFFF" p-id="30124"></path></svg>