<?xml version="1.0" standalone="no"?><!DOCTYPE svg PUBLIC "-//W3C//DTD SVG 1.1//EN" "http://www.w3.org/Graphics/SVG/1.1/DTD/svg11.dtd"><svg t="1597234468469" class="icon" viewBox="0 0 1024 1024" version="1.1" xmlns="http://www.w3.org/2000/svg" p-id="29089" width="32" height="32" xmlns:xlink="http://www.w3.org/1999/xlink"><defs><style type="text/css"></style></defs><path d="M15.058824 15.058824m240.941176 0l512 0q240.941176 0 240.941176 240.941176l0 512q0 240.941176-240.941176 240.941176l-512 0q-240.941176 0-240.941176-240.941176l0-512q0-240.941176 240.941176-240.941176Z" fill="#FF8A32" p-id="29090"></path><path d="M542.117647 240.941176v59.994353C564.495059 282.172235 597.202824 271.058824 632.470588 271.058824c64.572235 0 120.470588 37.255529 120.470588 90.352941 0 24.214588-11.625412 45.146353-30.418823 60.747294A195.764706 195.764706 0 0 1 617.411765 783.058824h-210.82353a195.764706 195.764706 0 0 1-105.110588-360.929883C282.684235 406.558118 271.058824 385.626353 271.058824 361.411765c0-53.097412 55.898353-90.352941 120.470588-90.352941 35.297882 0 68.005647 11.143529 90.383059 29.906823L481.882353 240.941176h60.235294z m75.294118 210.82353h-210.82353a135.529412 135.529412 0 0 0-6.384941 270.908235L406.588235 722.823529h210.82353a135.529412 135.529412 0 0 0 6.384941-270.908235L617.411765 451.764706zM391.529412 331.294118c-35.237647 0-60.235294 16.655059-60.235294 30.117647 0 13.462588 24.997647 30.117647 60.235294 30.117647s60.235294-16.655059 60.235294-30.117647c0-13.462588-24.997647-30.117647-60.235294-30.117647z m240.941176 0c-35.237647 0-60.235294 16.655059-60.235294 30.117647 0 13.462588 24.997647 30.117647 60.235294 30.117647s60.235294-16.655059 60.235294-30.117647c0-13.462588-24.997647-30.117647-60.235294-30.117647z" fill="#FFFFFF" p-id="29091"></path></svg>