<?xml version="1.0" standalone="no"?><!DOCTYPE svg PUBLIC "-//W3C//DTD SVG 1.1//EN" "http://www.w3.org/Graphics/SVG/1.1/DTD/svg11.dtd"><svg t="1597234516862" class="icon" viewBox="0 0 1024 1024" version="1.1" xmlns="http://www.w3.org/2000/svg" p-id="29558" xmlns:xlink="http://www.w3.org/1999/xlink" width="32" height="32"><defs><style type="text/css"></style></defs><path d="M15.058824 15.058824m240.941176 0l512 0q240.941176 0 240.941176 240.941176l0 512q0 240.941176-240.941176 240.941176l-512 0q-240.941176 0-240.941176-240.941176l0-512q0-240.941176 240.941176-240.941176Z" fill="#FFB634" p-id="29559"></path><path d="M724.178824 406.949647c48.489412 0 88.997647 34.755765 88.997647 79.36 0 44.634353-40.508235 79.390118-88.997647 79.390118-29.936941 0-68.246588-7.740235-100.201412-20.660706 1.596235 7.499294 2.409412 15.299765 2.409412 23.280941 0 81.679059-53.669647 216.274824-114.386824 216.274824s-114.386824-134.625882-114.386824-216.244706c0-8.011294 0.813176-15.811765 2.379295-23.341177-31.924706 12.950588-70.234353 20.690824-100.171295 20.690824-48.489412 0-88.997647-34.755765-88.997647-79.390118 0-44.604235 40.508235-79.36 88.997647-79.36 54.121412 0 135.529412 25.238588 157.515295 60.897882A113.362824 113.362824 0 0 1 512 453.933176c19.817412 0 38.460235 5.029647 54.723765 13.914353 21.925647-35.659294 103.303529-60.897882 157.455059-60.897882z m-264.222118 256.180706l2.048 5.541647c15.299765 40.357647 35.358118 73.908706 49.995294 73.908706s34.695529-33.581176 49.995294-73.908706l1.867294-5.12a163.358118 163.358118 0 0 1-103.905882-0.421647z m-20.269177-90.172235l0.060236 0.662588c0.421647 11.143529 2.228706 23.823059 5.059764 37.104941l-6.113882-3.433412c48.308706 28.732235 94.087529 29.936941 140.288 3.734589 2.770824-12.468706 4.577882-24.395294 5.180235-34.996706l0.060236-2.710589-8.884706 3.192471c-44.634353 14.817882-90.081882 13.613176-135.649883-3.553882zM512 495.947294c-26.593882 0-49.844706 14.336-62.433882 35.71953 42.556235 17.377882 83.847529 17.438118 124.988235 0.301176A72.282353 72.282353 0 0 0 512 495.947294z m212.178824-46.983529c-40.297412 0-121.133176 27.708235-121.133177 37.345882 0 9.697882 80.835765 37.345882 121.133177 37.345882 26.593882 0 46.983529-17.468235 46.983529-37.345882s-20.389647-37.345882-46.983529-37.345882z m-424.357648 0c-26.593882 0-46.983529 17.468235-46.983529 37.345882s20.389647 37.345882 46.983529 37.345882c40.297412 0 121.133176-27.648 121.133177-37.345882 0-9.637647-80.835765-37.345882-121.133177-37.345882zM614.460235 210.823529a21.022118 21.022118 0 1 1 0 42.014118c-28.702118 0-45.628235 8.824471-54.091294 28.220235a91.045647 91.045647 0 1 1-101.044706 2.861177c-2.921412-21.383529-19.576471-31.081412-57.615059-31.081412a21.022118 21.022118 0 1 1 0-42.014118c53.187765 0 87.702588 19.606588 97.340236 57.22353a90.322824 90.322824 0 0 1 21.473882-0.512C535.100235 230.4 567.717647 210.823529 614.460235 210.823529zM512 309.187765a49.031529 49.031529 0 1 0 0 98.032941 49.031529 49.031529 0 0 0 0-98.032941z" fill="#FFFFFF" p-id="29560"></path></svg>