<?xml version="1.0" standalone="no"?><!DOCTYPE svg PUBLIC "-//W3C//DTD SVG 1.1//EN" "http://www.w3.org/Graphics/SVG/1.1/DTD/svg11.dtd"><svg t="1597234836124" class="icon" viewBox="0 0 1024 1024" version="1.1" xmlns="http://www.w3.org/2000/svg" p-id="37878" xmlns:xlink="http://www.w3.org/1999/xlink" width="32" height="32"><defs><style type="text/css"></style></defs><path d="M15.058824 15.058824m240.941176 0l512 0q240.941176 0 240.941176 240.941176l0 512q0 240.941176-240.941176 240.941176l-512 0q-240.941176 0-240.941176-240.941176l0-512q0-240.941176 240.941176-240.941176Z" fill="#5C93A7" p-id="37879"></path><path d="M512 210.823529c166.339765 0 301.176471 134.836706 301.176471 301.176471s-134.836706 301.176471-301.176471 301.176471S210.823529 678.339765 210.823529 512 345.660235 210.823529 512 210.823529z m120.470588 90.352942h-240.941176v361.411764h-60.235294v60.235294h361.411764v-60.235294h-60.235294V301.176471z" fill="#FFFFFF" p-id="37880"></path></svg>