<?xml version="1.0" standalone="no"?><!DOCTYPE svg PUBLIC "-//W3C//DTD SVG 1.1//EN" "http://www.w3.org/Graphics/SVG/1.1/DTD/svg11.dtd"><svg t="1597234580208" class="icon" viewBox="0 0 1024 1024" version="1.1" xmlns="http://www.w3.org/2000/svg" p-id="31109" xmlns:xlink="http://www.w3.org/1999/xlink" width="32" height="32"><defs><style type="text/css"></style></defs><path d="M15.058824 15.058824m240.941176 0l512 0q240.941176 0 240.941176 240.941176l0 512q0 240.941176-240.941176 240.941176l-512 0q-240.941176 0-240.941176-240.941176l0-512q0-240.941176 240.941176-240.941176Z" fill="#6A9AFF" p-id="31110"></path><path d="M511.969882 210.823529l1.716706 3.132236c8.764235 14.215529 55.808 72.131765 239.254588 72.131764v308.495059C752.941176 716.468706 511.969882 813.176471 511.969882 813.176471l-15.932235-6.866824c-53.729882-24.094118-224.978824-108.965647-224.978823-211.727059V286.087529C479.442824 286.087529 511.969882 210.823529 511.969882 210.823529z m-0.150588 82.582589l-5.842823 3.614117-7.288471 4.216471c-40.448 22.287059-94.208 37.044706-162.966588 42.61647l-4.427294 0.301177v250.428235c0 25.509647 30.840471 62.343529 85.895529 99.71953l7.318588 4.879058c24.003765 15.721412 50.055529 30.117647 76.137412 42.797177l11.324235 5.391059 11.324236-5.421177c26.112-12.649412 52.163765-27.045647 76.197647-42.767059 57.133176-37.406118 90.352941-74.752 93.063529-101.195294l0.150588-3.403294v-250.428235l-4.608-0.301177c-64.903529-5.240471-116.374588-18.672941-155.888941-38.791529L524.920471 301.176471l-7.288471-4.216471-5.812706-3.584zM512 361.411765l44.272941 89.660235 98.936471 14.396235-71.589647 69.812706 16.865882 98.544941L512 587.294118l-88.515765 46.531764 16.896-98.544941-71.589647-69.812706 98.966588-14.396235L512 361.411765z" fill="#FFFFFF" p-id="31111"></path></svg>