<?xml version="1.0" standalone="no"?><!DOCTYPE svg PUBLIC "-//W3C//DTD SVG 1.1//EN" "http://www.w3.org/Graphics/SVG/1.1/DTD/svg11.dtd"><svg t="1597234477621" class="icon" viewBox="0 0 1024 1024" version="1.1" xmlns="http://www.w3.org/2000/svg" p-id="29276" xmlns:xlink="http://www.w3.org/1999/xlink" width="32" height="32"><defs><style type="text/css"></style></defs><path d="M15.058824 15.058824m240.941176 0l512 0q240.941176 0 240.941176 240.941176l0 512q0 240.941176-240.941176 240.941176l-512 0q-240.941176 0-240.941176-240.941176l0-512q0-240.941176 240.941176-240.941176Z" fill="#EE9221" p-id="29277"></path><path d="M500.766118 240.941176c18.070588 0.301176 34.454588 7.710118 46.561882 19.516236 24.997647-9.697882 54.121412-8.222118 80.564706 12.950588 16.504471 13.251765 28.551529 31.984941 31.412706 52.946824a82.672941 82.672941 0 0 1-30.298353 75.806117 157.033412 157.033412 0 0 1 40.297412 104.83953v242.597647A33.430588 33.430588 0 0 1 635.843765 783.058824H364.724706A33.430588 33.430588 0 0 1 331.294118 749.628235v-242.627764a157.876706 157.876706 0 0 1 99.749647-146.552471V312.410353c0-38.369882 31.352471-72.131765 69.722353-71.469177z m10.721882 153.389177h-22.528a112.700235 112.700235 0 0 0-112.64 112.670118v197.481411c0 18.492235 14.938353 33.430588 33.430588 33.430589h180.946824a33.430588 33.430588 0 0 0 33.460706-33.370353v-197.541647a112.700235 112.700235 0 0 0-112.64-112.64z m17.889882 197.541647a51.2 51.2 0 0 1 51.139765 51.139765 51.2 51.2 0 0 1-51.139765 51.139764h-58.217411a51.2 51.2 0 0 1-51.169883-51.139764 51.2 51.2 0 0 1 51.169883-51.139765h58.217411z m-0.060235 33.761882h-58.217412a17.377882 17.377882 0 0 0 0 34.755765h58.217412a17.377882 17.377882 0 0 0 0-34.755765z m47.887059-325.842823a39.152941 39.152941 0 0 0-9.697882 1.325176c0.301176 2.710588 0.542118 5.511529 0.542117 8.372706v50.447059c8.643765 3.312941 16.865882 7.408941 24.696471 12.107294a37.827765 37.827765 0 0 0-15.570824-72.252235z m-76.980706-13.763765l-3.192471 0.120471c-12.167529 1.234824-20.961882 12.468706-20.961882 24.69647V349.364706h46.863059V309.488941a23.461647 23.461647 0 0 0-25.901177-23.341176z" fill="#FFFFFF" p-id="29278"></path></svg>