<?xml version="1.0" standalone="no"?><!DOCTYPE svg PUBLIC "-//W3C//DTD SVG 1.1//EN" "http://www.w3.org/Graphics/SVG/1.1/DTD/svg11.dtd"><svg t="1597234800496" class="icon" viewBox="0 0 1024 1024" version="1.1" xmlns="http://www.w3.org/2000/svg" p-id="36750" xmlns:xlink="http://www.w3.org/1999/xlink" width="32" height="32"><defs><style type="text/css"></style></defs><path d="M15.058824 15.058824m240.941176 0l512 0q240.941176 0 240.941176 240.941176l0 512q0 240.941176-240.941176 240.941176l-512 0q-240.941176 0-240.941176-240.941176l0-512q0-240.941176 240.941176-240.941176Z" fill="#5C93A7" p-id="36751"></path><path d="M423.574588 657.076706c22.889412 30.840471 53.398588 53.940706 88.997647 53.940706 35.568941 0 66.108235-23.100235 88.997647-53.940706 22.859294 30.840471 53.368471 53.940706 88.937412 53.940706l60.656941-198.354824-60.626823-27.708235V277.624471h-111.856941L563.410824 240.941176h-99.147295l-17.769411 36.653177H334.607059v207.390118l-61.409883 23.702588 61.44 202.36047c35.568941 0 68.638118-23.130353 88.937412-53.970823z m221.184-325.51153v135.439059L512.602353 415.623529l-132.216471 51.380706v-135.439059h264.432942z m-40.658823 379.482353c-58.458353 46.260706-122.036706 43.670588-180.525177-2.56 0 0-96.587294 74.511059-152.515764 74.511059h25.419294c33.069176 0 91.557647-15.420235 122.036706-33.40047 61.018353 35.960471 132.186353 35.960471 193.204705 0 30.509176 17.950118 88.967529 33.400471 122.006589 33.40047h25.419294c-55.928471 2.56-155.045647-71.920941-155.045647-71.920941" fill="#FFFFFF" p-id="36752"></path></svg>