<?xml version="1.0" standalone="no"?><!DOCTYPE svg PUBLIC "-//W3C//DTD SVG 1.1//EN" "http://www.w3.org/Graphics/SVG/1.1/DTD/svg11.dtd"><svg t="1597234512241" class="icon" viewBox="0 0 1024 1024" version="1.1" xmlns="http://www.w3.org/2000/svg" p-id="29417" xmlns:xlink="http://www.w3.org/1999/xlink" width="32" height="32"><defs><style type="text/css"></style></defs><path d="M15.058824 15.058824m240.941176 0l512 0q240.941176 0 240.941176 240.941176l0 512q0 240.941176-240.941176 240.941176l-512 0q-240.941176 0-240.941176-240.941176l0-512q0-240.941176 240.941176-240.941176Z" fill="#B68EB0" p-id="29418"></path><path d="M654.155294 240.941176l31.62353 12.709648C721.889882 268.137412 783.058824 307.049412 783.058824 360.809412c0 26.503529-9.095529 50.898824-24.214589 70.475294v53.248c0 40.779294-33.490824 74.089412-75.444706 76.077176v31.11153a103.604706 103.604706 0 0 1 17.679059 57.97647v2.258824a104.026353 104.026353 0 0 1-103.905882 103.936h-170.315294a104.026353 104.026353 0 0 1-103.905883-103.905882v-2.288942c0-21.473882 6.505412-41.411765 17.648942-57.97647v-31.11153c-41.953882-1.987765-75.444706-35.297882-75.444706-76.077176v-53.248A114.959059 114.959059 0 0 1 240.941176 360.809412c0-49.031529 46.411294-89.901176 89.509648-107.218824L362.074353 240.941176l0.150588 34.123295c0.060235 18.010353 4.668235 76.589176 60.175059 76.589176h179.260235c34.514824 0 52.133647-25.810824 52.344471-76.589176L654.125176 240.941176z m-57.012706 351.201883h-170.285176a57.645176 57.645176 0 0 0-57.584941 57.584941v2.258824c0 31.804235 25.871059 57.584941 57.584941 57.584941h170.285176a57.645176 57.645176 0 0 0 57.584941-57.584941h-0.060235v-2.258824c0-15.751529-6.324706-30.057412-16.624941-40.417882h-1.054118v-0.90353a57.163294 57.163294 0 0 0-39.845647-16.263529zM442.187294 632.470588a20.540235 20.540235 0 1 1 0 41.050353 20.540235 20.540235 0 0 1 0-41.050353z m134.776471 2.740706a20.540235 20.540235 0 1 1-20.510118 35.568941 20.540235 20.540235 0 0 1 20.510118-35.538823z m60.02447-158.870588h-250.036706v77.402353c12.318118-5.12 25.810824-8.011294 39.905883-8.011294h170.285176c14.095059 0 27.527529 2.861176 39.845647 7.981176v-77.402353z m75.444706-9.035294a114.326588 114.326588 0 0 1-29.033412 7.830588v39.032471c16.353882-1.867294 29.123765-14.305882 29.033412-29.515295z m-400.956235-0.090353v17.347765c0 15.299765 12.769882 27.708235 29.063529 29.515294v-39.002353a115.049412 115.049412 0 0 1-29.063529-7.830589zM697.072941 311.717647c-10.300235 54.723765-44.393412 86.377412-95.472941 86.377412h-179.2c-52.073412 0-90.232471-33.249882-102.460235-85.835294-18.432 13.552941-32.587294 31.623529-32.587294 48.670117a69.150118 69.150118 0 0 0 69.089882 69.089883h311.175529a69.150118 69.150118 0 0 0 69.089883-69.089883c0-16.082824-17.679059-34.936471-39.634824-49.212235z" fill="#FFFFFF" p-id="29419"></path></svg>