<?xml version="1.0" standalone="no"?><!DOCTYPE svg PUBLIC "-//W3C//DTD SVG 1.1//EN" "http://www.w3.org/Graphics/SVG/1.1/DTD/svg11.dtd"><svg t="1597234551338" class="icon" viewBox="0 0 1024 1024" version="1.1" xmlns="http://www.w3.org/2000/svg" p-id="30545" xmlns:xlink="http://www.w3.org/1999/xlink" width="32" height="32"><defs><style type="text/css"></style></defs><path d="M15.058824 15.058824m240.941176 0l512 0q240.941176 0 240.941176 240.941176l0 512q0 240.941176-240.941176 240.941176l-512 0q-240.941176 0-240.941176-240.941176l0-512q0-240.941176 240.941176-240.941176Z" fill="#6A9AFF" p-id="30546"></path><path d="M747.369412 373.820235l-44.574118 37.707294-30.418823-35.870117 51.681882-44.001883L698.187294 301.176471 439.717647 520.734118c-5.601882 4.728471-12.709647 5.12-19.275294 1.024-33.611294-22.829176-92.762353-31.232-138.902588 7.951058a115.651765 115.651765 0 0 0-13.131294 162.816 115.712 115.712 0 0 0 162.846117 13.312c46.049882-39.183059 47.405176-98.846118 30.358588-135.770352a15.600941 15.600941 0 0 1 4.096-18.883765l187.843765-159.472941 30.328471 35.870117-44.272941 37.827765 20.630588 24.244706 107.760941-91.587765-20.630588-24.244706z m-351.954824 289.912471a60.385882 60.385882 0 0 1-84.931764-6.927059 60.385882 60.385882 0 0 1 6.896941-84.931765 60.355765 60.355765 0 0 1 84.931764 6.896942c21.504 25.298824 18.432 63.427765-6.896941 84.931764z" fill="#FFFFFF" p-id="30547"></path></svg>