<?xml version="1.0" standalone="no"?><!DOCTYPE svg PUBLIC "-//W3C//DTD SVG 1.1//EN" "http://www.w3.org/Graphics/SVG/1.1/DTD/svg11.dtd"><svg t="1597234455105" class="icon" viewBox="0 0 1024 1024" version="1.1" xmlns="http://www.w3.org/2000/svg" p-id="28900" width="32" height="32" xmlns:xlink="http://www.w3.org/1999/xlink"><defs><style type="text/css"></style></defs><path d="M15.058824 15.058824m240.941176 0l512 0q240.941176 0 240.941176 240.941176l0 512q0 240.941176-240.941176 240.941176l-512 0q-240.941176 0-240.941176-240.941176l0-512q0-240.941176 240.941176-240.941176Z" fill="#DFBEA2" p-id="28901"></path><path d="M586.450824 542.810353h-145.92c-37.044706 0-67.162353 30.117647-67.162353 67.162353s30.117647 67.162353 67.162353 67.162353h145.92c37.044706 0 67.162353-30.117647 67.162352-67.162353s-30.117647-67.162353-67.162352-67.162353z m0 108.032h-145.92a40.899765 40.899765 0 0 1-40.83953-40.839529c0-22.528 18.341647-40.839529 40.83953-40.83953h145.92c22.528 0 40.839529 18.311529 40.839529 40.83953 0 22.497882-18.311529 40.839529-40.839529 40.839529z" fill="#FFFFFF" p-id="28902"></path><path d="M453.330824 580.397176a29.515294 29.515294 0 0 0 0 58.940236 29.515294 29.515294 0 0 0 0-58.940236z m122.789647 0a29.515294 29.515294 0 0 0 0 58.940236 29.515294 29.515294 0 0 0 0-58.940236z" fill="#FFFFFF" p-id="28903"></path><path d="M790.768941 258.770824a13.161412 13.161412 0 0 0-12.107294-12.077177c-2.831059-0.210824-69.933176-5.481412-93.665882-5.481412a98.304 98.304 0 0 0-90.352941 59.632941 247.265882 247.265882 0 0 0-81.136942-13.613176 247.145412 247.145412 0 0 0-86.437647 15.510588 98.304 98.304 0 0 0-91.136-61.530353c-23.762824 0-90.834824 5.270588-93.665882 5.481412a13.161412 13.161412 0 0 0-12.107294 12.077177c-0.210824 2.861176-5.481412 69.963294-5.481412 93.696a98.183529 98.183529 0 0 0 58.639059 89.961411 246.964706 246.964706 0 0 0-18.160941 93.153883c0 136.944941 111.405176 248.350118 248.350117 248.350117 136.944941 0 248.350118-111.405176 248.350118-248.350117a246.994824 246.994824 0 0 0-19.154824-95.593412 98.183529 98.183529 0 0 0 53.549177-87.521882c0-23.732706-5.270588-90.834824-5.481412-93.665883zM251.000471 352.466824c0-17.076706 3.011765-59.904 4.547764-80.384 20.48-1.505882 63.277176-4.517647 80.384-4.517648A71.981176 71.981176 0 0 1 402.913882 313.223529c-18.070588 9.035294-34.996706 20.239059-50.386823 33.370353L310.603294 304.700235a13.161412 13.161412 0 0 0-18.612706 18.612706l41.411765 41.441883a249.645176 249.645176 0 0 0-38.912 53.820235 71.890824 71.890824 0 0 1-43.489882-66.108235z m262.505411 393.938823c-116.254118 0-210.823529-94.569412-210.823529-210.823529s94.569412-210.823529 210.823529-210.82353 210.823529 94.569412 210.82353 210.82353-94.569412 210.823529-210.82353 210.823529z m217.750589-330.119529a249.735529 249.735529 0 0 0-40.658824-54.633412l38.339765-38.339765a13.161412 13.161412 0 0 0-18.642824-18.612706l-39.152941 39.152941a248.982588 248.982588 0 0 0-52.133647-33.039058 71.981176 71.981176 0 0 1 65.987765-43.279059c17.076706 0 59.904 3.011765 80.384 4.547765 1.505882 20.48 4.547765 63.307294 4.547764 80.414117 0 26.804706-14.908235 51.380706-38.671058 63.789177z" fill="#FFFFFF" p-id="28904"></path></svg>