<?xml version="1.0" standalone="no"?><!DOCTYPE svg PUBLIC "-//W3C//DTD SVG 1.1//EN" "http://www.w3.org/Graphics/SVG/1.1/DTD/svg11.dtd"><svg t="1597234544505" class="icon" viewBox="0 0 1024 1024" version="1.1" xmlns="http://www.w3.org/2000/svg" p-id="30404" xmlns:xlink="http://www.w3.org/1999/xlink" width="32" height="32"><defs><style type="text/css"></style></defs><path d="M15.058824 15.058824m240.941176 0l512 0q240.941176 0 240.941176 240.941176l0 512q0 240.941176-240.941176 240.941176l-512 0q-240.941176 0-240.941176-240.941176l0-512q0-240.941176 240.941176-240.941176Z" fill="#6A9AFF" p-id="30405"></path><path d="M391.529412 757.037176V558.983529h137.33647c36.623059 0 66.499765-5.180235 89.630118-15.540705 23.130353-10.360471 40.96-23.491765 53.488941-39.393883 12.528941-15.902118 21.082353-33.129412 25.660235-51.681882a216.606118 216.606118 0 0 0 6.866824-51.681883c0-15.902118-2.288941-33.249882-6.866824-52.043294a135.017412 135.017412 0 0 0-25.660235-52.043294c-12.528941-15.902118-30.358588-29.153882-53.488941-39.755294C595.365647 246.241882 565.488941 240.941176 528.865882 240.941176H301.176471v516.096h90.352941z m132.276706-271.781647H391.529412V314.669176h133.722353c12.047059 0 23.371294 1.204706 33.972706 3.614118 10.601412 2.409412 19.998118 6.866824 28.190117 13.372235s14.697412 15.299765 19.516236 26.383059c4.818824 11.083294 7.228235 25.057882 7.228235 41.923765 0 16.384-2.770824 29.997176-8.312471 40.839529-5.541647 10.842353-12.769882 19.516235-21.684706 26.021647-8.914824 6.505412-18.672941 11.203765-29.274353 14.095059a117.850353 117.850353 0 0 1-31.081411 4.336941z" fill="#FFFFFF" p-id="30406"></path></svg>