<?xml version="1.0" standalone="no"?><!DOCTYPE svg PUBLIC "-//W3C//DTD SVG 1.1//EN" "http://www.w3.org/Graphics/SVG/1.1/DTD/svg11.dtd"><svg t="1597234791504" class="icon" viewBox="0 0 1024 1024" version="1.1" xmlns="http://www.w3.org/2000/svg" p-id="36468" xmlns:xlink="http://www.w3.org/1999/xlink" width="32" height="32"><defs><style type="text/css"></style></defs><path d="M15.058824 15.058824m240.941176 0l512 0q240.941176 0 240.941176 240.941176l0 512q0 240.941176-240.941176 240.941176l-512 0q-240.941176 0-240.941176-240.941176l0-512q0-240.941176 240.941176-240.941176Z" fill="#5C93A7" p-id="36469"></path><path d="M512 210.823529c166.339765 0 301.176471 134.836706 301.176471 301.176471s-134.836706 301.176471-301.176471 301.176471S210.823529 678.339765 210.823529 512 345.660235 210.823529 512 210.823529z m31.322353 120.470589H391.529412v344.064h60.235294V543.322353h91.557647c24.395294 0 44.333176-3.463529 59.753412-10.360471 15.420235-6.927059 27.316706-15.661176 35.659294-26.262588 8.342588-10.601412 14.064941-22.076235 17.106823-34.454588 3.041882-12.348235 4.577882-23.853176 4.577883-34.454588 0-10.601412-1.505882-22.166588-4.577883-34.69553-3.041882-12.528941-8.734118-24.094118-17.106823-34.695529-8.342588-10.601412-20.239059-19.425882-35.659294-26.50353-13.492706-6.174118-30.418824-9.637647-50.808471-10.450823L543.322353 331.294118z m-2.409412 49.152c8.041412 0 15.570824 0.813176 22.648471 2.409411 7.077647 1.596235 13.342118 4.577882 18.793412 8.914824s9.788235 10.209882 13.010823 17.588706c3.222588 7.378824 4.818824 16.715294 4.818824 27.949176 0 10.932706-1.837176 19.998118-5.541647 27.226353s-8.523294 13.010824-14.456471 17.347765a59.331765 59.331765 0 0 1-19.516235 9.396706 78.576941 78.576941 0 0 1-20.720942 2.891294H451.764706v-113.724235h89.148235z" fill="#FFFFFF" p-id="36470"></path></svg>