<?xml version="1.0" standalone="no"?><!DOCTYPE svg PUBLIC "-//W3C//DTD SVG 1.1//EN" "http://www.w3.org/Graphics/SVG/1.1/DTD/svg11.dtd"><svg t="1597234639144" class="icon" viewBox="0 0 1024 1024" version="1.1" xmlns="http://www.w3.org/2000/svg" p-id="32801" xmlns:xlink="http://www.w3.org/1999/xlink" width="32" height="32"><defs><style type="text/css"></style></defs><path d="M15.058824 15.058824m240.941176 0l512 0q240.941176 0 240.941176 240.941176l0 512q0 240.941176-240.941176 240.941176l-512 0q-240.941176 0-240.941176-240.941176l0-512q0-240.941176 240.941176-240.941176Z" fill="#6A9AFF" p-id="32802"></path><path d="M503.868235 210.823529l87.762824 151.521883 175.134117 0.271059-87.341176 151.792941 87.341176 151.792941-175.134117 0.271059-87.762824 151.521882-87.792941-151.521882L240.941176 666.202353l87.341177-151.792941L240.941176 362.616471l175.134118-0.271059L503.868235 210.823529z m19.968 454.264471h-48.067764l24.033882 40.96 24.033882-40.96zM359.303529 562.296471l-1.505882 2.620235c-12.438588 21.775059-22.106353 39.002353-29.033412 51.621647l62.132706-0.060235c-11.354353-19.395765-21.895529-37.466353-31.623529-54.211765z m193.897412-150.046118h-106.736941l-19.456 33.219765c-14.697412 25.148235-27.949176 47.917176-39.755294 68.276706l32.527059 55.868235 7.228235 12.378353 20.239059 34.514823h105.170823l20.269177-34.514823c14.697412-25.148235 27.949176-47.917176 39.755294-68.276706-9.848471-16.956235-20.660706-35.568941-32.527059-55.868235l-7.228235-12.378353-19.486118-33.219765z m87.220706 150.106353l-4.306823 7.348706-27.316706 46.772706 62.132706 0.060235c-7.168-13.131294-17.347765-31.201882-30.509177-54.211765z m29.786353-150.106353l-60.626824 0.060235 30.840471 52.856471c12.709647-22.287059 22.648471-39.905882 29.786353-52.916706z m-340.720941 0c7.137882 13.010824 17.076706 30.629647 29.81647 52.886588l30.810353-52.826353-60.626823-0.060235z m170.345412-90.834824l-24.816942 42.255059h49.633883l-24.816941-42.255059z" fill="#FFFFFF" p-id="32803"></path></svg>