<?xml version="1.0" standalone="no"?><!DOCTYPE svg PUBLIC "-//W3C//DTD SVG 1.1//EN" "http://www.w3.org/Graphics/SVG/1.1/DTD/svg11.dtd"><svg t="1597234840318" class="icon" viewBox="0 0 1024 1024" version="1.1" xmlns="http://www.w3.org/2000/svg" p-id="38019" xmlns:xlink="http://www.w3.org/1999/xlink" width="32" height="32"><defs><style type="text/css"></style></defs><path d="M15.058824 15.058824m240.941176 0l512 0q240.941176 0 240.941176 240.941176l0 512q0 240.941176-240.941176 240.941176l-512 0q-240.941176 0-240.941176-240.941176l0-512q0-240.941176 240.941176-240.941176Z" fill="#5C93A7" p-id="38020"></path><path d="M512 210.823529c166.339765 0 301.176471 134.836706 301.176471 301.176471s-134.836706 301.176471-301.176471 301.176471S210.823529 678.339765 210.823529 512 345.660235 210.823529 512 210.823529z m0 120.470589a180.705882 180.705882 0 1 0 0 361.411764 180.705882 180.705882 0 0 0 0-361.411764z" fill="#FFFFFF" p-id="38021"></path><path d="M512 391.529412a120.470588 120.470588 0 1 1 0 240.941176 120.470588 120.470588 0 0 1 0-240.941176z" fill="#FFFFFF" p-id="38022"></path></svg>