<?xml version="1.0" standalone="no"?><!DOCTYPE svg PUBLIC "-//W3C//DTD SVG 1.1//EN" "http://www.w3.org/Graphics/SVG/1.1/DTD/svg11.dtd"><svg t="1597234540506" class="icon" viewBox="0 0 1024 1024" version="1.1" xmlns="http://www.w3.org/2000/svg" p-id="30263" xmlns:xlink="http://www.w3.org/1999/xlink" width="32" height="32"><defs><style type="text/css"></style></defs><path d="M15.058824 15.058824m240.941176 0l512 0q240.941176 0 240.941176 240.941176l0 512q0 240.941176-240.941176 240.941176l-512 0q-240.941176 0-240.941176-240.941176l0-512q0-240.941176 240.941176-240.941176Z" fill="#F76666" p-id="30264"></path><path d="M567.326118 783.872a32.527059 32.527059 0 0 1-12.709647-2.529882 32.286118 32.286118 0 0 1-10.782118-7.107765 32.436706 32.436706 0 0 1-7.198118-10.631529c-6.927059-16.624941-19.546353-18.432-24.636235-18.432-5.12 0-17.709176 1.807059-24.636235 18.432a32.316235 32.316235 0 0 1-7.228236 10.631529 33.039059 33.039059 0 0 1-23.461647 9.637647c-125.801412 0-171.489882-159.021176-171.489882-265.938824 0-17.136941 3.312941-33.731765 9.878588-49.392941a130.017882 130.017882 0 0 1 70.354824-69.75247 132.397176 132.397176 0 0 1 99.508706 0c11.836235 4.909176 22.889412 11.474824 32.798117 19.546353a22.287059 22.287059 0 0 0 28.370824 0.150588c9.938824-8.131765 21.052235-14.787765 32.948706-19.666824a132.397176 132.397176 0 0 1 99.508706 0c15.841882 6.505412 30.027294 15.902118 42.164705 27.949177a127.427765 127.427765 0 0 1 38.098824 91.136c0 106.947765-45.688471 265.968941-171.489882 265.968941z m108.182588-425.562353a174.260706 174.260706 0 0 0-66.710588-13.131294 174.501647 174.501647 0 0 0-74.691765 16.624941V284.852706a59.934118 59.934118 0 0 1 22.287059-46.682353 62.343529 62.343529 0 0 1 15.269647-9.095529 62.524235 62.524235 0 0 1 46.592 0 60.867765 60.867765 0 0 1 23.070117 16.685176l0.90353 1.144471c0.722824 0.903529 1.445647 1.746824 2.108235 2.650353l0.963765 1.475764c0.602353 0.813176 1.204706 1.686588 1.716706 2.56l0.903529 1.596236 1.264941 2.258823 42.917647-12.468706s-12.980706-24.064-22.799058-33.822117a104.96 104.96 0 0 0-34.093177-22.588236 107.008 107.008 0 0 0-80.474353 0 105.261176 105.261176 0 0 0-56.862117 56.380236c-5.300706 12.649412-8.011294 26.081882-8.011295 39.905882v76.950588a174.260706 174.260706 0 0 0-74.691764-16.624941 174.531765 174.531765 0 0 0-123.181177 50.567529A171.791059 171.791059 0 0 0 240.941176 517.903059c0 124.536471 57.464471 309.850353 215.732706 309.850353a77.131294 77.131294 0 0 0 54.753883-22.497883c0.210824-0.150588 0.391529-0.361412 0.572235-0.542117l0.542118 0.542117a77.402353 77.402353 0 0 0 54.784 22.497883c158.268235 0 215.732706-185.313882 215.732706-309.850353 0-22.859294-4.457412-45.116235-13.251765-66.108235a174.230588 174.230588 0 0 0-94.328471-93.485177z" fill="#FFFFFF" p-id="30265"></path></svg>