<?xml version="1.0" standalone="no"?><!DOCTYPE svg PUBLIC "-//W3C//DTD SVG 1.1//EN" "http://www.w3.org/Graphics/SVG/1.1/DTD/svg11.dtd"><svg t="1597234530959" class="icon" viewBox="0 0 1024 1024" version="1.1" xmlns="http://www.w3.org/2000/svg" p-id="29981" xmlns:xlink="http://www.w3.org/1999/xlink" width="32" height="32"><defs><style type="text/css"></style></defs><path d="M15.058824 15.058824m240.941176 0l512 0q240.941176 0 240.941176 240.941176l0 512q0 240.941176-240.941176 240.941176l-512 0q-240.941176 0-240.941176-240.941176l0-512q0-240.941176 240.941176-240.941176Z" fill="#A38783" p-id="29982"></path><path d="M276.178824 699.331765a48.188235 48.188235 0 0 0 14.215529 34.273882 48.399059 48.399059 0 0 0 51.471059 11.083294c35.659294-23.130353 76.8-54.814118 119.476706-91.919059l0.090353-2.017882a124.084706 124.084706 0 0 1 0.361411-6.204235l0.240942-2.770824 0.421647-3.373176 0.361411-2.710589c0.180706-1.114353 0.361412-2.258824 0.602353-3.403294l0.451765-2.590117 0.783059-3.46353c0.180706-0.843294 0.361412-1.656471 0.602353-2.499764l0.963764-3.614118 0.662589-2.258824c0.391529-1.325176 0.843294-2.650353 1.295059-3.945411l0.602352-1.867294a127.307294 127.307294 0 0 1 29.967059-47.194353 127.397647 127.397647 0 0 1 92.190118-37.406118c54.814118-58.578824 100.201412-114.959059 131.704471-163.538824 2.078118-5.481412 3.132235-11.264 3.132235-17.167058v-48.489412h-48.489412c-5.963294 0-11.745882 1.024-17.167059 3.102117-125.711059 81.498353-299.309176 255.096471-380.777412 380.777412a48.188235 48.188235 0 0 0-3.132235 17.167059z m348.370823-129.626353a92.069647 92.069647 0 0 0-35.418353-7.017412 91.949176 91.949176 0 0 0-65.445647 27.105882 92.370824 92.370824 0 0 0 0 130.891294c8.643765 8.673882 18.763294 15.420235 30.027294 20.088471 22.497882 9.336471 48.429176 9.336471 70.836706 0 11.264-4.668235 21.383529-11.444706 30.027294-20.088471a92.280471 92.280471 0 0 0 27.105883-65.445647 92.009412 92.009412 0 0 0-27.105883-65.445647 92.16 92.16 0 0 0-30.027294-20.08847zM247.296 731.376941A83.365647 83.365647 0 0 1 240.941176 699.331765c0-11.113412 2.138353-21.895529 6.354824-32.075294a17.889882 17.889882 0 0 1 1.475765-2.800942c85.082353-131.975529 261.662118-308.555294 393.637647-393.637647a17.588706 17.588706 0 0 1 2.800941-1.505882c10.179765-4.216471 20.961882-6.324706 32.075294-6.324706h58.819765l16.865882-16.865882a17.648941 17.648941 0 0 1 24.907294 24.907294l-16.865882 16.865882v58.819765c0 11.083294-2.108235 21.865412-6.324706 32.075294a17.859765 17.859765 0 0 1-1.505882 2.800941c-29.635765 45.989647-71.198118 98.544941-121.072942 153.238588a127.277176 127.277176 0 0 1 47.405177 30.027295 127.397647 127.397647 0 0 1 37.436235 90.383058 127.156706 127.156706 0 0 1-37.436235 90.383059A127.156706 127.156706 0 0 1 589.101176 783.058824a127.156706 127.156706 0 0 1-90.352941-37.436236 127.307294 127.307294 0 0 1-31.442823-51.591529c-38.339765 32.376471-75.233882 60.235294-107.821177 81.197176a17.769412 17.769412 0 0 1-2.770823 1.475765c-10.179765 4.216471-20.961882 6.354824-32.075294 6.354824a83.215059 83.215059 0 0 1-59.181177-24.515765 83.425882 83.425882 0 0 1-18.191059-27.166118z m348.280471-113.78447a22.196706 22.196706 0 0 0 0 31.201882 22.166588 22.166588 0 0 0 37.647058-15.600941 22.046118 22.046118 0 0 0-37.647058-15.600941z m-6.445177 59.693176c0 5.812706 2.349176 11.504941 6.445177 15.600941a22.166588 22.166588 0 0 0 37.647058-15.600941 22.046118 22.046118 0 0 0-44.092235 0z m-22.046118-22.046118a22.347294 22.347294 0 0 0-15.600941 6.445177 22.196706 22.196706 0 0 0 0 31.201882 22.196706 22.196706 0 0 0 31.171765 0 22.046118 22.046118 0 0 0-15.570824-37.647059z m15.570824-6.475294a21.895529 21.895529 0 0 1-31.171765 0 22.106353 22.106353 0 0 1 0-31.171764 22.106353 22.106353 0 0 1 37.647059 15.600941 21.865412 21.865412 0 0 1-6.475294 15.570823z" fill="#FFFFFF" p-id="29983"></path></svg>