<?xml version="1.0" standalone="no"?><!DOCTYPE svg PUBLIC "-//W3C//DTD SVG 1.1//EN" "http://www.w3.org/Graphics/SVG/1.1/DTD/svg11.dtd"><svg t="1597234678016" class="icon" viewBox="0 0 1024 1024" version="1.1" xmlns="http://www.w3.org/2000/svg" p-id="33647" xmlns:xlink="http://www.w3.org/1999/xlink" width="32" height="32"><defs><style type="text/css"></style></defs><path d="M15.058824 15.058824m240.941176 0l512 0q240.941176 0 240.941176 240.941176l0 512q0 240.941176-240.941176 240.941176l-512 0q-240.941176 0-240.941176-240.941176l0-512q0-240.941176 240.941176-240.941176Z" fill="#6A9AFF" p-id="33648"></path><path d="M647.258353 730.955294h-56.199529v-26.081882c0-28.732235-23.642353-52.133647-52.705883-52.133647h-52.705882c-29.063529 0-52.705882 23.401412-52.705883 52.103529v26.081882h-56.199529c23.943529-39.634824 44.182588-84.570353 61.319529-130.319058h147.877648c17.167059 45.748706 37.406118 90.654118 61.319529 130.319058z m-168.297412-260.668235h66.108235c6.595765 25.238588 14.215529 51.561412 22.799059 78.185412h-111.73647c8.613647-26.624 16.203294-52.946824 22.829176-78.185412zM512 313.916235c0 10.752 17.679059 92.943059 20.269176 104.237177h-40.538352c2.590118-11.294118 20.269176-93.485176 20.269176-104.237177z m210.823529 234.556236H623.435294a1329.152 1329.152 0 0 1-23.943529-78.185412h44.242823v-52.10353h-57.494588c-8.131765-34.304-15.36-69.903059-21.564235-106.435764v-23.913412a25.901176 25.901176 0 0 0-2.770824-11.655529l-26.352941-52.10353c-8.944941-17.648941-38.219294-17.648941-47.134118 0l-26.352941 52.10353a25.6 25.6 0 0 0-2.800941 11.655529v23.913412a1701.647059 1701.647059 0 0 1-21.564235 106.405647h-57.524706v52.133647h44.272941a1329.392941 1329.392941 0 0 1-23.913412 78.185412H301.176471v52.133647h80.173176c-22.829176 57.313882-48.188235 105.562353-74.902588 140.739764a25.810824 25.810824 0 0 0-2.469647 27.286589c4.457412 8.854588 13.552941 14.426353 23.552 14.426353h131.764706a26.202353 26.202353 0 0 0 26.352941-26.051765v-52.133647h52.705882v52.103529a26.202353 26.202353 0 0 0 26.352941 26.081883h131.764706a26.413176 26.413176 0 0 0 23.582118-14.426353 25.810824 25.810824 0 0 0-2.499765-27.286589c-26.684235-35.177412-52.043294-83.425882-74.902588-140.739764H722.823529v-52.10353z" fill="#FFFFFF" p-id="33649"></path></svg>