<?xml version="1.0" standalone="no"?><!DOCTYPE svg PUBLIC "-//W3C//DTD SVG 1.1//EN" "http://www.w3.org/Graphics/SVG/1.1/DTD/svg11.dtd"><svg t="1597234823622" class="icon" viewBox="0 0 1024 1024" version="1.1" xmlns="http://www.w3.org/2000/svg" p-id="37455" xmlns:xlink="http://www.w3.org/1999/xlink" width="32" height="32"><defs><style type="text/css"></style></defs><path d="M15.058824 15.058824m240.941176 0l512 0q240.941176 0 240.941176 240.941176l0 512q0 240.941176-240.941176 240.941176l-512 0q-240.941176 0-240.941176-240.941176l0-512q0-240.941176 240.941176-240.941176Z" fill="#C0A7FF" p-id="37456"></path><path d="M602.352941 451.764706v60.235294h-60.235294v240.941176h150.588235v60.235295H331.294118v-60.235295h150.588235v-240.941176h-60.235294v-60.235294h180.705882z m-30.117647-271.058824v36.833883a271.149176 271.149176 0 0 1 60.265412 507.181176v-69.842823a210.823529 210.823529 0 1 0-241.001412 0v69.872941a271.149176 271.149176 0 0 1 60.235294-507.211294L451.794824 180.705882h120.470588z" fill="#FFFFFF" p-id="37457"></path></svg>