<?xml version="1.0" standalone="no"?><!DOCTYPE svg PUBLIC "-//W3C//DTD SVG 1.1//EN" "http://www.w3.org/Graphics/SVG/1.1/DTD/svg11.dtd"><svg t="1597234806853" class="icon" viewBox="0 0 1024 1024" version="1.1" xmlns="http://www.w3.org/2000/svg" p-id="36891" xmlns:xlink="http://www.w3.org/1999/xlink" width="32" height="32"><defs><style type="text/css"></style></defs><path d="M15.058824 15.058824m240.941176 0l512 0q240.941176 0 240.941176 240.941176l0 512q0 240.941176-240.941176 240.941176l-512 0q-240.941176 0-240.941176-240.941176l0-512q0-240.941176 240.941176-240.941176Z" fill="#C0A7FF" p-id="36892"></path><path d="M512 567.055059l183.657412 183.657412A299.881412 299.881412 0 0 1 512 813.176471a299.881412 299.881412 0 0 1-183.657412-62.464L512 567.055059zM813.176471 512a300.001882 300.001882 0 0 1-73.697883 197.391059L542.117647 512l0.030118-299.670588C694.332235 227.418353 813.176471 355.809882 813.176471 512zM481.882353 212.329412V512l-197.360941 197.391059A300.001882 300.001882 0 0 1 210.823529 512c0-156.16 118.874353-284.581647 271.058824-299.670588z" fill="#FFFFFF" p-id="36893"></path></svg>