<?xml version="1.0" standalone="no"?><!DOCTYPE svg PUBLIC "-//W3C//DTD SVG 1.1//EN" "http://www.w3.org/Graphics/SVG/1.1/DTD/svg11.dtd"><svg t="1597234560935" class="icon" viewBox="0 0 1024 1024" version="1.1" xmlns="http://www.w3.org/2000/svg" p-id="30686" xmlns:xlink="http://www.w3.org/1999/xlink" width="32" height="32"><defs><style type="text/css"></style></defs><path d="M15.058824 15.058824m240.941176 0l512 0q240.941176 0 240.941176 240.941176l0 512q0 240.941176-240.941176 240.941176l-512 0q-240.941176 0-240.941176-240.941176l0-512q0-240.941176 240.941176-240.941176Z" fill="#6A9AFF" p-id="30687"></path><path d="M743.845647 529.046588a82.944 82.944 0 0 0-10.179765-8.553412 227.478588 227.478588 0 0 0-65.264941-183.145411c-88.395294-88.395294-232.207059-88.365176-320.602353 0a225.219765 225.219765 0 0 0-66.409412 160.316235c0 42.526118 11.685647 83.215059 33.430589 118.543059l-58.398118 58.398117A52.464941 52.464941 0 0 0 240.941176 711.951059a52.705882 52.705882 0 0 0 52.856471 52.826353c13.552941 0 27.075765-5.12 37.345882-15.420236l58.488471-58.458352a226.635294 226.635294 0 0 0 118.482824 33.340235 226.063059 226.063059 0 0 0 152.515764-58.88c8.011294 2.56 16.444235 3.915294 25.118118 3.915294a81.618824 81.618824 0 0 0 58.096941-24.033882c15.510588-15.510588 24.064-36.141176 24.064-58.127059 0-21.925647-8.553412-42.556235-24.094118-58.066824zM380.385882 369.965176a180.826353 180.826353 0 0 1 255.397647 0 181.248 181.248 0 0 1 52.705883 135.137883c-0.903529 0-1.837176-0.120471-2.770824-0.120471a81.618824 81.618824 0 0 0-58.127059 24.064 82.251294 82.251294 0 0 0-6.174117 109.176471 178.959059 178.959059 0 0 1-32.527059 20.781176l-242.296471-242.29647c8.583529-17.076706 19.877647-32.858353 33.792-46.742589zM298.556235 716.739765a6.746353 6.746353 0 0 1-9.517176-9.547294l54.121412-54.121412c1.536 1.626353 3.041882 3.312941 4.638117 4.879059 1.596235 1.596235 3.252706 3.102118 4.909177 4.668235l-54.15153 54.121412z m81.859765-91.376941a179.410824 179.410824 0 0 1-52.916706-127.698824c0-10.842353 1.024-21.564235 2.861177-32.015059l209.618823 209.588706a180.434824 180.434824 0 0 1-159.563294-49.874823z m330.812235-12.739765c-6.806588 6.806588-15.872 10.541176-25.479529 10.541176a36.080941 36.080941 0 1 1 25.479529-10.541176z" fill="#FFFFFF" p-id="30688"></path></svg>