<?xml version="1.0" standalone="no"?><!DOCTYPE svg PUBLIC "-//W3C//DTD SVG 1.1//EN" "http://www.w3.org/Graphics/SVG/1.1/DTD/svg11.dtd"><svg t="1597234815201" class="icon" viewBox="0 0 1024 1024" version="1.1" xmlns="http://www.w3.org/2000/svg" p-id="37173" xmlns:xlink="http://www.w3.org/1999/xlink" width="32" height="32"><defs><style type="text/css"></style></defs><path d="M15.058824 15.058824m240.941176 0l512 0q240.941176 0 240.941176 240.941176l0 512q0 240.941176-240.941176 240.941176l-512 0q-240.941176 0-240.941176-240.941176l0-512q0-240.941176 240.941176-240.941176Z" fill="#C0A7FF" p-id="37174"></path><path d="M481.882353 572.235294v240.941177h-150.588235l48.158117-240.941177H481.882353z m162.635294 0l48.188235 240.941177h-150.588235v-240.941177h102.4z m228.894118-90.352941v60.235294h-90.352941v60.235294h-60.235295v-60.235294H301.176471v60.235294H240.941176v-60.235294H150.588235v-60.235294h722.82353zM481.882353 210.823529v240.941177h-78.336L451.764706 210.823529h30.117647z m90.352941 0l48.188235 240.941177H542.117647V210.823529h30.117647z" fill="#FFFFFF" p-id="37175"></path></svg>