<?xml version="1.0" standalone="no"?><!DOCTYPE svg PUBLIC "-//W3C//DTD SVG 1.1//EN" "http://www.w3.org/Graphics/SVG/1.1/DTD/svg11.dtd"><svg t="1595064837237" class="icon" viewBox="0 0 1024 1024" version="1.1" xmlns="http://www.w3.org/2000/svg" p-id="8518" width="32" height="32" xmlns:xlink="http://www.w3.org/1999/xlink"><defs><style type="text/css"></style></defs><path d="M240.448 697.6A364.48 364.48 0 0 1 128 435.072c0-98.56 40.512-193.024 112.448-262.4C390.4 27.776 633.6 27.776 783.552 172.736A364.48 364.48 0 0 1 896 435.136c0 98.56-40.512 193.024-112.448 262.4L512 960l-271.552-262.4z" fill="#FE2042" p-id="8519"></path><path d="M669.44 288H354.56a34.56 34.56 0 0 0-34.56 34.432v38.4h384v-38.4a34.56 34.56 0 0 0-34.56-34.432zM320 557.12a34.56 34.56 0 0 0 34.56 34.432h314.88c19.008 0 34.56-15.488 34.56-34.432v-144.64H320v144.64z m314.112-50.88h28.48v32.384h-28.48V506.24z m-36.608 0h28.48v32.384h-28.48V506.24z m-35.072 0h28.48v32.384h-28.48V506.24z" fill="#FFFFFF" p-id="8520"></path></svg>