<?xml version="1.0" standalone="no"?><!DOCTYPE svg PUBLIC "-//W3C//DTD SVG 1.1//EN" "http://www.w3.org/Graphics/SVG/1.1/DTD/svg11.dtd"><svg t="1595064781675" class="icon" viewBox="0 0 1024 1024" version="1.1" xmlns="http://www.w3.org/2000/svg" p-id="8368" width="32" height="32" xmlns:xlink="http://www.w3.org/1999/xlink"><defs><style type="text/css"></style></defs><path d="M240.448 697.6A364.48 364.48 0 0 1 128 435.072c0-98.56 40.512-193.024 112.448-262.4C390.4 27.776 633.6 27.776 783.552 172.736A364.48 364.48 0 0 1 896 435.136c0 98.56-40.512 193.024-112.448 262.4L512 960l-271.552-262.4z" fill="#FE2042" p-id="8369"></path><path d="M637.248 616.128c0 14.272-3.712 23.36-17.28 23.36-13.632 0-16.64-9.152-16.64-23.488l-0.384-135.488c-0.512 0-38.592-5.184-51.392-43.52 0 0 15.616-181.12 74.24-180.992 14.976 0 10.688 39.68 10.688 39.68l0.768 320.448z m-174.08-182.592H456.32l9.792 183.04c0 14.272-12.928 23.424-26.496 23.424-13.632 0-25.856-9.152-25.856-23.424l10.24-182.848-7.36-0.192C410.88 433.536 384 384.128 384 375.488l12.672-118.592c0 0.128 17.728 0.64 17.728 0.64l-0.256 78.08c0 9.024-0.192 15.936 8.704 15.936 8.96 0 9.088-6.912 9.088-15.872v-78.08h24.32V336.64c0 8.96 1.216 14.72 10.112 14.72 8.96 0 8.832-5.76 8.832-14.72V257.6h14.72l12.48 117.888c0 8.704-33.664 58.048-39.168 58.048z" fill="#FFFFFF" p-id="8370"></path></svg>