<?xml version="1.0" standalone="no"?><!DOCTYPE svg PUBLIC "-//W3C//DTD SVG 1.1//EN" "http://www.w3.org/Graphics/SVG/1.1/DTD/svg11.dtd"><svg t="1595470905762" class="icon" viewBox="0 0 1024 1024" version="1.1" xmlns="http://www.w3.org/2000/svg" p-id="8457" width="32" height="32" xmlns:xlink="http://www.w3.org/1999/xlink"><defs><style type="text/css"></style></defs><path d="M762.496 848.256c0 28.544-7.36 46.72-34.624 46.72-27.2-0.064-33.152-18.368-33.088-46.976l-0.896-270.976c-0.96 0.128-77.184-10.368-102.848-87.04 0 0 31.232-362.24 148.608-361.984 29.952 0.064 21.376 79.296 21.376 79.296l1.472 640.96zM414.4 483.072h-13.888l19.648 366.08c0 28.608-25.856 46.848-53.12 46.848-27.2 0-51.648-18.24-51.648-46.912l20.416-365.696-14.72-0.256C309.888 483.136 256 384.192 256 366.912l25.344-237.12c0 0.256 35.456 1.344 35.456 1.344l-0.448 156.16c0 17.984-0.512 31.808 17.344 31.808 17.92 0 18.176-13.824 18.176-31.808V131.2h48.64v158.272c0 17.92 2.368 29.44 20.288 29.44 17.856 0 17.536-11.52 17.536-29.44V131.136h29.568l24.96 235.776c0 17.408-67.392 116.16-78.464 116.16z" p-id="8458"></path></svg>