<?xml version="1.0" standalone="no"?><!DOCTYPE svg PUBLIC "-//W3C//DTD SVG 1.1//EN" "http://www.w3.org/Graphics/SVG/1.1/DTD/svg11.dtd"><svg t="1595470932697" class="icon" viewBox="0 0 1024 1024" version="1.1" xmlns="http://www.w3.org/2000/svg" p-id="9169" width="32" height="32" xmlns:xlink="http://www.w3.org/1999/xlink"><defs><style type="text/css"></style></defs><path d="M861.12 309.76l-444.992-38.144c-19.328 0-40.832 15.552-34.88 34.88l71.808 267.52c8.064 24.128 26.88 24.448 46.144 24.448h335.744a34.816 34.816 0 0 0 34.88-34.944L896 349.248c0-19.2-10.688-37.44-34.88-39.552v0.064z m-66.752 329.024s59.136 31.232-2.56 74.112H372.352L243.84 270.528l-96.832-2.24S100.544 218.432 152.832 192l145.28 11.648 119.04 435.2h377.216zM458.176 737.92a61.056 61.056 0 1 0 0 122.176 61.056 61.056 0 0 0 0-122.176z m276.096 1.152a60.416 60.416 0 1 0 0.064 120.832 60.416 60.416 0 0 0-0.128-120.832h0.064z" p-id="9170"></path></svg>