<?xml version="1.0" standalone="no"?><!DOCTYPE svg PUBLIC "-//W3C//DTD SVG 1.1//EN" "http://www.w3.org/Graphics/SVG/1.1/DTD/svg11.dtd"><svg t="1595064939749" class="icon" viewBox="0 0 1024 1024" version="1.1" xmlns="http://www.w3.org/2000/svg" p-id="8968" width="32" height="32" xmlns:xlink="http://www.w3.org/1999/xlink"><defs><style type="text/css"></style></defs><path d="M240.448 697.6A364.48 364.48 0 0 1 128 435.072c0-98.56 40.512-193.024 112.448-262.4C390.4 27.776 633.6 27.776 783.552 172.736A364.48 364.48 0 0 1 896 435.136c0 98.56-40.512 193.024-112.448 262.4L512 960l-271.552-262.4z" fill="#FE2042" p-id="8969"></path><path d="M686.528 346.88l-222.464-19.072c-9.664 0-20.416 7.808-17.472 17.408l35.904 133.76c4.096 12.16 13.44 12.224 23.104 12.224h167.872a17.408 17.408 0 0 0 17.472-17.408L704 366.656c0-9.6-5.376-18.752-17.472-19.84v0.064z m-33.344 164.48s29.568 15.68-1.28 37.12H442.24L377.92 327.168l-48.384-1.088s-23.232-24.96 2.88-38.144l72.64 5.76 59.52 217.6h188.608z m-168.064 49.6a30.528 30.528 0 1 0 0 61.056 30.528 30.528 0 0 0 0-61.056z m138.048 0.512a30.208 30.208 0 1 0 0 60.416 30.208 30.208 0 0 0 0-60.416z" fill="#FFFFFF" p-id="8970"></path></svg>