<?xml version="1.0" standalone="no"?><!DOCTYPE svg PUBLIC "-//W3C//DTD SVG 1.1//EN" "http://www.w3.org/Graphics/SVG/1.1/DTD/svg11.dtd"><svg t="1595065112130" class="icon" viewBox="0 0 1024 1024" version="1.1" xmlns="http://www.w3.org/2000/svg" p-id="9568" width="32" height="32" xmlns:xlink="http://www.w3.org/1999/xlink"><defs><style type="text/css"></style></defs><path d="M240.448 697.6A364.48 364.48 0 0 1 128 435.072c0-98.56 40.512-193.024 112.448-262.4C390.4 27.776 633.6 27.776 783.552 172.736A364.48 364.48 0 0 1 896 435.136c0 98.56-40.512 193.024-112.448 262.4L512 960l-271.552-262.4z" fill="#FE2042" p-id="9569"></path><path d="M500.288 517.76a8.192 8.192 0 0 0 6.848 0l117.12-55.488v79.488a8.128 8.128 0 0 1-4.48 7.232l-112.448 56.704a7.936 7.936 0 0 1-7.232 0L357.76 549.12a8 8 0 0 1-4.48-7.232V462.272l147.008 55.488z m173.696-146.24v220.032a14.976 14.976 0 0 1-29.888 0V377.728l-19.84 4.608v55.232l-120.512 57.088-150.4-57.088v-57.088l-39.04-12.608a8.064 8.064 0 0 1-5.12-7.488c0-3.264 1.984-6.272 5.12-7.488L500.736 278.4a8 8 0 0 1 5.888 0l186.496 74.496a8 8 0 1 1 0 14.976l-19.136 3.648z" fill="#FFFFFF" p-id="9570"></path></svg>