<?xml version="1.0" standalone="no"?><!DOCTYPE svg PUBLIC "-//W3C//DTD SVG 1.1//EN" "http://www.w3.org/Graphics/SVG/1.1/DTD/svg11.dtd"><svg t="1595470955754" class="icon" viewBox="0 0 1024 1024" version="1.1" xmlns="http://www.w3.org/2000/svg" p-id="9881" width="32" height="32" xmlns:xlink="http://www.w3.org/1999/xlink"><defs><style type="text/css"></style></defs><path d="M488.576 651.52a16.384 16.384 0 0 0 13.696 0l234.112-111.04v159.04a16.256 16.256 0 0 1-8.896 14.464l-224.896 113.408a15.872 15.872 0 0 1-14.4 0l-284.672-113.28a16 16 0 0 1-8.96-14.528V540.48l294.016 111.04z m347.392-292.48v440.064a29.888 29.888 0 0 1-59.776 0V371.392l-39.68 9.28v110.4L495.488 605.312 194.624 491.072V377.024l-78.08-25.216a16.128 16.128 0 0 1-10.24-14.976c0-6.656 4.096-12.608 10.24-15.04L489.536 172.8a16 16 0 0 1 11.84 0l372.992 148.992c6.08 2.56 10.24 8.384 10.24 15.04a16 16 0 0 1-10.24 14.976l-38.272 7.168z" p-id="9882"></path></svg>