<?xml version="1.0" standalone="no"?><!DOCTYPE svg PUBLIC "-//W3C//DTD SVG 1.1//EN" "http://www.w3.org/Graphics/SVG/1.1/DTD/svg11.dtd"><svg t="1595064644014" class="icon" viewBox="0 0 1024 1024" version="1.1" xmlns="http://www.w3.org/2000/svg" p-id="7918" width="32" height="32" xmlns:xlink="http://www.w3.org/1999/xlink"><defs><style type="text/css"></style></defs><path d="M240.448 697.6A364.48 364.48 0 0 1 128 435.072c0-98.56 40.512-193.024 112.448-262.4C390.4 27.776 633.6 27.776 783.552 172.736A364.48 364.48 0 0 1 896 435.136c0 98.56-40.512 193.024-112.448 262.4L512 960l-271.552-262.4z" fill="#FE2042" p-id="7919"></path><path d="M688.832 609.664h-73.6A192 192 0 1 0 512 640c1.216 0 2.304-0.128 3.456-0.192 0.512 0.064 1.088 0.192 1.664 0.192h171.776a15.168 15.168 0 1 0 0-30.336zM616.32 419.392a40.448 40.448 0 1 1-57.216 57.216 40.448 40.448 0 0 1 57.216-57.216zM483.392 343.744a40.448 40.448 0 1 1 57.216 57.216 40.448 40.448 0 0 1-57.216-57.216zM407.744 476.608a40.448 40.448 0 1 1 57.216-57.216 40.448 40.448 0 0 1-57.216 57.216z m75.648 18.432a40.448 40.448 0 1 1 57.216 57.216 40.448 40.448 0 0 1-57.216-57.216z" fill="#FFFFFF" p-id="7920"></path></svg>