<?xml version="1.0" standalone="no"?><!DOCTYPE svg PUBLIC "-//W3C//DTD SVG 1.1//EN" "http://www.w3.org/Graphics/SVG/1.1/DTD/svg11.dtd"><svg t="1595470881308" class="icon" viewBox="0 0 1024 1024" version="1.1" xmlns="http://www.w3.org/2000/svg" p-id="7913" width="32" height="32" xmlns:xlink="http://www.w3.org/1999/xlink"><defs><style type="text/css"></style></defs><path d="M865.664 835.392h-147.136A383.36 383.36 0 0 0 896 512a384 384 0 1 0-384 384c2.24 0 4.48-0.32 6.72-0.32 1.152 0.128 2.24 0.32 3.392 0.32h343.552a30.336 30.336 0 1 0 0-60.608z m-145.216-380.544A80.832 80.832 0 1 1 606.08 569.152a80.832 80.832 0 0 1 114.368-114.304z m-265.6-151.296A80.832 80.832 0 1 1 569.152 417.92a80.832 80.832 0 0 1-114.304-114.368z m-151.296 265.6A80.832 80.832 0 1 1 417.92 454.848a80.832 80.832 0 0 1-114.368 114.304z m151.296 36.992a80.832 80.832 0 1 1 114.304 114.304 80.832 80.832 0 0 1-114.304-114.304z" p-id="7914"></path></svg>