<?xml version="1.0" standalone="no"?><!DOCTYPE svg PUBLIC "-//W3C//DTD SVG 1.1//EN" "http://www.w3.org/Graphics/SVG/1.1/DTD/svg11.dtd"><svg t="1595470988889" class="icon" viewBox="0 0 1024 1024" version="1.1" xmlns="http://www.w3.org/2000/svg" p-id="10761" xmlns:xlink="http://www.w3.org/1999/xlink" width="32" height="32"><defs><style type="text/css"></style></defs><path d="M658.56 128c52.736 0 98.048 13.312 135.68 40.128 37.632 26.688 56.32 59.008 56.32 97.024v384.064c0 37.12-17.856 68.928-53.76 95.232-35.84 26.24-79.552 40.128-131.008 41.6l91.264 86.4a12.608 12.608 0 0 1 3.456 15.04c-2.304 5.632-6.592 8.512-12.928 8.512H294.976a12.928 12.928 0 0 1-12.928-8.512 12.48 12.48 0 0 1 3.456-14.976l91.264-86.528c-51.456-1.408-95.104-15.36-131.008-41.6-35.904-26.24-53.76-57.92-53.76-95.168v-384c0-38.08 18.688-70.4 56.32-97.024 37.632-26.56 82.88-40.128 135.744-40.128L658.56 128z m-391.488 542.208c13.44 13.44 29.568 20.096 48.384 20.096s34.944-6.72 48.384-20.096c13.44-13.44 20.032-29.568 20.032-48.32 0-18.816-6.784-34.944-20.032-48.384a65.92 65.92 0 0 0-48.384-20.096c-18.816 0-34.944 6.848-48.384 20.096a65.92 65.92 0 0 0-20.096 48.384c0 18.752 6.528 34.88 20.096 48.32z m226.816-212.992V237.824H260.608v219.392h233.28z m301.568 0V237.824H548.608v219.392h246.848z m-116.864 212.992c13.44 13.44 29.504 20.096 48.32 20.096s34.944-6.72 48.384-20.096c13.44-13.44 20.096-29.568 20.096-48.32 0-18.816-6.848-34.944-20.096-48.384a65.92 65.92 0 0 0-48.384-20.096c-18.816 0-34.88 6.848-48.32 20.096a65.92 65.92 0 0 0-20.096 48.384c0 18.752 6.656 34.88 20.096 48.32z" p-id="10762"></path></svg>