<?xml version="1.0" standalone="no"?><!DOCTYPE svg PUBLIC "-//W3C//DTD SVG 1.1//EN" "http://www.w3.org/Graphics/SVG/1.1/DTD/svg11.dtd"><svg t="1595470984253" class="icon" viewBox="0 0 1024 1024" version="1.1" xmlns="http://www.w3.org/2000/svg" p-id="10633" xmlns:xlink="http://www.w3.org/1999/xlink" width="32" height="32"><defs><style type="text/css"></style></defs><path d="M797.504 190.656a107.2 107.2 0 0 0-54.4-54.528 96.768 96.768 0 0 0-39.68-8.128H294.272c-14.208 0-27.392 2.752-39.68 8.128a106.048 106.048 0 0 0-54.4 54.528 96.768 96.768 0 0 0-8.192 39.68v460.992c0 14.144 0.064 27.392 0.384 39.68 0.256 12.288 1.728 23.04 4.48 32.32 2.752 9.216 7.68 16.64 14.72 22.08 7.168 5.504 17.536 8.192 31.104 8.192v50.752c0 14.144 5.12 26.368 15.168 36.48A49.664 49.664 0 0 0 294.4 896c14.144 0 26.24-5.12 35.968-15.168a50.368 50.368 0 0 0 14.72-36.48V793.6H652.8v50.752a50.56 50.56 0 0 0 14.72 36.48 48.384 48.384 0 0 0 35.968 15.168c14.144 0 26.368-5.12 36.48-15.168a49.664 49.664 0 0 0 15.168-36.48V793.6c14.08 0 24.768-2.688 31.872-8.192a41.6 41.6 0 0 0 14.72-22.08c2.688-9.28 4.096-20.16 4.096-32.768V230.336c0-14.144-2.752-27.392-8.256-39.68zM376.96 186.112a24.576 24.576 0 0 1 18.048-7.424h207.808c7.104 0 13.12 2.432 18.048 7.424 4.864 4.928 7.36 10.88 7.36 18.048a25.408 25.408 0 0 1-25.408 26.24H394.88a24.576 24.576 0 0 1-18.048-7.36 25.6 25.6 0 0 1-7.424-18.88 25.088 25.088 0 0 1 7.424-18.048z m-32.32 502.4a36.032 36.032 0 0 1-26.56 10.944 36.992 36.992 0 0 1-37.632-37.632 36.992 36.992 0 0 1 37.632-37.696c10.368 0 19.2 3.712 26.56 11.008a36.096 36.096 0 0 1 11.008 26.688 36.48 36.48 0 0 1-11.008 26.624z m356.8-1.28a33.28 33.28 0 0 1-24.96 10.688 34.24 34.24 0 0 1-25.856-10.688 35.328 35.328 0 0 1-10.24-25.344 35.2 35.2 0 0 1 10.24-25.344 34.24 34.24 0 0 1 25.856-10.624 33.28 33.28 0 0 1 24.96 10.624c6.848 7.104 10.24 15.552 10.24 25.344a35.328 35.328 0 0 1-10.24 25.344z m53.568-201.408H242.688V281.152h512.384V485.76h-0.128z" p-id="10634"></path></svg>