<?xml version="1.0" standalone="no"?><!DOCTYPE svg PUBLIC "-//W3C//DTD SVG 1.1//EN" "http://www.w3.org/Graphics/SVG/1.1/DTD/svg11.dtd"><svg t="1595065235351" class="icon" viewBox="0 0 1024 1024" version="1.1" xmlns="http://www.w3.org/2000/svg" p-id="10168" width="32" height="32" xmlns:xlink="http://www.w3.org/1999/xlink"><defs><style type="text/css"></style></defs><path d="M240.448 697.6A364.48 364.48 0 0 1 128 435.072c0-98.56 40.512-193.024 112.448-262.4C390.4 27.776 633.6 27.776 783.552 172.736A364.48 364.48 0 0 1 896 435.136c0 98.56-40.512 193.024-112.448 262.4L512 960l-271.552-262.4z" fill="#FE2042" p-id="10169"></path><path d="M654.72 287.36a53.76 53.76 0 0 0-27.136-27.264 48.384 48.384 0 0 0-19.84-4.096H403.072a49.152 49.152 0 0 0-19.84 4.096 53.056 53.056 0 0 0-27.2 27.2 48.384 48.384 0 0 0-4.096 19.84v230.528c0 7.04 0 13.696 0.192 19.84 0.128 6.144 0.896 11.52 2.24 16.128a21.12 21.12 0 0 0 7.36 11.072 25.216 25.216 0 0 0 15.552 4.096v25.408c0 7.04 2.56 13.184 7.616 18.176A24.832 24.832 0 0 0 403.2 640c7.04 0 13.056-2.56 17.92-7.616a25.152 25.152 0 0 0 7.424-18.176V588.8h153.792v25.408c0 7.04 2.496 13.184 7.36 18.176 4.928 5.12 10.88 7.616 17.984 7.616a24.96 24.96 0 0 0 18.24-7.616 24.832 24.832 0 0 0 7.616-18.176V588.8c7.04 0 12.416-1.344 16-4.096a20.8 20.8 0 0 0 7.296-11.072 59.072 59.072 0 0 0 2.048-16.384V307.2a48.384 48.384 0 0 0-4.096-19.84z m-210.304-2.304a12.288 12.288 0 0 1 9.024-3.712H557.44a12.16 12.16 0 0 1 8.96 3.712 12.288 12.288 0 0 1 3.776 8.96 12.672 12.672 0 0 1-12.8 13.184H453.504a12.288 12.288 0 0 1-8.96-3.712 12.8 12.8 0 0 1-3.712-9.408c0-3.584 1.216-6.528 3.648-9.024z m-16.128 251.2a18.048 18.048 0 0 1-13.248 5.504 18.56 18.56 0 0 1-18.816-18.816 18.56 18.56 0 0 1 18.816-18.88c5.12 0 9.6 1.92 13.248 5.504a18.048 18.048 0 0 1 5.504 13.312c0 5.248-1.856 9.6-5.504 13.376z m178.432-0.64a16.64 16.64 0 0 1-12.544 5.312 17.152 17.152 0 0 1-12.864-5.312 17.664 17.664 0 0 1-5.12-12.672c0-4.928 1.664-9.152 5.12-12.672a17.152 17.152 0 0 1 12.864-5.312 16.64 16.64 0 0 1 12.544 5.312c3.392 3.584 5.12 7.744 5.12 12.672a17.664 17.664 0 0 1-5.12 12.672z m26.752-100.736H377.344V332.544H633.6v102.4z" fill="#FFFFFF" p-id="10170"></path></svg>