<?xml version="1.0" standalone="no"?><!DOCTYPE svg PUBLIC "-//W3C//DTD SVG 1.1//EN" "http://www.w3.org/Graphics/SVG/1.1/DTD/svg11.dtd"><svg t="1595470890172" class="icon" viewBox="0 0 1024 1024" version="1.1" xmlns="http://www.w3.org/2000/svg" p-id="8081" width="32" height="32" xmlns:xlink="http://www.w3.org/1999/xlink"><defs><style type="text/css"></style></defs><path d="M128.896 655.936l257.28-1.792 0.448 54.848-87.36 0.768 1.024 107.072 293.76 1.088 19.968-215.488-14.72-1.92s-48.256 49.28-128.192 14.848c-40-17.152-54.656-51.456-58.56-81.6C401.28 446.976 481.152 413.44 478.72 401.344c-1.344-7.232-34.112-37.952-25.152-81.28 8.064-38.592 26.304-57.6 50.176-70.336 13.952-7.68 29.696-11.2 45.504-10.432-21.632-158.4 219.52-137.664 181.888-1.216 0 0 65.28 1.472 82.496 64.448a104.448 104.448 0 0 1-21.632 100.544s66.816 37.184 64.64 115.584c-2.24 78.336-65.088 111.232-97.6 111.36a147.776 147.776 0 0 1-57.6-11.2l-36.288-17.6-12.16-0.448 15.36 215.872 227.008-0.64 0.576 54.4-766.848-0.128-0.512-52.608 96.64 0.064v-109.632L128 708.608l0.896-52.672z" p-id="8082"></path></svg>