<?xml version="1.0" standalone="no"?><!DOCTYPE svg PUBLIC "-//W3C//DTD SVG 1.1//EN" "http://www.w3.org/Graphics/SVG/1.1/DTD/svg11.dtd"><svg t="1595064672254" class="icon" viewBox="0 0 1024 1024" version="1.1" xmlns="http://www.w3.org/2000/svg" p-id="8068" width="32" height="32" xmlns:xlink="http://www.w3.org/1999/xlink"><defs><style type="text/css"></style></defs><path d="M240.448 697.6A364.48 364.48 0 0 1 128 435.072c0-98.56 40.512-193.024 112.448-262.4C390.4 27.776 633.6 27.776 783.552 172.736A364.48 364.48 0 0 1 896 435.136c0 98.56-40.512 193.024-112.448 262.4L512 960l-271.552-262.4z" fill="#FE2042" p-id="8069"></path><path d="M320.448 519.936l128.64-0.896 0.256 27.52-43.712 0.32 0.512 53.568 146.88 0.512 9.984-107.776-7.36-0.896s-24.128 24.64-64.128 7.424c-19.968-8.64-27.328-25.792-29.248-40.832-5.568-43.392 34.304-60.16 33.152-66.176-0.704-3.648-17.088-19.008-12.608-40.64 4.032-19.328 13.184-28.8 25.088-35.2a42.816 42.816 0 0 1 22.784-5.184c-10.88-79.232 109.696-68.864 90.88-0.64 0 0 32.64 0.704 41.28 32.192a52.224 52.224 0 0 1-10.816 50.304s33.408 18.56 32.32 57.792c-1.088 39.168-32.576 55.616-48.768 55.68a73.856 73.856 0 0 1-28.8-5.632l-18.176-8.768-6.08-0.192 7.68 107.904 113.536-0.32L704 627.2 320.576 627.2l-0.256-26.304h48.32v-54.784L320 546.304l0.448-26.368z" fill="#FFFFFF" p-id="8070"></path></svg>