<?xml version="1.0" standalone="no"?><!DOCTYPE svg PUBLIC "-//W3C//DTD SVG 1.1//EN" "http://www.w3.org/Graphics/SVG/1.1/DTD/svg11.dtd"><svg t="1595064617904" class="icon" viewBox="0 0 1024 1024" version="1.1" xmlns="http://www.w3.org/2000/svg" p-id="7768" width="32" height="32" xmlns:xlink="http://www.w3.org/1999/xlink"><defs><style type="text/css"></style></defs><path d="M240.448 697.6A364.48 364.48 0 0 1 128 435.072c0-98.56 40.512-193.024 112.448-262.4C390.4 27.776 633.6 27.776 783.552 172.736A364.48 364.48 0 0 1 896 435.136c0 98.56-40.512 193.024-112.448 262.4L512 960l-271.552-262.4z" fill="#FE2042" p-id="7769"></path><path d="M680.576 570.368l23.424 19.328-26.56 31.808-22.72-18.752-20.352 25.472a24.32 24.32 0 0 1-35.84 4.608c-8.896-7.296-7.936-16.64 3.648-31.168l20.352-25.472-6.528-5.44-28.48 35.712c-14.336 17.92-33.088 25.792-50.752 11.264-17.6-14.528-14.656-35.52-0.32-53.44l28.48-35.648-127.552-105.408-28.544 35.712c-14.272 17.92-33.92 25.152-51.456 10.624-17.664-14.592-14.272-35.2 0-53.12l28.544-35.648-6.208-5.12-19.712 24.64c-11.52 14.464-22.592 19.648-31.424 12.352-8.832-7.296-13.12-25.088-1.536-39.616l19.712-24.64-21.824-18.048 26.624-31.808 21.12 17.408 13.44-16.896a26.688 26.688 0 0 1 37.76-5.632c8.832 7.296 6.848 18.368-4.736 32.896l-13.504 16.896 6.208 5.12 21.568-27.008c14.336-17.92 33.856-25.92 51.456-11.392 17.6 14.592 14.336 35.968 0 53.824l-21.632 27.072 127.616 105.408 21.632-27.072c14.272-17.92 34.176-25.6 51.84-11.008 17.6 14.528 13.504 35.2-0.832 53.12l-21.568 27.072 6.528 5.376 14.784-18.496c11.584-14.528 21.696-18.944 30.528-11.584 8.832 7.296 13.248 23.68 1.664 38.144l-14.848 18.56z" fill="#FFFFFF" p-id="7770"></path></svg>