<?xml version="1.0" standalone="no"?><!DOCTYPE svg PUBLIC "-//W3C//DTD SVG 1.1//EN" "http://www.w3.org/Graphics/SVG/1.1/DTD/svg11.dtd"><svg t="1595470872706" class="icon" viewBox="0 0 1024 1024" version="1.1" xmlns="http://www.w3.org/2000/svg" p-id="7745" width="32" height="32" xmlns:xlink="http://www.w3.org/1999/xlink"><defs><style type="text/css"></style></defs><path d="M849.216 756.672l46.784 38.656-53.184 63.616-45.376-37.44-40.704 50.944c-23.168 28.992-54.08 23.872-71.744 9.28-17.728-14.592-15.808-33.472 7.36-62.4l40.704-51.008-13.056-10.816-56.96 71.36c-28.672 35.84-66.24 51.648-101.44 22.592-35.2-29.12-29.312-71.04-0.64-106.88l56.96-71.36-255.168-210.752-57.024 71.36c-28.608 35.84-67.84 50.368-103.04 21.248-35.2-29.056-28.48-70.4 0.192-106.24L259.84 377.6l-12.416-10.24-39.36 49.28c-23.168 29.056-45.248 39.36-62.912 24.704-17.664-14.592-26.24-50.112-3.072-79.104l39.424-49.344-43.648-36.032 53.184-63.68 42.24 34.88 27.008-33.856c23.168-28.928 57.728-25.92 75.392-11.328 17.664 14.592 13.696 36.864-9.408 65.856l-27.072 33.856 12.416 10.24 43.264-54.144c28.608-35.84 67.648-51.84 102.848-22.656 35.2 29.056 28.672 71.808 0 107.648l-43.2 54.08 255.168 210.752 43.264-54.08c28.608-35.84 68.416-51.2 103.68-22.08 35.2 29.12 27.008 70.528-1.6 106.368l-43.264 54.144 13.056 10.752 29.632-37.056c23.168-28.992 43.392-37.824 61.056-23.232 17.664 14.656 26.496 47.424 3.328 76.416l-29.632 36.992z" p-id="7746"></path></svg>