<?xml version="1.0" standalone="no"?><!DOCTYPE svg PUBLIC "-//W3C//DTD SVG 1.1//EN" "http://www.w3.org/Graphics/SVG/1.1/DTD/svg11.dtd"><svg t="1595064749941" class="icon" viewBox="0 0 1024 1024" version="1.1" xmlns="http://www.w3.org/2000/svg" p-id="8218" width="32" height="32" xmlns:xlink="http://www.w3.org/1999/xlink"><defs><style type="text/css"></style></defs><path d="M240.448 697.6A364.48 364.48 0 0 1 128 435.072c0-98.56 40.512-193.024 112.448-262.4C390.4 27.776 633.6 27.776 783.552 172.736A364.48 364.48 0 0 1 896 435.136c0 98.56-40.512 193.024-112.448 262.4L512 960l-271.552-262.4z" fill="#FE2042" p-id="8219"></path><path d="M675.072 451.584c-4.288-6.272-13.12-13.888-31.232-13.888h-21.12c0.32-13.44-0.64-22.272-0.64-22.272H328.768s-6.016 56.32 19.072 100.48c15.744 27.584 25.28 35.52 38.848 49.216a76.8 76.8 0 0 0 50.048 22.848h76.992s27.328 0 49.664-22.208c5.12-5.248 9.984-9.6 14.72-14.72 77.184-4.288 96.768-58.24 99.2-65.408 1.408-3.904 6.784-20.608-2.176-34.048z m-22.4 24.768l-0.448 1.28c-0.128 0.384-9.728 32.512-52.288 43.712l3.2-5.376c9.472-16.896 14.528-35.52 17.088-52.032h23.616c6.272 0 8.96 1.408 9.536 2.24 1.216 1.792 0.512 6.912-0.64 10.176z m-23.04 130.88H321.92C303.36 627.2 424.192 640 424.192 640h103.04s117.248-12.288 102.4-32.768M502.72 391.488c0.32 1.152-3.328 2.496-4.608 2.048-36.992-23.296-28.096-55.744-3.84-79.488 18.432-18.048 32.192-27.136 32.32-55.68-0.128-2.56 5.44-2.88 6.4-1.792 45.504 64.64-56.576 67.968-30.272 134.912m-66.816 0c0.448 1.152-3.2 2.496-4.48 2.048-37.056-23.296-28.16-55.744-3.904-79.488 18.368-18.048 32.128-27.136 32.256-55.68 0-2.56 5.568-2.88 6.464-1.792 45.568 64.64-56.64 67.968-30.336 134.912" fill="#FFFFFF" p-id="8220"></path></svg>