<?xml version="1.0" standalone="no"?><!DOCTYPE svg PUBLIC "-//W3C//DTD SVG 1.1//EN" "http://www.w3.org/Graphics/SVG/1.1/DTD/svg11.dtd"><svg t="1595470897270" class="icon" viewBox="0 0 1024 1024" version="1.1" xmlns="http://www.w3.org/2000/svg" p-id="8289" width="32" height="32" xmlns:xlink="http://www.w3.org/1999/xlink"><defs><style type="text/css"></style></defs><path d="M838.144 519.232c-8.512-12.544-26.24-27.776-62.464-27.776h-42.304c0.64-26.88-1.152-44.544-1.152-44.544H145.472s-12.096 112.64 38.08 200.96c31.552 55.104 50.56 71.04 77.632 98.304 45.44 45.696 100.096 45.696 100.096 45.696h154.048s54.592 0 99.392-44.352c10.24-10.496 19.904-19.2 29.312-29.504 154.496-8.512 193.664-116.48 198.4-130.752 2.88-7.872 13.632-41.216-4.288-68.032z m-44.8 49.472l-0.896 2.688c-0.192 0.64-19.456 64.896-104.512 87.296l6.272-10.752c19.008-33.792 29.056-70.976 34.24-104.128h47.232c12.544 0 17.92 2.944 19.008 4.48 2.496 3.584 1.152 13.888-1.28 20.416z m-46.144 261.76H131.84C94.848 870.4 336.384 896 336.384 896h206.208s234.368-24.576 204.608-65.6m-253.632-431.36c0.64 2.176-6.72 4.864-9.152 3.968-74.112-46.592-56.192-111.488-7.808-158.976 36.928-36.032 64.448-54.144 64.64-111.232-0.192-5.12 11.008-5.824 12.8-3.584 91.136 129.152-113.088 135.872-60.48 269.76m-133.632 0c0.896 2.24-6.464 4.928-8.96 4.032-74.112-46.592-56.384-111.488-7.808-158.976 36.672-36.032 64.256-54.144 64.448-111.232 0-5.12 11.2-5.824 12.992-3.584 91.136 129.152-113.28 135.872-60.672 269.76" p-id="8290"></path></svg>