<?xml version="1.0" standalone="no"?><!DOCTYPE svg PUBLIC "-//W3C//DTD SVG 1.1//EN" "http://www.w3.org/Graphics/SVG/1.1/DTD/svg11.dtd"><svg t="1595064975957" class="icon" viewBox="0 0 1024 1024" version="1.1" xmlns="http://www.w3.org/2000/svg" p-id="9118" width="32" height="32" xmlns:xlink="http://www.w3.org/1999/xlink"><defs><style type="text/css"></style></defs><path d="M240.448 697.6A364.48 364.48 0 0 1 128 435.072c0-98.56 40.512-193.024 112.448-262.4C390.4 27.776 633.6 27.776 783.552 172.736A364.48 364.48 0 0 1 896 435.136c0 98.56-40.512 193.024-112.448 262.4L512 960l-271.552-262.4z" fill="#FE2042" p-id="9119"></path><path d="M660.096 313.6a25.6 25.6 0 0 0-25.6-25.6H389.12a25.6 25.6 0 0 0-25.6 25.6L352 568.96c0 14.08 11.456 25.536 25.6 25.536h268.48a25.6 25.6 0 0 0 25.6-25.6l-11.584-255.36zM511.808 466.624c-53.12 0-96.256-43.008-96.256-96.128 0-2.24 0.192-4.48 0.32-6.72a12.928 12.928 0 0 1 25.792 0h0.256c-0.192 2.368-0.704 4.672-0.704 7.04a70.272 70.272 0 1 0 140.288-4.224 44.352 44.352 0 0 1-0.32-2.816h0.064a13.248 13.248 0 0 1 26.496 0.256v0.192c0.128 2.112 0.32 4.16 0.32 6.272 0 53.12-43.136 96.128-96.256 96.128z" fill="#FFFFFF" p-id="9120"></path></svg>