<?xml version="1.0" standalone="no"?><!DOCTYPE svg PUBLIC "-//W3C//DTD SVG 1.1//EN" "http://www.w3.org/Graphics/SVG/1.1/DTD/svg11.dtd"><svg t="1595470938452" class="icon" viewBox="0 0 1024 1024" version="1.1" xmlns="http://www.w3.org/2000/svg" p-id="9337" width="32" height="32" xmlns:xlink="http://www.w3.org/1999/xlink"><defs><style type="text/css"></style></defs><path d="M808.128 243.072a51.136 51.136 0 0 0-51.2-51.072H266.432c-28.224 0-51.136 22.848-51.136 51.072L192 753.92c0 28.16 22.912 51.072 51.2 51.072h536.96c28.288 0 51.2-22.848 51.2-51.072l-23.232-510.848zM511.552 549.44A192.384 192.384 0 0 1 319.104 357.12c0-4.608 0.32-9.024 0.64-13.504a25.792 25.792 0 0 1 51.648 0h0.448c-0.448 4.736-1.408 9.344-1.408 14.208 0 77.568 62.976 140.48 140.672 140.48a140.544 140.544 0 0 0 140.608-140.48 64.32 64.32 0 0 0-1.088-11.712 88.768 88.768 0 0 1-0.32-2.56h0.256a26.432 26.432 0 0 1 52.928 0.64v0.32c0.256 4.224 0.64 8.32 0.64 12.608a192.384 192.384 0 0 1-192.576 192.256z" p-id="9338"></path></svg>