<?xml version="1.0" standalone="no"?><!DOCTYPE svg PUBLIC "-//W3C//DTD SVG 1.1//EN" "http://www.w3.org/Graphics/SVG/1.1/DTD/svg11.dtd"><svg t="1595470926360" class="icon" viewBox="0 0 1024 1024" version="1.1" xmlns="http://www.w3.org/2000/svg" p-id="8961" width="32" height="32" xmlns:xlink="http://www.w3.org/1999/xlink"><defs><style type="text/css"></style></defs><path d="M698.816 422.144L543.68 189.44c-7.04-7.04-17.6-14.08-28.16-14.08a32 32 0 0 0-28.16 14.08L332.16 422.144H163.072c-21.12 0-35.2 14.08-35.2 35.2v10.56l88.064 327.808c7.04 28.16 35.264 52.864 66.944 52.864h458.24c31.68 0 59.84-21.12 66.88-52.864l88.128-327.808v-10.56c0-21.12-14.08-35.2-35.2-35.2h-162.112z m-289.024 0l105.728-155.136 105.728 155.136H409.792zM515.52 704a70.656 70.656 0 0 1-70.4-70.464c0-38.784 31.616-70.528 70.4-70.528 38.72 0 70.464 31.744 70.464 70.528 0 38.72-31.744 70.464-70.4 70.464" p-id="8962"></path></svg>