<?xml version="1.0" standalone="no"?><!DOCTYPE svg PUBLIC "-//W3C//DTD SVG 1.1//EN" "http://www.w3.org/Graphics/SVG/1.1/DTD/svg11.dtd"><svg t="1595064902689" class="icon" viewBox="0 0 1024 1024" version="1.1" xmlns="http://www.w3.org/2000/svg" p-id="8818" width="32" height="32" xmlns:xlink="http://www.w3.org/1999/xlink"><defs><style type="text/css"></style></defs><path d="M240.448 697.6A364.48 364.48 0 0 1 128 435.072c0-98.56 40.512-193.024 112.448-262.4C390.4 27.776 633.6 27.776 783.552 172.736A364.48 364.48 0 0 1 896 435.136c0 98.56-40.512 193.024-112.448 262.4L512 960l-271.552-262.4z" fill="#FE2042" p-id="8819"></path><path d="M605.44 403.072L527.744 286.72c-3.456-3.584-8.768-7.04-14.08-7.04a16 16 0 0 0-14.08 7.04L422.08 403.072H337.536c-10.56 0-17.6 7.04-17.6 17.6v5.312l44.032 163.84c3.52 14.08 17.6 26.432 33.472 26.432h229.12a33.92 33.92 0 0 0 33.472-26.432L704 425.984v-5.312c0-10.56-7.04-17.6-17.6-17.6H605.376z m-144.512 0l52.864-77.568 52.864 77.568H460.928zM513.792 544a35.328 35.328 0 0 1-35.264-35.264c0-19.392 15.872-35.264 35.2-35.264 19.392 0 35.264 15.872 35.264 35.264 0 19.392-15.872 35.2-35.2 35.2" fill="#FFFFFF" p-id="8820"></path></svg>