<?xml version="1.0" standalone="no"?><!DOCTYPE svg PUBLIC "-//W3C//DTD SVG 1.1//EN" "http://www.w3.org/Graphics/SVG/1.1/DTD/svg11.dtd"><svg t="1607341500500" class="icon" viewBox="0 0 1024 1024" version="1.1" xmlns="http://www.w3.org/2000/svg" p-id="15899" xmlns:xlink="http://www.w3.org/1999/xlink" width="32" height="32"><defs><style type="text/css"></style></defs><path d="M783.5136 137.4464a380.16 380.16 0 0 1 0 539.8784C711.552 748.6976 526.8992 883.1488 512 985.6c-24.9856-101.5808-199.5776-236.928-271.5392-308.3264a380.16 380.16 0 0 1 0-539.8272c149.9392-149.12 393.1136-149.12 543.0528 0zM551.936 179.2H358.4v438.6816h76.8V449.536h116.736c31.1296 0 56.5248-4.4032 76.1856-13.2096 19.6608-8.8064 34.816-19.968 45.4656-33.4848 10.6496-13.5168 17.92-28.16 21.8112-43.9296a184.1152 184.1152 0 0 0 5.8368-43.9296c0-13.5168-1.9456-28.2624-5.8368-44.2368a114.7648 114.7648 0 0 0-21.8112-44.2368c-10.6496-13.5168-25.8048-24.7808-45.4656-33.792-17.6896-8.1152-40.0384-12.5696-67.0208-13.3888L551.936 179.2z m-3.072 62.6688c10.24 0 19.8656 1.024 28.8768 3.072 9.0112 2.048 16.9984 5.8368 23.9616 11.3664s12.4928 13.0048 16.5888 22.4256c4.096 9.4208 6.144 21.2992 6.144 35.6352 0 13.9264-2.3552 25.4976-7.0656 34.7136-4.7104 9.216-10.8544 16.5888-18.432 22.1184-7.5776 5.5296-15.872 9.5232-24.8832 11.9808a100.1728 100.1728 0 0 1-26.4192 3.6864H435.2V241.8688h113.664z" p-id="15900" fill="#d81e06"></path></svg>