<?xml version="1.0" standalone="no"?><!DOCTYPE svg PUBLIC "-//W3C//DTD SVG 1.1//EN" "http://www.w3.org/Graphics/SVG/1.1/DTD/svg11.dtd"><svg t="1595470846935" class="icon" viewBox="0 0 1024 1024" version="1.1" xmlns="http://www.w3.org/2000/svg" p-id="7537" width="32" height="32" xmlns:xlink="http://www.w3.org/1999/xlink"><defs><style type="text/css"></style></defs><path d="M569.6 229.312c15.616 43.904 26.56 96.128 32.064 153.216 45.504 1.664 88.512 6.848 128.896 15.552 1.792-11.584 4.48-21.76 7.36-30.336 8.448-25.6 22.336-47.808 40.128-64.384 12.16-11.2 25.472-19.392 39.36-24.128a385.344 385.344 0 0 0-155.968-120.96A380.608 380.608 0 0 0 513.152 128c22.528 25.344 41.408 59.2 56.384 101.312z m273.6 92.544c-24.32 1.92-49.088 26.944-60.352 60.736-2.496 7.488-4.736 16.64-6.016 27.2 41.728 12.288 80.256 28.8 115.584 49.28a378.88 378.88 0 0 0-46.912-137.6 29.44 29.44 0 0 1-2.304 0.384z m-515.136-33.92a160 160 0 0 1 79.552 106.176c40.448-5.888 79.68-9.6 117.44-11.328 9.728-0.384 19.392-0.64 28.928-0.768-5.248-51.2-15.168-97.728-29.056-136.832-19.008-53.312-45.248-91.392-75.776-110.08a18.944 18.944 0 0 1-2.24-1.664 383.232 383.232 0 0 0-226.816 129.024c41.408 0.064 77.632 8.576 107.968 25.408z m567.424 228.992a462.72 462.72 0 0 0-116.864-56.96c1.792 9.792 4.48 20.224 8.32 31.232 15.808 44.992 46.976 89.408 92.608 132.288A381.568 381.568 0 0 0 896 517.248a3.2 3.2 0 0 1-0.512-0.32zM557.952 440.064l-0.384-10.752c-48.064 0.576-96.64 4.928-144.768 11.968a235.904 235.904 0 0 1-2.368 30.912 294.272 294.272 0 0 1-32.896 97.344c-36.096 67.584-96 126.912-173.504 171.904a382.464 382.464 0 0 0 261.056 151.68c63.616-126.016 98.368-295.424 92.928-453.12z m-197.312-38.272a107.392 107.392 0 0 0-1.92-6.72c-19.84-62.272-81.408-92.736-168.896-83.584a22.4 22.4 0 0 1-5.376 0 381.248 381.248 0 0 0-53.056 148.928 1766.848 1766.848 0 0 1 229.248-58.624z m499.2 267.712c-58.24-51.456-97.792-106.24-117.568-162.624a244.096 244.096 0 0 1-13.184-60.736 691.008 691.008 0 0 0-124.032-16.128l0.32 8.32c2.752 78.72-4.16 162.56-19.904 242.56A924.992 924.992 0 0 1 516.352 896a382.464 382.464 0 0 0 267.2-112.448 382.72 382.72 0 0 0 78.08-112.512 14.464 14.464 0 0 1-1.792-1.536zM335.68 547.2c17.6-32.96 27.52-66.752 29.248-98.048a1745.92 1745.92 0 0 0-229.888 59.904 24.512 24.512 0 0 1-7.104 1.216V512a381.696 381.696 0 0 0 50.048 189.696c89.408-51.392 135.04-112.256 157.696-154.496z" p-id="7538"></path></svg>