<?xml version="1.0" standalone="no"?><!DOCTYPE svg PUBLIC "-//W3C//DTD SVG 1.1//EN" "http://www.w3.org/Graphics/SVG/1.1/DTD/svg11.dtd"><svg t="1595064588487" class="icon" viewBox="0 0 1024 1024" version="1.1" xmlns="http://www.w3.org/2000/svg" p-id="7618" width="32" height="32" xmlns:xlink="http://www.w3.org/1999/xlink"><defs><style type="text/css"></style></defs><path d="M240.448 697.6A364.48 364.48 0 0 1 128 435.072c0-98.56 40.512-193.024 112.448-262.4C390.4 27.776 633.6 27.776 783.552 172.736A364.48 364.48 0 0 1 896 435.136c0 98.56-40.512 193.024-112.448 262.4L512 960l-271.552-262.4z" fill="#FE2042" p-id="7619"></path><path d="M540.8 306.624c7.808 21.952 13.248 48.064 16 76.672 22.784 0.832 44.288 3.392 64.512 7.744 0.896-5.76 2.176-10.88 3.648-15.168 4.224-12.8 11.2-23.872 20.096-32.192a55.424 55.424 0 0 1 19.648-12.032A192.64 192.64 0 0 0 512.64 256c11.264 12.672 20.736 29.632 28.16 50.624z m136.832 46.272c-12.16 1.024-24.576 13.504-30.208 30.4-1.28 3.712-2.368 8.32-3.008 13.568 20.864 6.208 40.128 14.4 57.792 24.64a189.44 189.44 0 0 0-23.488-68.736 14.72 14.72 0 0 1-1.152 0.128zM420.032 336a80 80 0 0 1 39.744 53.12 595.392 595.392 0 0 1 73.216-6.016 297.408 297.408 0 0 0-14.528-68.48c-9.536-26.624-22.592-45.696-37.888-55.04a9.472 9.472 0 0 1-1.088-0.768A190.976 190.976 0 0 0 366.08 323.2c20.672 0 38.784 4.288 53.952 12.672z m283.712 114.56a231.36 231.36 0 0 0-58.432-28.544c0.896 4.928 2.24 10.112 4.16 15.68 7.872 22.464 23.488 44.672 46.336 66.112A190.72 190.72 0 0 0 704 450.56a1.6 1.6 0 0 1-0.256-0.128z m-168.768-38.464a10014.72 10014.72 0 0 0-0.192-5.376 545.536 545.536 0 0 0-72.384 6.016c0 4.992-0.448 10.176-1.152 15.36a147.136 147.136 0 0 1-16.448 48.768c-18.112 33.728-48 63.36-86.784 85.952a191.68 191.68 0 0 0 79.296 62.144c16.448 6.976 33.6 11.52 51.2 13.696 31.872-63.04 49.216-147.712 46.464-226.56z m-98.624-19.136a53.696 53.696 0 0 0-0.96-3.392c-9.984-31.104-40.704-46.336-84.48-41.728a11.2 11.2 0 0 1-2.688 0 189.76 189.76 0 0 0-26.496 74.432 883.456 883.456 0 0 1 114.56-29.312z m249.6 133.824c-29.184-25.728-48.96-53.12-58.816-81.28a122.048 122.048 0 0 1-6.592-30.336 345.536 345.536 0 0 0-62.08-8.064 539.008 539.008 0 0 1-9.792 125.44A462.528 462.528 0 0 1 514.24 640a191.232 191.232 0 0 0 133.632-56.192 191.36 191.36 0 0 0 39.04-56.32 7.232 7.232 0 0 1-0.96-0.768z m-262.08-61.12c8.832-16.448 13.76-33.344 14.656-49.024a872.96 872.96 0 0 0-114.944 29.952 12.224 12.224 0 0 1-3.584 0.64V448a190.848 190.848 0 0 0 25.024 94.848c44.672-25.664 67.52-56.128 78.848-77.248z" fill="#FFFFFF" p-id="7620"></path></svg>