<?xml version="1.0" standalone="no"?><!DOCTYPE svg PUBLIC "-//W3C//DTD SVG 1.1//EN" "http://www.w3.org/Graphics/SVG/1.1/DTD/svg11.dtd"><svg t="1595470971451" class="icon" viewBox="0 0 1024 1024" version="1.1" xmlns="http://www.w3.org/2000/svg" p-id="10257" width="32" height="32" xmlns:xlink="http://www.w3.org/1999/xlink"><defs><style type="text/css"></style></defs><path d="M663.936 128c2.368 0 4.288 1.92 4.288 4.224v65.92c0 2.368-1.92 4.288-4.288 4.288H543.872v60.608l157.312 117.12v187.648h165.76V896H616.576v-162.816a60.48 60.48 0 0 0-60.48-60.48h-51.584a60.48 60.48 0 0 0-60.48 60.48V896H192V567.808h180.992V380.16L528.64 263.168v-131.84c0-1.792 1.536-3.328 3.392-3.328h131.904zM536.32 377.536a69.376 69.376 0 1 0 0 138.688 69.376 69.376 0 0 0 0-138.688z" p-id="10258"></path></svg>