<?xml version="1.0" standalone="no"?><!DOCTYPE svg PUBLIC "-//W3C//DTD SVG 1.1//EN" "http://www.w3.org/Graphics/SVG/1.1/DTD/svg11.dtd"><svg t="1595065183150" class="icon" viewBox="0 0 1024 1024" version="1.1" xmlns="http://www.w3.org/2000/svg" p-id="9868" width="32" height="32" xmlns:xlink="http://www.w3.org/1999/xlink"><defs><style type="text/css"></style></defs><path d="M240.448 697.6A364.48 364.48 0 0 1 128 435.072c0-98.56 40.512-193.024 112.448-262.4C390.4 27.776 633.6 27.776 783.552 172.736A364.48 364.48 0 0 1 896 435.136c0 98.56-40.512 193.024-112.448 262.4L512 960l-271.552-262.4z" fill="#FE2042" p-id="9869"></path><path d="M587.968 192c1.152 0 2.112 0.96 2.112 2.112v32.96a2.112 2.112 0 0 1-2.112 2.112H528v30.336l78.656 58.56v93.824h82.88V576H564.288V494.592a30.208 30.208 0 0 0-30.208-30.208h-25.792a30.208 30.208 0 0 0-30.272 30.208V576H352V411.904h90.496V318.08l77.824-58.496v-65.92c0-0.896 0.768-1.664 1.664-1.664h65.984zM524.16 316.8a34.688 34.688 0 1 0 0 69.312 34.688 34.688 0 0 0 0-69.376z" fill="#FFFFFF" p-id="9870"></path></svg>