<?xml version="1.0" standalone="no"?><!DOCTYPE svg PUBLIC "-//W3C//DTD SVG 1.1//EN" "http://www.w3.org/Graphics/SVG/1.1/DTD/svg11.dtd"><svg t="1595065004700" class="icon" viewBox="0 0 1024 1024" version="1.1" xmlns="http://www.w3.org/2000/svg" p-id="9268" width="32" height="32" xmlns:xlink="http://www.w3.org/1999/xlink"><defs><style type="text/css"></style></defs><path d="M240.448 697.6A364.48 364.48 0 0 1 128 435.072c0-98.56 40.512-193.024 112.448-262.4C390.4 27.776 633.6 27.776 783.552 172.736A364.48 364.48 0 0 1 896 435.136c0 98.56-40.512 193.024-112.448 262.4L512 960l-271.552-262.4z" fill="#FE2042" p-id="9269"></path><path d="M575.808 346.88v-11.2h12.864V256H419.328v79.68h12.864v11.2A58.688 58.688 0 0 0 384 404.544v176.832c0 32.32 26.24 58.624 58.624 58.624h122.752c32.32 0 58.624-26.24 58.624-58.624V404.544a58.688 58.688 0 0 0-48.192-57.664z m-10.432 256.128H442.624a21.632 21.632 0 0 1-21.632-21.632V404.544c0-11.904 9.728-21.568 21.632-21.568h26.56v-47.36H538.88v47.36h26.56c11.968 0 21.632 9.664 21.632 21.568v15.552H466.304V565.76h120.704v15.616a21.632 21.632 0 0 1-21.632 21.632zM498.304 505.152v-24.448h29.76v-29.824h24.512v29.824H582.4v24.448h-29.824v29.824H528v-29.824h-29.76z" fill="#FFFFFF" p-id="9270"></path></svg>