<?xml version="1.0" standalone="no"?><!DOCTYPE svg PUBLIC "-//W3C//DTD SVG 1.1//EN" "http://www.w3.org/Graphics/SVG/1.1/DTD/svg11.dtd"><svg t="1595470944554" class="icon" viewBox="0 0 1024 1024" version="1.1" xmlns="http://www.w3.org/2000/svg" p-id="9545" width="32" height="32" xmlns:xlink="http://www.w3.org/1999/xlink"><defs><style type="text/css"></style></defs><path d="M639.616 309.76v-22.4h25.728V128H326.656v159.36h25.728v22.4A117.376 117.376 0 0 0 256 425.088v353.728C256 843.456 308.608 896 373.184 896H618.88c64.64 0 117.184-52.608 117.184-117.184V425.088c0-57.472-41.6-105.472-96.384-115.328z m-20.8 512.192H373.12a43.264 43.264 0 0 1-43.2-43.136V425.088c0-23.808 19.392-43.136 43.2-43.136h53.248V287.36h139.136v94.592h53.248c23.808 0 43.2 19.328 43.2 43.136v31.104H420.608v291.328h241.408v31.296a43.264 43.264 0 0 1-43.2 43.136zM484.48 626.304v-48.896h59.648V517.76h48.896v59.648h59.648v48.896h-59.648v59.648h-48.896v-59.648H484.48z" p-id="9546"></path></svg>