<?xml version="1.0" standalone="no"?><!DOCTYPE svg PUBLIC "-//W3C//DTD SVG 1.1//EN" "http://www.w3.org/Graphics/SVG/1.1/DTD/svg11.dtd"><svg t="1595470920464" class="icon" viewBox="0 0 1024 1024" version="1.1" xmlns="http://www.w3.org/2000/svg" p-id="8793" width="32" height="32" xmlns:xlink="http://www.w3.org/1999/xlink"><defs><style type="text/css"></style></defs><path d="M512 128A384 384 0 1 0 512 896.064 384 384 0 0 0 512 128z m169.792 379.008c1.28 6.144 1.92 13.12 1.92 20.992 0 9.6-0.64 17.664-1.92 24.256H555.968v57.664h125.824c1.28 6.144 1.92 13.12 1.92 20.992 0 9.6-0.64 17.664-1.92 24.256H555.968v102.848a214.144 214.144 0 0 1-66.88 0v-102.848H368.512a73.472 73.472 0 0 1-2.624-22.272 85.76 85.76 0 0 1 2.624-22.912h120.576v-57.728H368.512a73.472 73.472 0 0 1-2.624-22.272 87.552 87.552 0 0 1 2.624-22.976h94.336L342.272 294.656a290.368 290.368 0 0 1 57.024-1.984c6.592 0.384 12.48 1.088 17.728 1.92l107.52 197.952 105.536-197.952a210.112 210.112 0 0 1 35.328-2.56c6.144 0 12.224 0.192 18.368 0.64 6.144 0.384 11.776 1.088 17.024 1.92L582.208 506.944h99.584z" p-id="8794"></path></svg>