<?xml version="1.0" standalone="no"?><!DOCTYPE svg PUBLIC "-//W3C//DTD SVG 1.1//EN" "http://www.w3.org/Graphics/SVG/1.1/DTD/svg11.dtd"><svg t="1595064865544" class="icon" viewBox="0 0 1024 1024" version="1.1" xmlns="http://www.w3.org/2000/svg" p-id="8668" width="32" height="32" xmlns:xlink="http://www.w3.org/1999/xlink"><defs><style type="text/css"></style></defs><path d="M240.448 697.6A364.48 364.48 0 0 1 128 435.072c0-98.56 40.512-193.024 112.448-262.4C390.4 27.776 633.6 27.776 783.552 172.736A364.48 364.48 0 0 1 896 435.136c0 98.56-40.512 193.024-112.448 262.4L512 960l-271.552-262.4z" fill="#FE2042" p-id="8669"></path><path d="M512 256a192 192 0 1 0 0 384 192 192 0 0 0 0-384z m84.928 189.44a63.872 63.872 0 0 1 0 22.656h-62.912v28.864h62.912a63.744 63.744 0 0 1 0 22.592h-62.912v51.456a107.072 107.072 0 0 1-33.472 0v-51.456h-60.288a36.736 36.736 0 0 1-1.28-11.136 55.808 55.808 0 0 1 1.28-11.456h60.288v-28.8h-60.288a36.736 36.736 0 0 1-1.28-11.2 56.064 56.064 0 0 1 1.28-11.52h47.168l-60.288-106.112a145.216 145.216 0 0 1 28.544-1.024c3.264 0.256 6.208 0.576 8.832 1.024l53.76 98.944 52.736-98.944a105.024 105.024 0 0 1 17.728-1.28 133.312 133.312 0 0 1 17.664 1.28L547.072 445.44h49.856z" fill="#FFFFFF" p-id="8670"></path></svg>