<?xml version="1.0" standalone="no"?><!DOCTYPE svg PUBLIC "-//W3C//DTD SVG 1.1//EN" "http://www.w3.org/Graphics/SVG/1.1/DTD/svg11.dtd"><svg t="1595470950002" class="icon" viewBox="0 0 1024 1024" version="1.1" xmlns="http://www.w3.org/2000/svg" p-id="9713" width="32" height="32" xmlns:xlink="http://www.w3.org/1999/xlink"><defs><style type="text/css"></style></defs><path d="M255.36 330.56L128 457.6c19.2 10.624 32 30.592 32 53.76a61.568 61.568 0 0 1-32 53.76l127.36 127.04a36.48 36.48 0 0 0 51.584 0l119.296-119.04H295.68a14.784 14.784 0 0 1-14.72-14.592V464.64c0-8 6.656-14.656 14.72-14.656h130.944l-119.68-119.424a36.48 36.48 0 0 0-51.712 0m75.712 436.992l127.36 127.04a61.184 61.184 0 0 1 107.648 0l127.36-127.04a36.416 36.416 0 0 0 0-51.52L574.08 596.992v130.56a14.784 14.784 0 0 1-14.72 14.72H465.024a14.784 14.784 0 0 1-14.72-14.72v-130.56l-119.296 118.592a36.992 36.992 0 0 0 0 51.968m437.696-75.52L896 564.992a60.8 60.8 0 0 1-32-53.76c0-23.104 12.928-43.072 32-53.76l-127.36-126.912a36.48 36.48 0 0 0-51.584 0l-119.36 119.04h130.944c8 0 14.72 6.592 14.72 14.592v93.696a14.784 14.784 0 0 1-14.72 14.656H597.696l119.232 118.976a36.16 36.16 0 0 0 51.776 0.512m-75.712-436.992L565.632 128a61.184 61.184 0 0 1-107.648 0L331.008 255.04a36.416 36.416 0 0 0 0 51.52l119.296 119.04V295.872c0-8 6.656-14.656 14.72-14.656h93.888c8.064 0 14.72 6.656 14.72 14.656v130.56l119.296-119.488a36.8 36.8 0 0 0 0.064-51.84" p-id="9714"></path></svg>