<?xml version="1.0" standalone="no"?><!DOCTYPE svg PUBLIC "-//W3C//DTD SVG 1.1//EN" "http://www.w3.org/Graphics/SVG/1.1/DTD/svg11.dtd"><svg t="1595065086286" class="icon" viewBox="0 0 1024 1024" version="1.1" xmlns="http://www.w3.org/2000/svg" p-id="9418" width="32" height="32" xmlns:xlink="http://www.w3.org/1999/xlink"><defs><style type="text/css"></style></defs><path d="M240.448 697.6A364.48 364.48 0 0 1 128 435.072c0-98.56 40.512-193.024 112.448-262.4C390.4 27.776 633.6 27.776 783.552 172.736A364.48 364.48 0 0 1 896 435.136c0 98.56-40.512 193.024-112.448 262.4L512 960l-271.552-262.4z" fill="#FE2042" p-id="9419"></path><path d="M383.68 357.248L320 420.8a30.72 30.72 0 0 1 0 53.76l63.68 63.488a18.24 18.24 0 0 0 25.792 0l59.648-59.52H403.84a7.424 7.424 0 0 1-7.296-7.232V424.32c0-3.968 3.328-7.296 7.36-7.296h65.408l-59.84-59.776a18.24 18.24 0 0 0-25.792 0m37.824 218.56l63.68 63.488a30.592 30.592 0 0 1 53.824 0l63.68-63.488a18.176 18.176 0 0 0 0-25.792l-59.648-59.52v65.28a7.424 7.424 0 0 1-7.36 7.36h-47.168a7.424 7.424 0 0 1-7.36-7.36v-65.28l-59.648 59.264a18.496 18.496 0 0 0 0 26.048m218.88-37.76L704 474.496a30.4 30.4 0 0 1-16-26.88c0-11.52 6.464-21.568 16-26.88l-63.68-63.488a18.24 18.24 0 0 0-25.792 0l-59.712 59.52h65.472c4.032 0 7.36 3.328 7.36 7.296v46.912a7.424 7.424 0 0 1-7.36 7.296H554.88l59.648 59.52a18.048 18.048 0 0 0 25.856 0.256m-37.824-218.496L538.816 256a30.592 30.592 0 0 1-53.824 0l-63.488 63.552a18.176 18.176 0 0 0 0 25.728l59.648 59.52V339.84c0-3.968 3.328-7.296 7.36-7.296h46.976c3.968 0 7.296 3.328 7.296 7.296v65.28l59.648-59.712a18.368 18.368 0 0 0 0.064-25.92" fill="#FFFFFF" p-id="9420"></path></svg>