<?xml version="1.0" standalone="no"?><!DOCTYPE svg PUBLIC "-//W3C//DTD SVG 1.1//EN" "http://www.w3.org/Graphics/SVG/1.1/DTD/svg11.dtd"><svg t="1595065209343" class="icon" viewBox="0 0 1024 1024" version="1.1" xmlns="http://www.w3.org/2000/svg" p-id="10018" width="32" height="32" xmlns:xlink="http://www.w3.org/1999/xlink"><defs><style type="text/css"></style></defs><path d="M240.448 697.6A364.48 364.48 0 0 1 128 435.072c0-98.56 40.512-193.024 112.448-262.4C390.4 27.776 633.6 27.776 783.552 172.736A364.48 364.48 0 0 1 896 435.136c0 98.56-40.512 193.024-112.448 262.4L512 960l-271.552-262.4z" fill="#FE2042" p-id="10019"></path><path d="M668.992 486.656c62.208-62.144 50.048-175.104 50.048-175.104S606.08 299.392 544 361.6c-44.416 44.416-50.816 114.432-50.944 151.04l-1.024 1.024-12.608-12.608c0-28.16-5.12-81.92-39.168-115.968-47.744-47.744-134.4-38.4-134.4-38.4s-9.344 86.72 38.4 134.464c34.048 34.112 87.872 39.04 115.968 39.168l12.608 12.608-28.864 28.8 24.96 25.024 28.864-28.8h0.128l19.2-19.2h-0.128l1.088-1.088c36.608-0.128 106.624-6.592 151.04-51.008z" fill="#FFFFFF" p-id="10020"></path></svg>