<?xml version="1.0" standalone="no"?><!DOCTYPE svg PUBLIC "-//W3C//DTD SVG 1.1//EN" "http://www.w3.org/Graphics/SVG/1.1/DTD/svg11.dtd"><svg t="1595470977765" class="icon" viewBox="0 0 1024 1024" version="1.1" xmlns="http://www.w3.org/2000/svg" p-id="10465" width="32" height="32" xmlns:xlink="http://www.w3.org/1999/xlink"><defs><style type="text/css"></style></defs><path d="M825.984 589.312c124.416-124.288 100.096-350.208 100.096-350.208s-225.92-24.32-350.208 100.096C487.104 428.032 474.24 568.128 473.984 641.216l-2.112 2.112-25.152-25.216c-0.128-56.192-10.112-163.84-78.336-231.936-95.488-95.488-268.864-76.864-268.864-76.864s-18.56 173.44 76.8 268.992c68.16 68.224 175.808 78.08 232 78.272l25.152 25.216-57.664 57.728 49.984 49.92 57.728-57.6 0.192 0.128 38.4-38.4-0.192-0.192 2.112-2.048c73.152-0.256 213.248-13.248 301.952-102.016z" p-id="10466"></path></svg>