<?xml version="1.0" standalone="no"?><!DOCTYPE svg PUBLIC "-//W3C//DTD SVG 1.1//EN" "http://www.w3.org/Graphics/SVG/1.1/DTD/svg11.dtd"><svg t="1595470964200" class="icon" viewBox="0 0 1024 1024" version="1.1" xmlns="http://www.w3.org/2000/svg" p-id="10089" width="32" height="32" xmlns:xlink="http://www.w3.org/1999/xlink"><defs><style type="text/css"></style></defs><path d="M723.712 471.552v381.12h-42.304V302.08h84.672L512 132.8 257.92 302.08h84.672v550.528h-42.304V471.552H130.88v423.488h762.24V471.552h-169.408zM173.248 556.224H257.92v42.368H173.248v-42.368z m0 84.736H257.92v42.304H173.248v-42.304z m0 84.672H257.92V768H173.248v-42.368zM512 344.512a84.672 84.672 0 1 1 0 169.344 84.672 84.672 0 0 1 0-169.344z m-84.672 508.16v-211.712h169.344v211.712H427.328zM766.08 556.16h84.672v42.368H766.08v-42.368z m0 84.736h84.672v42.304H766.08v-42.304z m0 84.672h84.672V768H766.08v-42.368z" p-id="10090"></path></svg>