<?xml version="1.0" standalone="no"?><!DOCTYPE svg PUBLIC "-//W3C//DTD SVG 1.1//EN" "http://www.w3.org/Graphics/SVG/1.1/DTD/svg11.dtd"><svg t="1595065155993" class="icon" viewBox="0 0 1024 1024" version="1.1" xmlns="http://www.w3.org/2000/svg" p-id="9718" width="32" height="32" xmlns:xlink="http://www.w3.org/1999/xlink"><defs><style type="text/css"></style></defs><path d="M240.448 697.6A364.48 364.48 0 0 1 128 435.072c0-98.56 40.512-193.024 112.448-262.4C390.4 27.776 633.6 27.776 783.552 172.736A364.48 364.48 0 0 1 896 435.136c0 98.56-40.512 193.024-112.448 262.4L512 960l-271.552-262.4z" fill="#FE2042" p-id="9719"></path><path d="M617.856 363.776v190.528h-21.12v-275.2h42.304L512 194.368 384.96 279.104h42.368v275.2h-21.184V363.776H321.472v211.712h381.056V363.776H617.856z m-275.2 42.368h42.304v21.12h-42.368v-21.12z m0 42.304h42.304v21.184h-42.368v-21.12z m0 42.368h42.304v21.12h-42.368v-21.12zM512 300.288a42.368 42.368 0 1 1 0 84.672 42.368 42.368 0 0 1 0-84.672z m-42.368 254.08V448.384h84.736v105.856H469.632z m169.408-148.224h42.368v21.12h-42.368v-21.12z m0 42.304h42.368v21.184h-42.368v-21.12z m0 42.368h42.368v21.12h-42.368v-21.12z" fill="#FFFFFF" p-id="9720"></path></svg>