<?xml version="1.0" standalone="no"?><!DOCTYPE svg PUBLIC "-//W3C//DTD SVG 1.1//EN" "http://www.w3.org/Graphics/SVG/1.1/DTD/svg11.dtd"><svg t="1600673481498" class="icon" viewBox="0 0 1024 1024" version="1.1" xmlns="http://www.w3.org/2000/svg" p-id="18819" xmlns:xlink="http://www.w3.org/1999/xlink" width="32" height="32"><defs><style type="text/css"></style></defs><path d="M512 512m-512 0a512 512 0 1 0 1024 0 512 512 0 1 0-1024 0Z" fill="#008AFF" p-id="18820"></path><path d="M745.411765 783.058824H271.058824V274.823529C271.058824 256.120471 286.238118 240.941176 304.941176 240.941176h271.058824c18.703059 0 33.882353 15.179294 33.882353 33.882353v118.603295h135.529412c18.703059 0 33.882353 15.149176 33.882353 33.852235V783.058824H745.411765M406.588235 342.588235h-67.764706v67.764706h67.764706v-67.764706m0 135.529412h-67.764706v67.764706h67.764706v-67.764706m0 135.529412h-67.764706v67.764706h67.764706v-67.764706m118.603294-271.058824h-67.764705v67.764706h67.764705v-67.764706m0 135.529412h-67.764705v67.764706h67.764705v-67.764706m0 135.529412h-67.764705v67.764706h67.764705v-67.764706m186.337883-135.529412h-67.764706v67.764706h67.764706v-67.764706m0 135.529412h-67.764706v67.764706h67.764706v-67.764706" fill="#FFFFFF" p-id="18821"></path></svg>